<svg xmlns="http://www.w3.org/2000/svg">
<defs>
<font id="220788d9ce80d90fe2fca1c59f0f85ac" horiz-adv-x='1024' >
  <font-face 
    font-family="GTSectraDisplay-Bold"
    font-weight="700"
    font-stretch="normal"
    units-per-em="1000"
    panose-1="2 0 5 3 0 0 0 2 0 3"
    ascent="750"
    descent="-250"
    x-height="474"
    cap-height="700"
    bbox="-160 -246 2181 990"
    underline-thickness="50"
    underline-position="-50"
    unicode-range="U+000D-FB04"
  />
<missing-glyph horiz-adv-x="625" 
d="M605 460l-3 -41l-8 -35l-12 -31l-3 -156l-21 -7l-50 70l-27 -7l-19 -140l-32 4l-7 -4l-4 -94l30 -19l16 -14l-3 -15l-30 1l-24 18h-14l-8 8l7 76l-4 47l-61 1l-3 -52l-2 -56v-20l-15 -6l-8 6l-30 -10h-32l-1 11l11 11l50 21l-6 96l-98 -6l-147 140l-4 115l-13 10l-10 36
v26l15 8l-3 78l92 -62l9 47l10 36l22 35l28 35l39 29l40 15l38 14h22l-68 22l4 17h7l79 -20l-4 51l16 12h32l19 -5l29 -25l32 -8l32 -10l15 -13v-20l-20 -31l30 -28l28 -32l18 -34l15 -41zM495 399l-4 7h-205l-66 -3l-7 -9l-6 -44l-48 20l-11 -4l57 -27l1 -45l-5 -73v-91
l18 4l2 40l41 -3l3 9l-44 6v16l48 -6l1 9l-47 7l1 22l43 -3l3 6l-45 9l3 94h74l11 10h-79l2 9h74l8 7h-82l2 22l117 4l140 -4v11zM176 569l29 12l13 -15l-17 -20l-10 -3l17 -3h5l36 24h32l18 -12l8 3l4 14l7 5l10 -4v-18h8l10 22l11 8l-5 6l-3 8l1 21l-30 -10l-10 -8l-8 5
l4 21l14 10l11 11l38 -2l12 13l-4 8h-49l-45 -13l-53 -26l-29 -23zM586 465l-8 37l-19 50l-20 36l-23 28l-34 21h-11l17 -19l25 -10l11 -11l3 -33l-25 13l-15 -29l12 -8v-19l15 3l-12 26l15 -5l10 -20l-5 -12l-8 -7h-23l-3 11l-12 2l1 -22h-14l14 -18l-7 -10l-21 5l-3 -27
l41 6l8 17l22 -2l6 -28l-16 -13v-15l8 -6l18 12h23l6 11l-18 6l-5 9l9 42h7l14 -20zM72 434l57 -32l7 10l-68 38v18l59 -34l43 -28l28 -14l3 10l-103 64l-13 7l-41 33l2 -78l19 -17v-5h-21l19 -14l1 -11l-20 7l18 -18l-4 -7l3 -97l11 -12v180zM481 331l-54 1l-1 -24v-6
l-2 -31l19 -3l-8 -61l-48 3l-8 -6l51 -5l-2 -9h-49l-4 -5l53 -7l-6 -35l27 -1l12 79l4 36l-15 3l-1 8l20 1l5 3l-28 16l2 5l30 -6l-30 15l5 5l21 -5l4 10zM176 331l-66 39v-7l-2 -13l1 -27v-48l64 -44l-1 60zM350 214l-64 4v-51l64 -6v53zM502 306l8 -6l8 2l20 15l13 13

<glyph glyph-name="ff" unicode="ff" horiz-adv-x="670" 
d="M25 0v16l59 8v422h-59v16h59v5q0 44 17 75.5t49 58.5l118 103h186l-116 -97h-103l-4 -14q-5 -17 -6 -39.5t-1 -67.5v-24h178v9q0 45 17 77t49 59l119 103h108v-97h-142l-3 -14q-5 -17 -6.5 -39t-1.5 -67v-31h123v-16h-123v-422l90 -8v-16h-283v16l53 8v422h-178v-422
l84 -8v-16h-283z" />
    <glyph glyph-name="fi" unicode="fi" horiz-adv-x="615" 
d="M25 462h59v9q0 45 17 77t49 59l118 103h278v-134h-16l-114 37h-181l-4 -14q-5 -17 -6 -39t-1 -67v-31h178l123 22h17v-460l53 -8v-16h-246v16l53 8v422h-178v-422l84 -8v-16h-283v16l59 8v422h-59v16z" />
    <glyph glyph-name="fl" unicode="fl" horiz-adv-x="609" 
d="M401 462v151h-166l-4 -14q-5 -17 -6 -39t-1 -67v-31h177zM308 0h-277v16l53 8v422h-59v16h59v9q0 45 17 77t49 59l118 103h273v-686l53 -8v-16h-246v16l53 8v422h-177v-422l84 -8v-16z" />
    <glyph glyph-name="ffi" unicode="ffi" horiz-adv-x="933" 
d="M308 0h-283v16l59 8v422h-59v16h59v5q0 44 17 75.5t49 58.5l118 103h186l-116 -97h-103l-4 -14q-5 -17 -6 -39.5t-1 -67.5v-24h178v9q0 45 17 77t49 59l119 103h277v-134h-16l-114 37h-181l-3 -14q-5 -17 -6.5 -39t-1.5 -67v-31h179l123 22h16v-460l53 -8v-16h-246v16
l53 8v422h-178v-422l84 -8v-16h-283v16l59 8v422h-178v-422l84 -8v-16z" />
    <glyph glyph-name="ffl" unicode="ffl" horiz-adv-x="927" 
d="M719 462v151h-166l-4 -14q-5 -17 -6.5 -39t-1.5 -67v-31h178zM308 0h-283v16l59 8v422h-59v16h59v5q0 44 17 75.5t49 58.5l118 103h192l-116 -97h-109l-4 -14q-5 -17 -6 -39.5t-1 -67.5v-24h177v9q0 45 17 77t49 59l119 103h273v-686l53 -8v-16h-246v16l53 8v422h-178
v-422l84 -8v-16h-277v16l53 8v422h-177v-422l84 -8v-16z" />
    <glyph glyph-name="Th" unicode="Th" horiz-adv-x="1075" 
d="M130 0v16l85 8v657h-100l-86 -187h-17v206h552l124 12h16v-333l177 110q38 0 58.5 -8t32.5 -21q8 -8 13.5 -17.5t9 -22.5t5 -31.5t1.5 -45.5v-319l58 -8v-16h-241v16l37 8v324q0 32 -11.5 46t-34.5 14q-22 0 -38.5 -8t-38.5 -21l-28 -17v-338l38 -8v-16h-231v16l53 8v657
h-194v-657l83 -8v-16h-323z" />
    <glyph glyph-name="fb" unicode="fb" horiz-adv-x="895" 
d="M604 -15q-61 0 -109 9.5t-90 26.5v592h-170l-4 -14q-5 -17 -6 -39t-1 -67v-31h111v-16h-111v-422l89 -8v-16h-288v16l59 8v422h-59v16h59v9q0 45 17 77t49 59l118 103h277v-322l146 101q36 0 67.5 -14t55 -41t37 -66.5t13.5 -90.5q0 -242 -260 -292zM710 220
q0 101 -21.5 143.5t-62.5 42.5q-18 0 -32 -7.5t-31 -17.5l-18 -11v-335q11 -16 26 -22.5t35 -6.5q46 0 75 56t29 158z" />
    <glyph glyph-name="ffb" unicode="ffb" horiz-adv-x="1214" 
d="M922 -15q-61 0 -109 9.5t-90 26.5v592h-170l-3 -14q-5 -17 -6.5 -39t-1.5 -67v-31h111v-16h-111v-422l90 -8v-16h-289v16l59 8v422h-178v-422l84 -8v-16h-283v16l59 8v422h-59v16h59v5q0 44 17 75.5t49 58.5l118 103h186l-116 -97h-103l-4 -14q-5 -17 -6 -39.5t-1 -67.5
v-24h178v9q0 45 17 77t49 59l119 103h276v-322l146 101q36 0 67.5 -14t55 -41t37 -66.5t13.5 -90.5q0 -242 -260 -292zM1029 220q0 101 -22 143.5t-63 42.5q-17 0 -31.5 -7.5t-31.5 -17.5l-18 -11v-335q11 -16 26 -22.5t36 -6.5q45 0 74.5 56t29.5 158z" />
    <glyph glyph-name="ffh" unicode="ffh" horiz-adv-x="1230" 
d="M25 0v16l59 8v422h-59v16h59v5q0 44 17 75.5t49 58.5l118 103h186l-116 -97h-103l-4 -14q-5 -17 -6 -39.5t-1 -67.5v-24h178v9q0 45 17 77t49 59l119 103h273v-331l176 110q39 0 59 -8t33 -21q8 -8 13.5 -17.5t8.5 -22.5t4.5 -31.5t1.5 -45.5v-319l58 -8v-16h-241v16
l37 8v324q0 32 -11 46t-34 14t-39.5 -8t-38.5 -21l-27 -17v-338l37 -8v-16h-230v16l53 8v589h-167l-3 -14q-5 -17 -6.5 -39t-1.5 -67v-31h111v-16h-111v-422l90 -8v-16h-289v16l59 8v422h-178v-422l84 -8v-16h-283z" />
    <glyph glyph-name="ffj" unicode="ffj" horiz-adv-x="916" 
d="M612 -238v122h100l2 20q2 14 4 42t2 73v427h-178v-422l90 -8v-16h-289v16l59 8v422h-178v-422l84 -8v-16h-283v16l59 8v422h-59v16h59v5q0 44 17 75.5t49 58.5l118 103h186l-116 -97h-103l-4 -14q-5 -17 -6 -39.5t-1 -67.5v-24h178v9q0 45 17 77t49 59l119 103h277v-134
h-16l-114 37h-181l-3 -14q-5 -17 -6.5 -39t-1.5 -67v-31h179l123 22h16v-427q0 -33 -3 -57.5t-11.5 -45t-24 -39.5t-39.5 -42l-107 -111h-63z" />
    <glyph glyph-name="ffk" unicode="ffk" horiz-adv-x="1223" 
d="M719 613h-167l-3 -14q-5 -17 -6.5 -39t-1.5 -67v-31h111v-16h-111v-422l84 -8v-16h-277v16l53 8v422h-177v-422l84 -8v-16h-283v16l59 8v422h-59v16h59v5q0 44 17 75.5t49 58.5l118 103h186l-116 -97h-103l-4 -14q-5 -17 -6 -39.5t-1 -67.5v-24h177v9q0 45 17 77t49 59
l119 103h273v-440l228 180l-69 8v16h175v-16l-69 -8l-231 -176l102 22l188 -272l35 -8v-16h-195l-164 258v-234l52 -8v-16h-245v16l53 8v589z" />
    <glyph glyph-name="fh" unicode="fh" horiz-adv-x="912" 
d="M313 0h-288v16l59 8v422h-59v16h59v9q0 45 17 77t49 59l118 103h273v-331l177 110q38 0 58.5 -8t32.5 -21q8 -8 13.5 -17.5t9 -22.5t5 -31.5t1.5 -45.5v-319l58 -8v-16h-241v16l37 8v324q0 32 -11.5 46t-34.5 14q-22 0 -38.5 -8t-38.5 -21l-28 -17v-338l38 -8v-16h-231
v16l53 8v589h-166l-4 -14q-5 -17 -6 -39t-1 -67v-31h111v-16h-111v-422l89 -8v-16z" />
    <glyph glyph-name="fj" unicode="fj" horiz-adv-x="598" 
d="M356 -238h-62v122h100l2 20q2 14 4 42t2 73v427h-178v-422l89 -8v-16h-288v16l59 8v422h-59v16h59v9q0 45 17 77t49 59l118 103h278v-134h-16l-114 37h-181l-4 -14q-5 -17 -6 -39t-1 -67v-31h178l123 22h17v-427q0 -33 -3 -57.5t-12 -45t-24.5 -39.5t-39.5 -42z" />
    <glyph glyph-name="fk" unicode="fk" horiz-adv-x="905" 
d="M335 446h-111v-422l84 -8v-16h-283v16l59 8v422h-59v16h59v9q0 45 17 77t49 59l118 103h273v-440l228 180l-68 8v16h174v-16l-69 -8l-231 -176l103 22l188 -272l34 -8v-16h-194l-165 258v-234l53 -8v-16h-246v16l53 8v589h-166l-4 -14q-5 -17 -6 -39t-1 -67v-31h111v-16z
" />
    <glyph glyph-name="ft" unicode="ft" horiz-adv-x="678" 
d="M505 -15q-61 0 -87.5 35t-26.5 95v331h-167v-422l84 -8v-16h-283v16l59 8v422h-59v16h59v12q0 44 17 75.5t49 57.5l118 103h192l-116 -97h-109l-4 -14q-5 -17 -6 -39t-1 -67v-31h167v68l140 76v-144h127v-16h-127v-322q0 -31 15.5 -45.5t39.5 -14.5q23 0 40 5t40 16
l7 -14l-168 -86v0z" />
    <glyph glyph-name="fu" unicode="fu" horiz-adv-x="899" 
d="M820 134q0 -29 3 -49.5t9 -43.5l43 3l2 -16l-175 -35l-19 97l-168 -105q-35 0 -58 8.5t-36 20.5q-17 17 -23.5 41.5t-6.5 77.5v313h-167v-422l89 -8v-16h-288v16l59 8v422h-59v16h59v9q0 45 17 77t49 59l118 103h108v-97h-141l-4 -14q-5 -17 -6 -39t-1 -67v-31h167
l129 20h17v-352q0 -64 49 -64q18 0 33 7t34 18l27 16v331l-51 -5l-1 16l177 33h15v-348z" />
    <glyph glyph-name="fy" unicode="fy" horiz-adv-x="842" 
d="M375 -235v125h142l110 168l-128 -48l-161 448h-114v-434l89 -8v-16h-288v16l59 8v434h-59v16h59v9q0 41 17.5 69.5t48.5 54.5l118 103h108v-97h-141l-4 -14q-5 -16 -6 -39.5t-1 -55.5v-30h327v-16l-52 -8l133 -376l131 376l-58 8v16h132v-16l-46 -8l-142 -404l-134 -281
h-140z" />
    <glyph glyph-name="gg" unicode="gg" horiz-adv-x="1026" 
d="M739 182q31 0 44.5 33.5t13.5 99.5q0 72 -15 113t-56 41q-31 0 -44.5 -33.5t-13.5 -100.5q0 -72 15 -112.5t56 -40.5zM248 182q31 0 44.5 33.5t13.5 99.5q0 72 -15 113t-56 41q-31 0 -44.5 -33.5t-13.5 -100.5q0 -72 15 -112.5t56 -40.5zM482 -8q0 -43 -19 -77
t-52.5 -62.5t-79 -51.5t-99.5 -44q-50 0 -90 5t-68 18t-42.5 35t-14.5 55v19l116 84q-50 11 -72.5 38.5t-22.5 62.5v22l104 81q-47 19 -74.5 55.5t-27.5 84.5q1 68 56 108t156 64q68 0 116 -28.5t65 -75.5l46 104h47l-23 -120h-62l-3 -5q5 -13 5 -27q-1 -71 -54 -110.5
t-157 -65.5q-20 0 -38.5 2.5t-35.5 7.5l-33 -33q0 -23 13.5 -33t36.5 -10h203q53 0 78.5 -30.5t25.5 -72.5zM990 -8q0 -43 -19 -77t-53 -62.5t-81 -51.5t-102 -44q-50 0 -89.5 5t-67 18t-42 35t-14.5 55v19l108 84q-48 11 -70 38.5t-22 62.5v22l99 80q-48 18 -76.5 55
t-28.5 86q0 68 55 108t156 64q68 0 116.5 -28.5t65.5 -75.5l45 104h51v-120h-88l-4 -5q5 -10 5 -27q-1 -71 -53.5 -110.5t-156.5 -65.5q-39 0 -70 9l-31 -32q0 -23 13 -33t35 -10h213q54 0 80 -30.5t26 -72.5zM646 -28q-14 -15 -18 -31.5t-4 -31.5q0 -35 32 -55t79 -20h89
q25 0 45 7t34 19t22 27.5t8 32.5q0 23 -14.5 37.5t-46.5 14.5h-226zM149 -28q-17 -15 -22 -31.5t-5 -31.5q0 -35 30.5 -55t73.5 -20h86q25 0 46 7t36 19t23.5 27.5t8.5 32.5q0 23 -14 37.5t-45 14.5h-218z" />
    <glyph glyph-name="ky" unicode="ky" horiz-adv-x="1054" 
d="M587 -235v125h143l109 168l-128 -48l-158 443h-63l-232 -179l103 22l188 -272l34 -8v-16h-194l-165 258v-234l53 -8v-16h-245v16l52 8v648l-51 -7l-3 18l178 29h16v-442l229 180l-69 8v16h379v-16l-52 -8l133 -376l131 376l-58 8v16h132v-16l-46 -8l-142 -404l-133 -281
h-141z" />
    <glyph glyph-name="tt" unicode="tt" horiz-adv-x="682" 
d="M394 530l140 76v-144h127v-16h-127v-322q0 -31 16 -45.5t39 -14.5t40.5 5t39.5 16l7 -14l-167 -86q-61 0 -88 35t-27 95v331h-183v-324q0 -30 14.5 -44t35.5 -14q23 0 40.5 5.5t38.5 15.5l7 -14l-162 -86q-61 0 -87.5 35t-26.5 95v331h-66v16h66v68l140 76v-144h183v68z
" />
    <glyph glyph-name="ty" unicode="ty" horiz-adv-x="820" 
d="M353 -235v125h142l109 168l-127 -48l-162 448h-104v-334q0 -31 15.5 -45.5t39.5 -14.5q21 0 37.5 4t37.5 15l7 -15l-163 -83q-61 0 -87.5 35t-26.5 95v343h-66v16h66v56l140 76v-132h317v-16l-52 -8l133 -376l132 376l-59 8v16h133v-16l-47 -8l-142 -404l-133 -281h-140z
" />
    <glyph glyph-name="www" unicode="www" horiz-adv-x="2186" 
d="M1763 316l-91 -298l-134 -36l-111 337l-92 -301l-133 -36l-110 334l-91 -298l-134 -36l-111 337l-92 -301l-133 -36l-110 334l-91 -298l-133 -36l-153 468l-39 8v16h242v-16l-51 -8l121 -382l90 294l-28 88l-40 8v16h242v-16l-51 -8l121 -382l91 297l-27 85l-39 8v16h241
v-16l-50 -8l121 -382l90 294l-29 88l-39 8v16h242v-16l-51 -8l121 -382l91 297l-27 85l-40 8v16h242v-16l-50 -8l120 -382l91 294l-29 88l-39 8v16h242v-16l-51 -8l121 -382l116 382l-58 8v16h130v-16l-44 -8l-131 -432l-134 -36z" />
    <glyph glyph-name=".notdef" horiz-adv-x="625" 
d="M605 460l-3 -41l-8 -35l-12 -31l-3 -156l-21 -7l-50 70l-27 -7l-19 -140l-32 4l-7 -4l-4 -94l30 -19l16 -14l-3 -15l-30 1l-24 18h-14l-8 8l7 76l-4 47l-61 1l-3 -52l-2 -56v-20l-15 -6l-8 6l-30 -10h-32l-1 11l11 11l50 21l-6 96l-98 -6l-147 140l-4 115l-13 10l-10 36
v26l15 8l-3 78l92 -62l9 47l10 36l22 35l28 35l39 29l40 15l38 14h22l-68 22l4 17h7l79 -20l-4 51l16 12h32l19 -5l29 -25l32 -8l32 -10l15 -13v-20l-20 -31l30 -28l28 -32l18 -34l15 -41zM495 399l-4 7h-205l-66 -3l-7 -9l-6 -44l-48 20l-11 -4l57 -27l1 -45l-5 -73v-91
l18 4l2 40l41 -3l3 9l-44 6v16l48 -6l1 9l-47 7l1 22l43 -3l3 6l-45 9l3 94h74l11 10h-79l2 9h74l8 7h-82l2 22l117 4l140 -4v11zM176 569l29 12l13 -15l-17 -20l-10 -3l17 -3h5l36 24h32l18 -12l8 3l4 14l7 5l10 -4v-18h8l10 22l11 8l-5 6l-3 8l1 21l-30 -10l-10 -8l-8 5
l4 21l14 10l11 11l38 -2l12 13l-4 8h-49l-45 -13l-53 -26l-29 -23zM586 465l-8 37l-19 50l-20 36l-23 28l-34 21h-11l17 -19l25 -10l11 -11l3 -33l-25 13l-15 -29l12 -8v-19l15 3l-12 26l15 -5l10 -20l-5 -12l-8 -7h-23l-3 11l-12 2l1 -22h-14l14 -18l-7 -10l-21 5l-3 -27
l41 6l8 17l22 -2l6 -28l-16 -13v-15l8 -6l18 12h23l6 11l-18 6l-5 9l9 42h7l14 -20zM72 434l57 -32l7 10l-68 38v18l59 -34l43 -28l28 -14l3 10l-103 64l-13 7l-41 33l2 -78l19 -17v-5h-21l19 -14l1 -11l-20 7l18 -18l-4 -7l3 -97l11 -12v180zM481 331l-54 1l-1 -24v-6
l-2 -31l19 -3l-8 -61l-48 3l-8 -6l51 -5l-2 -9h-49l-4 -5l53 -7l-6 -35l27 -1l12 79l4 36l-15 3l-1 8l20 1l5 3l-28 16l2 5l30 -6l-30 15l5 5l21 -5l4 10zM176 331l-66 39v-7l-2 -13l1 -27v-48l64 -44l-1 60zM350 214l-64 4v-51l64 -6v53zM502 306l8 -6l8 2l20 15l13 13
l11 18l-7 5h-14l-10 3l-14 7l-17 -3q-2 -13 -3 -24q-2 -9 -2.5 -17t-0.5 -7zM398 585l5 -6l19 11l8 -2l6 -24h13l6 6l-9 18l17 28l-15 9v5l-25 7v-20l-13 -5v-9l-9 -6zM403 336l4 30l-54 5l-3 -35h53zM336 455l-7 -11h-12l-5 7l11 8l-15 2v6l-23 4l3 -17l8 -14l20 -9l13 -1
l18 10l6 9l5 20l-30 2l7 -5zM559 312l-6 -3l-33 -27l39 -48v78zM214 454l1 4l14 2l-13 6l2 7l-20 -1l3 -19l14 -15l12 -6l11 5l16 12l6 12l2 13l-22 -4l6 -10l-12 -13l-14 -1zM364 281l-72 7l-6 -13l78 -4v10zM176 203l-74 50l20 -23l50 -41zM364 312h-73v-10h73v10z
M354 256l-68 4v-10h68v6zM485 359h-48v-13l44 4zM321 520l-4 -12l49 -17l3 4zM184 498l59 12l-4 12zM384 642l-8 -9v-19l12 -6l3 17zM461 530l-8 -4v-9l8 -3l2 7zM534 386l5 7v7l-10 -4v-10h5z" />
    <glyph glyph-name=".null" horiz-adv-x="0" 
 />
    <glyph glyph-name=".null" horiz-adv-x="0" 
 />
    <glyph glyph-name="nonmarkingreturn" unicode="&#xd;" horiz-adv-x="320" 
 />
    <glyph glyph-name="space" unicode=" " horiz-adv-x="237" 
 />
    <glyph glyph-name="exclam" unicode="!" horiz-adv-x="316" 
d="M103 118l83 6l30 -6l7 -63l-13 -55l-82 -7l-30 7l-6 65zM225 400l-54 -185h-26l-54 184l-11 311h155z" />
    <glyph glyph-name="quotedbl" unicode="&#x22;" horiz-adv-x="417" 
d="M65 431l73 149l-50 -3l-32 6l-6 69l11 54l87 5l34 -5l6 -64l-11 -59l-99 -157zM249 431l73 149l-50 -3l-32 6l-6 69l11 54l87 5l34 -5l6 -64l-11 -59l-100 -157z" />
    <glyph glyph-name="numbersign" unicode="#" horiz-adv-x="616" 
d="M437 446h139l-3 -26h-139l-23 -187h139l-4 -26h-138l-25 -207h-29l25 207h-171l-25 -207h-29l25 207h-139l3 26h139l23 187h-138l4 26h137l26 209h29l-26 -209h171l26 209h29zM211 233h171l23 187h-171z" />
    <glyph glyph-name="dollar" unicode="$" horiz-adv-x="562" 
d="M117 101q30 -35 67.5 -61.5t86.5 -26.5h12v257l-120 80q-25 17 -45.5 33.5t-35.5 36t-23.5 43.5t-8.5 55q0 34 12.5 64.5t40 56t72 45t108.5 31.5v66h19v-64q28 0 51.5 -2t45 -6.5t43.5 -11t48 -16.5v-182h-17l-64 145q-23 23 -49 36t-58 15v-245l100 -66
q60 -38 87.5 -78.5t27.5 -100.5q0 -70 -49 -123.5t-166 -86.5v-75h-19v69l-26 -6q-62 0 -110.5 14.5t-99.5 46.5v186h16zM181 592q0 -41 24.5 -68.5t66.5 -53.5l11 -8v232q-45 -3 -73.5 -29.5t-28.5 -72.5zM393 125q0 39 -21 70t-70 63v-242q42 8 66.5 36.5t24.5 72.5z" />
    <glyph glyph-name="percent" unicode="%" horiz-adv-x="829" 
d="M649 705h33l-493 -710h-35zM600 329q-58 0 -58 -136q0 -88 18.5 -132.5t53.5 -44.5q59 0 59 134q0 89 -19 134t-54 45zM592 -3q-34 0 -62.5 12t-49.5 34t-32.5 53t-11.5 69q0 42 13.5 72.5t38.5 52t59 35.5t76 23q34 0 63 -12t49.5 -34t32 -53t11.5 -69
q0 -42 -13.5 -72.5t-38.5 -52.5t-59 -35.5t-76 -22.5zM205 353q-34 0 -62.5 12t-49 34t-32 53t-11.5 69q0 42 13.5 72.5t38.5 52t59 35.5t76 23q34 0 63 -12t49.5 -34t32 -53t11.5 -69q0 -42 -13.5 -72.5t-38.5 -52.5t-59.5 -35.5t-76.5 -22.5zM214 685q-58 0 -58 -136
q0 -88 18.5 -132.5t53.5 -44.5q59 0 59 134q0 89 -19 134t-54 45z" />
    <glyph glyph-name="ampersand" unicode="&#x26;" horiz-adv-x="713" 
d="M336 429q19 16 30 36t16.5 41.5t7 42.5t1.5 41q0 45 -22.5 75t-60.5 30t-56.5 -22.5t-18.5 -62.5q0 -20 8.5 -41.5t22.5 -44.5t32 -46.5t38 -46.5zM311 89q23 0 45 7t45 29l7 9l-187 212q-32 -25 -42.5 -55t-10.5 -57q0 -29 11 -55.5t30 -46.5t45.5 -31.5t56.5 -11.5z
M423 116q-27 -29 -66 -64.5t-78 -66.5q-48 0 -91 12t-74.5 34.5t-50 54t-18.5 70.5q0 36 12.5 65.5t34 54t51.5 45t66 38.5l-19 21q-24 28 -41.5 50t-28 42t-15.5 38.5t-5 38.5q0 62 55 101.5t168 67.5q107 0 159 -36.5t52 -91.5q0 -54 -47.5 -93t-137.5 -83l153 -182
l96 110l-69 8v16h168v-16l-68 -8l-113 -127l161 -191l41 -8v-16h-192z" />
    <glyph glyph-name="quotesingle" unicode="'" horiz-adv-x="228" 
d="M65 430l73 149l-50 -3l-32 7l-6 68l11 54l87 6l34 -6l6 -64l-11 -58l-99 -158z" />
    <glyph glyph-name="parenleft" unicode="(" horiz-adv-x="312" 
d="M45 244q0 73 13.5 135.5t42.5 119.5t75.5 111.5t112.5 112.5l8 -9q-88 -93 -123.5 -213t-35.5 -257q0 -138 35.5 -258.5t123.5 -212.5l-8 -9q-66 58 -112.5 112.5t-75.5 111.5t-42.5 119.5t-13.5 136.5z" />
    <glyph glyph-name="parenright" unicode=")" horiz-adv-x="312" 
d="M267 244q0 -74 -13.5 -136.5t-42.5 -119.5t-76 -111.5t-113 -112.5l-7 9q43 46 73.5 99.5t49.5 113t27.5 124.5t8.5 134q0 68 -8.5 133t-27.5 124.5t-49.5 113t-73.5 99.5l7 9q66 -58 113 -112.5t76 -111.5t42.5 -119.5t13.5 -135.5z" />
    <glyph glyph-name="asterisk" unicode="*" horiz-adv-x="434" 
d="M261 388l-45 162l-43 -162l-102 74l141 91l-167 -8l39 119l130 -106l-60 157h126l-61 -157l131 105l39 -120l-169 10l142 -91z" />
    <glyph glyph-name="plus" unicode="+" 
d="M295 0v240h-243v29h243v246h29v-246h243v-29h-243v-240h-29z" />
    <glyph glyph-name="comma" unicode="," horiz-adv-x="264" 
d="M102 -142l63 138l-40 -3l-33 7l-7 71l12 59l90 7l34 -7l8 -69l-13 -62l-97 -147z" />
    <glyph glyph-name="hyphen" unicode="-" horiz-adv-x="385" 
d="M40 301h305v-45h-305v45z" />
    <glyph glyph-name="period" unicode="." horiz-adv-x="254" 
d="M82 130l91 7l33 -7l8 -69l-13 -61l-91 -7l-33 7l-7 71z" />
    <glyph glyph-name="slash" unicode="/" horiz-adv-x="464" 
d="M23 -230h-33l453 948h31z" />
    <glyph glyph-name="zero" unicode="0" horiz-adv-x="592" 
d="M396 223q0 51 -5.5 95t-18.5 75.5t-34 49.5t-52 18q-28 0 -46.5 -16.5t-30 -45t-16.5 -67t-5 -82.5q0 -52 5.5 -95.5t18.5 -75.5t34 -50t51 -18q28 0 47 16.5t30.5 45t16.5 67t5 83.5zM272 -15q-51 0 -93.5 17.5t-73 49t-48 76t-17.5 98.5q0 61 20.5 104.5t57.5 74.5
t88 51t112 33q51 0 94 -17.5t74 -49t48.5 -76t17.5 -98.5q0 -61 -20.5 -105t-57.5 -75t-88.5 -51t-113.5 -32z" />
    <glyph glyph-name="one" unicode="1" horiz-adv-x="439" 
d="M34 370l-5 16l254 102h17v-464l122 -8v-16h-388v16l126 8v388z" />
    <glyph glyph-name="two" unicode="2" horiz-adv-x="522" 
d="M158 111h334v-16l-37 -95h-426l-9 15l138 112q46 36 75 68t46 60.5t23.5 54.5t6.5 50q0 51 -20.5 75t-51.5 24q-12 0 -24 -3.5t-17 -5.5l-34 -156h-127v110l236 90q52 0 88.5 -10.5t59 -28t33 -40.5t10.5 -49q-1 -66 -58 -121.5t-171 -105.5z" />
    <glyph glyph-name="three" unicode="3" horiz-adv-x="519" 
d="M31 -229v120h253q23 26 34.5 51t11.5 62q0 28 -11.5 52.5t-33.5 42.5t-55 28.5t-75 10.5l-5 15l63 43q31 18 50.5 35t30.5 35t14.5 38t3.5 44q0 47 -23.5 74.5t-58.5 27.5q-11 0 -23.5 -3t-18.5 -6l-41 -142h-119v105l266 90q48 0 80 -11t52 -28.5t28.5 -38.5t8.5 -41
q0 -21 -8.5 -43t-30.5 -43t-60.5 -40t-98.5 -34q57 -1 98 -16t67.5 -37.5t38.5 -50t12 -53.5q0 -35 -11.5 -61.5t-34.5 -49.5t-57.5 -44t-80.5 -43l-192 -89h-74z" />
    <glyph glyph-name="four" unicode="4" horiz-adv-x="574" 
d="M434 15h131v-18h-131v-220h-140v220h-270l-11 15l300 465h180v-16l-457 -445h258v143l140 82v-226z" />
    <glyph glyph-name="five" unicode="5" horiz-adv-x="503" 
d="M99 362l-27 -235l225 120q45 0 77 -13t52.5 -34t30 -47.5t9.5 -53.5q0 -42 -15.5 -75t-41.5 -59.5t-59.5 -48t-69.5 -40.5l-188 -100h-56v119h205q40 35 56 71t16 81q0 20 -6 40t-19 36t-33.5 25.5t-49.5 9.5q-14 0 -26.5 -1.5t-24.5 -5t-25.5 -9t-29.5 -14.5l-38 -20
l-8 7l42 364h365l-24 -117h-337z" />
    <glyph glyph-name="six" unicode="6" horiz-adv-x="584" 
d="M377 450q44 0 75 -16.5t50.5 -43t28.5 -60t9 -66.5q0 -213 -258 -279q-58 0 -103 21.5t-75.5 59.5t-46 89t-15.5 110q0 71 22 139.5t70.5 128.5t125 108.5t184.5 79.5l5 -13q-79 -36 -126 -76.5t-73 -86.5t-35.5 -98.5t-12.5 -112.5v-8zM386 218q0 77 -19.5 114.5
t-53.5 37.5q-21 0 -41.5 -13.5t-46.5 -32.5l-22 -15q2 -154 25.5 -227t69.5 -73q44 0 66 50t22 159z" />
    <glyph glyph-name="seven" unicode="7" horiz-adv-x="500" 
d="M20 479h449l11 -14l-296 -686h-103v14l335 567h-396v119z" />
    <glyph glyph-name="eight" unicode="8" horiz-adv-x="570" 
d="M277 -15q-46 0 -88 10t-74.5 30t-51.5 51t-19 73q0 34 12.5 60.5t34 47.5t50 38.5t59.5 32.5l-44 36q-19 16 -37 33.5t-32 37.5t-22.5 42.5t-8.5 48.5q0 38 17.5 68.5t49.5 54t77 40.5t101 27q100 0 158.5 -37t58.5 -98q0 -54 -37.5 -96.5t-122.5 -78.5l75 -60
q37 -30 65 -68t28 -87q0 -83 -61 -130.5t-188 -75.5zM333 426q29 35 36.5 73t7.5 76q0 57 -27.5 87t-71.5 30q-32 0 -56 -18.5t-24 -60.5q0 -46 27.5 -84t78.5 -80zM293 8q15 0 30.5 5t28 16.5t20.5 31t8 49.5q0 42 -21 74t-66 70l-61 49q-26 -29 -39 -62t-13 -75t10.5 -72
t27 -49t36.5 -28t39 -9z" />
    <glyph glyph-name="nine" unicode="9" horiz-adv-x="588" 
d="M120 -229q72 35 119 75.5t74.5 86.5t39.5 99t14 114v6l-169 -125q-45 0 -76.5 17t-52 44.5t-30 61.5t-9.5 67q0 106 65 174t193 102q58 0 102.5 -21.5t75 -59t46.5 -88t16 -109.5q0 -71 -23.5 -140t-72.5 -129t-125 -108t-182 -79zM184 276q0 -88 21 -128t57 -40
q10 0 17.5 1.5t16 6t18.5 12.5t26 20l27 19q-5 302 -96 302q-42 0 -64.5 -47.5t-22.5 -145.5z" />
    <glyph glyph-name="colon" unicode=":" horiz-adv-x="269" 
d="M87 481l91 7l33 -7l8 -69l-13 -61l-91 -7l-33 7l-7 71zM87 130l91 7l33 -7l8 -69l-13 -61l-91 -7l-33 7l-7 71z" />
    <glyph glyph-name="semicolon" unicode=";" horiz-adv-x="289" 
d="M92 -142l69 138l-46 -3l-33 7l-7 71l12 59l90 7l34 -7l8 -69l-13 -61l-97 -148zM87 481l91 7l33 -7l8 -69l-13 -61l-91 -7l-33 7l-7 71z" />
    <glyph glyph-name="less" unicode="&#x3c;" 
d="M50 297l520 242v-31l-481 -221l481 -221v-32l-520 242v21z" />
    <glyph glyph-name="equal" unicode="=" 
d="M49 163h521v-29h-521v29zM49 356h521v-29h-521v29z" />
    <glyph glyph-name="greater" unicode="&#x3e;" 
d="M50 34v32l481 221l-481 221v31l520 -242v-21z" />
    <glyph glyph-name="question" unicode="?" horiz-adv-x="436" 
d="M380 546q0 -73 -44.5 -115.5t-125.5 -72.5l-33 -16l-16 -133h-26l-14 120l33 27q23 19 40 40t28 46t16.5 54.5t5.5 66.5q0 53 -22.5 89t-71.5 43l-74 -151h-37v154l124 13q57 -4 98 -18.5t67.5 -37t39 -50.5t12.5 -59zM176 124l30 -6l7 -63l-13 -55l-82 -7l-30 7l-6 65
l11 53z" />
    <glyph glyph-name="at" unicode="@" horiz-adv-x="942" 
d="M500 146l23 99l-144 -166q-23 3 -44 15.5t-37.5 33t-26.5 49t-10 64.5q0 41 14 78.5t38.5 70t58 58t72.5 42.5l106 47l126 -55l-82 -384q36 4 71.5 26.5t64 60.5t46.5 91t18 119q0 59 -21 109.5t-59.5 87t-92.5 57.5t-120 21t-129.5 -27t-112.5 -77t-79 -121.5
t-30 -161.5t31 -155.5t81.5 -108t113.5 -63t126 -20.5t111.5 19.5t79.5 37.5l6 -11q-63 -35 -128.5 -60t-115.5 -36q-92 0 -166.5 27t-127.5 75t-82 114.5t-29 146.5q0 73 26 138.5t73 120.5t111.5 96.5t141.5 65.5l98 30q99 0 173 -20.5t124 -57.5t75 -89t25 -114
q0 -68 -26 -126.5t-70 -103t-103.5 -73t-126.5 -35.5zM361 291q0 -48 18.5 -79.5t53.5 -45.5l95 103l40 171l-92 51q-33 -20 -55.5 -44.5t-35.5 -51t-18.5 -53.5t-5.5 -51z" />
    <glyph glyph-name="A" unicode="A" horiz-adv-x="703" 
d="M641 24l57 -8v-16h-306v16l77 8l-70 221h-233l-76 -221l79 -8v-16h-164v16l58 8l227 645l119 47zM173 266h219l-105 332z" />
    <glyph glyph-name="B" unicode="B" horiz-adv-x="631" 
d="M24 0v16l63 8v652l-63 8v16h350q48 0 84.5 -13t60.5 -34.5t36.5 -49.5t12.5 -57q0 -75 -61 -121.5t-170 -51.5q71 -2 120.5 -16.5t80 -38t44.5 -54.5t14 -64q0 -93 -69 -143t-188 -57h-315zM306 380q49 0 76.5 46.5t27.5 118.5q0 63 -25 101t-74 38l-69 -8v-296h64z
M305 16q35 0 60 14t41.5 38.5t24 57t7.5 70.5q0 42 -10 73t-27.5 51.5t-41 31t-50.5 10.5h-67v-338z" />
    <glyph glyph-name="C" unicode="C" horiz-adv-x="694" 
d="M649 230v-188q-31 -12 -58.5 -21.5t-56 -16.5t-60.5 -12t-71 -9q-74 0 -141 22t-117.5 65.5t-80.5 109.5t-30 153t26.5 154.5t76 115.5t120 76.5t159.5 37.5q39 0 71 -3.5t59.5 -10t52.5 -15.5t50 -21v-188h-17l-78 163q-24 26 -54 41t-76 15q-45 0 -84 -21.5
t-67.5 -64.5t-45 -107.5t-16.5 -150.5q0 -74 13.5 -138t40.5 -111t68 -73.5t97 -26.5q37 0 69 14.5t56 37.5l78 173h16z" />
    <glyph glyph-name="D" unicode="D" horiz-adv-x="728" 
d="M328 16q46 0 83 25t63 71t40 109.5t14 140.5q0 69 -11.5 128t-36.5 102t-64 67.5t-94 24.5l-75 -8v-652zM24 0v16l67 8v652l-67 8v16h330q82 0 145.5 -23t106.5 -66.5t65 -105t22 -139.5q0 -77 -20.5 -141.5t-62.5 -112.5t-106.5 -77t-152.5 -35h-327z" />
    <glyph glyph-name="E" unicode="E" horiz-adv-x="603" 
d="M24 16l63 8v652l-63 8v16h548v-190h-16l-76 171h-238v-305h125l48 125h17v-267h-17l-48 124h-125v-339h242l71 178h17v-197h-548v16z" />
    <glyph glyph-name="F" unicode="F" horiz-adv-x="581" 
d="M319 0h-295v16l63 8v652l-63 8v16h545v-197h-16l-82 178h-229v-320h125l48 132h17v-282h-17l-48 132h-125v-319l77 -8v-16z" />
    <glyph glyph-name="G" unicode="G" horiz-adv-x="727" 
d="M654 43q-28 -12 -57 -21.5t-62 -17.5t-71.5 -13t-83.5 -8q-69 0 -132 23.5t-110.5 68.5t-75.5 110t-28 148q0 172 102 269.5t287 114.5q76 0 129 -14.5t97 -36.5v-187h-17l-80 163q-22 25 -52 40.5t-76 15.5q-48 0 -87 -24.5t-67 -69.5t-43.5 -108.5t-15.5 -141.5
q0 -72 11.5 -136t35 -111.5t59.5 -75t85 -27.5q34 0 58 12t39 29v250l-71 8v20h280v-20l-54 -8v-252v0z" />
    <glyph glyph-name="H" unicode="H" horiz-adv-x="736" 
d="M242 374h251v302l-59 8v16h277v-16l-62 -8v-652l62 -8v-16h-277v16l59 8v329h-251v-329l60 -8v-16h-278v16l63 8v652l-63 8v16h278v-16l-60 -8v-302z" />
    <glyph glyph-name="I" unicode="I" horiz-adv-x="329" 
d="M242 24l63 -8v-16h-281v16l63 8v652l-63 8v16h281v-16l-63 -8v-652z" />
    <glyph glyph-name="J" unicode="J" horiz-adv-x="355" 
d="M273 155q0 -41 -10.5 -76.5t-27 -65t-37 -54.5t-40.5 -45l-84 -89h-71v119h108l3 25q2 18 3 45t1 78v584l-87 8v16h305v-16l-63 -8v-521z" />
    <glyph glyph-name="K" unicode="K" horiz-adv-x="725" 
d="M242 365l321 311l-90 8v16h209v-16l-91 -8l-315 -304l113 39l280 -387l46 -8v-16h-217l-256 348v-324l60 -8v-16h-278v16l63 8v652l-63 8v16h278v-16l-60 -8v-311z" />
    <glyph glyph-name="L" unicode="L" horiz-adv-x="573" 
d="M24 0v16l63 8v652l-63 8v16h281v-16l-63 -8v-652h217l88 178h16v-202h-539z" />
    <glyph glyph-name="M" unicode="M" horiz-adv-x="911" 
d="M666 630l-234 -635h-76l-248 658v-629l67 -8v-16h-151v16l63 8v652l-63 8v16h233l212 -538l199 538h219v-16l-65 -8v-652l65 -8v-16h-278v16l57 8v606z" />
    <glyph glyph-name="N" unicode="N" horiz-adv-x="679" 
d="M532 -5l-424 655v-626l71 -8v-16h-155v16l63 8v652l-63 8v16h244l317 -483v459l-70 8v16h154v-16l-62 -8v-681h-75z" />
    <glyph glyph-name="O" unicode="O" horiz-adv-x="771" 
d="M405 10q39 0 68 26t48 69.5t28.5 101t9.5 120.5q0 79 -14.5 146t-40 115t-61 75t-77.5 27q-39 0 -68.5 -26t-48.5 -69.5t-28.5 -101t-9.5 -120.5q0 -80 14.5 -146.5t40 -114.5t61.5 -75t78 -27zM374 -17q-77 0 -139.5 26t-107 72.5t-69 112t-24.5 143.5q0 159 88 251
t274 129q77 0 140 -26t107.5 -72.5t69 -112t24.5 -143.5q0 -159 -88 -251t-275 -129z" />
    <glyph glyph-name="P" unicode="P" horiz-adv-x="592" 
d="M242 332h52q27 0 49.5 13t38.5 37t25 57.5t9 73.5q0 36 -6.5 67t-20 54t-34.5 36.5t-49 13.5l-64 -8v-344zM242 313v-289l65 -8v-16h-283v16l63 8v652l-63 8v16h342q43 0 81.5 -10.5t68 -32.5t47 -55.5t17.5 -79.5q0 -50 -20.5 -84t-56 -58t-82.5 -39.5t-101 -27.5h-78z
" />
    <glyph glyph-name="Q" unicode="Q" horiz-adv-x="771" 
d="M681 -137l42 -12l-3 -19h-168l-178 151q-77 0 -139.5 26t-107 72.5t-69 112t-24.5 143.5q0 159 88 251t274 129q77 0 140 -26t107.5 -72.5t69 -112t24.5 -143.5q0 -156 -85 -247.5t-263 -128.5l159 -14zM405 10q39 0 68 26t48 69.5t28.5 101t9.5 120.5q0 79 -14.5 146
t-40 115t-61 75t-77.5 27q-39 0 -68.5 -26t-48.5 -69.5t-28.5 -101t-9.5 -120.5q0 -80 14.5 -146.5t40 -114.5t61.5 -75t78 -27z" />
    <glyph glyph-name="R" unicode="R" horiz-adv-x="667" 
d="M242 331v-307l58 -8v-16h-276v16l63 8v652l-63 8v16h350q40 0 77 -9.5t65.5 -30.5t45.5 -53.5t17 -78.5q0 -89 -75 -136.5t-204 -58.5l170 -34l151 -275l41 -8v-16h-201l-171 331h-48zM242 350h37q65 0 99 46t34 123q0 75 -31.5 119.5t-78.5 45.5l-60 -8v-326z" />
    <glyph glyph-name="S" unicode="S" horiz-adv-x="542" 
d="M108 101q30 -35 67.5 -61.5t86.5 -26.5q55 0 88.5 30.5t33.5 81.5q0 41 -22 72.5t-75 64.5l-133 88q-25 17 -45.5 33.5t-35.5 36t-23.5 43.5t-8.5 55q0 35 12.5 66t41.5 56.5t75.5 45t112.5 31.5q31 0 55.5 -2t47 -6t45.5 -11t50 -17v-182h-17l-64 145q-23 24 -51 37.5
t-63 13.5q-50 0 -82 -27t-32 -76q0 -41 24.5 -68.5t66.5 -53.5l130 -86q60 -38 87.5 -78.5t27.5 -100.5q0 -38 -14 -71.5t-44.5 -61.5t-80 -50.5t-121.5 -38.5q-62 0 -110.5 14.5t-99.5 46.5v186h16z" />
    <glyph glyph-name="T" unicode="T" horiz-adv-x="581" 
d="M453 0h-326v16l86 8v657h-100l-87 -187h-16v206h561v-206h-17l-86 187h-100v-657l85 -8v-16z" />
    <glyph glyph-name="U" unicode="U" horiz-adv-x="661" 
d="M494 684v16h157v-16l-63 -8v-443q0 -44 -9.5 -83.5t-35.5 -72t-72 -56.5t-118 -38q-72 0 -124.5 18.5t-87.5 52t-52 81t-17 105.5v436l-62 8v16h280v-16l-62 -8v-445q0 -42 11.5 -78t33.5 -62t53.5 -41t71.5 -15q36 0 65.5 15t51 41t33 62t11.5 78v445z" />
    <glyph glyph-name="V" unicode="V" horiz-adv-x="703" 
d="M304 -15l-242 691l-57 8v16h300v-16l-72 -8l186 -557l186 557l-76 8v16h169v-16l-66 -8l-220 -662z" />
    <glyph glyph-name="W" unicode="W" horiz-adv-x="1038" 
d="M286 -11l-225 687l-51 8v16h294v-16l-72 -8l165 -537l101 363l-56 174l-51 8v16h294v-16l-72 -8l165 -537l163 537l-78 8v16h165v-16l-60 -8l-204 -665l-98 -22l-155 474l-127 -452z" />
    <glyph glyph-name="X" unicode="X" horiz-adv-x="728" 
d="M22 685v15h292v-16l-57 -8l158 -255l175 255l-93 8v16h206v-16l-87 -8l-188 -275l234 -377l51 -8v-16h-293v16l59 8l-163 261l-183 -261l91 -8v-16h-214v16l96 8l199 280l-231 372z" />
    <glyph glyph-name="Y" unicode="Y" horiz-adv-x="700" 
d="M185 0v16l96 8v248l-213 404l-63 8v16h322v-16l-78 -8l180 -362l180 362l-85 8v16h171v-16l-64 -8l-194 -394v-258l96 -8v-16h-348z" />
    <glyph glyph-name="Z" unicode="Z" horiz-adv-x="589" 
d="M535 209h14v-209h-535v11l374 670h-236l-93 -186h-16v205h528v-11l-373 -670h235z" />
    <glyph glyph-name="bracketleft" unicode="[" horiz-adv-x="320" 
d="M285 -214v-16h-200v945h200v-16l-112 -8v-897z" />
    <glyph glyph-name="backslash" unicode="\" horiz-adv-x="421" 
d="M-1 718l453 -948h-32l-451 948h30z" />
    <glyph glyph-name="bracketright" unicode="]" horiz-adv-x="308" 
d="M147 691l-112 8v16h188v-945h-188v16l112 8v897z" />
    <glyph glyph-name="asciicircum" unicode="^" horiz-adv-x="374" 
d="M187 675l-110 -215h-27l129 245h17l128 -245h-27z" />
    <glyph glyph-name="underscore" unicode="_" horiz-adv-x="565" 
d="M5 -69h555v-29h-555v29z" />
    <glyph glyph-name="grave" unicode="`" horiz-adv-x="500" 
d="M297 556l-145 176h116l51 -176h-22z" />
    <glyph glyph-name="a" unicode="a" horiz-adv-x="515" 
d="M255 489q36 0 61 -2t43.5 -6.5t31.5 -11.5t24 -17q34 -31 34 -111v-216q0 -22 3.5 -44t9.5 -43l46 5l2 -16l-179 -36l-24 82l-137 -88q-30 0 -56 7.5t-45.5 23t-30.5 39t-11 54.5q0 29 11.5 58t43.5 52l221 66v90q0 19 -1.5 34.5t-7.5 26t-18.5 16t-34.5 5.5
q-12 0 -20.5 -1.5t-23.5 -6.5l-20 -132h-131v90zM303 269l-87 -33q-19 -16 -29 -38.5t-10 -54.5q0 -39 15.5 -62t40.5 -23q15 0 30 7t24 14l16 11v179z" />
    <glyph glyph-name="b" unicode="b" horiz-adv-x="555" 
d="M523 277q0 -242 -260 -292q-61 0 -109 9.5t-90 26.5v648l-51 -7l-3 21l178 29h16v-324l146 101q36 0 67.5 -14t55 -41t37 -66.5t13.5 -90.5zM370 220q0 101 -22 143.5t-63 42.5q-17 0 -31.5 -7.5t-31.5 -17.5l-18 -11v-335q11 -16 26 -22.5t36 -6.5q45 0 74.5 56
t29.5 158z" />
    <glyph glyph-name="c" unicode="c" horiz-adv-x="461" 
d="M280 459q-11 5 -24 5q-18 0 -36 -8.5t-33 -28t-24 -50.5t-9 -76q0 -46 12 -85t34.5 -67t53 -44t68.5 -16q33 0 57 8t52 26l5 -10q-23 -22 -43 -40t-40.5 -33t-42.5 -28.5t-48 -26.5q-50 0 -92.5 16t-74 46t-49 72.5t-17.5 95.5q0 60 21 107t56 81t80.5 55.5t95.5 30.5
q35 0 75.5 -15.5t70.5 -38.5v-110h-113z" />
    <glyph glyph-name="d" unicode="d" horiz-adv-x="572" 
d="M183 264q0 -42 6 -77.5t18 -61t29 -39.5t39 -14q17 0 28 4.5t31 18.5l14 10v329q-8 10 -22 17.5t-33 7.5q-57 -1 -83.5 -54t-26.5 -141zM222 -15q-41 0 -76 17t-61 47.5t-41 72.5t-15 91q0 50 12 95t38 81t67.5 62t100.5 38q58 0 101 -27v210l-52 -7l-2 18l178 29h15
v-586q0 -29 3 -46.5t11 -39.5l51 3l3 -16l-176 -36l-28 97z" />
    <glyph glyph-name="e" unicode="e" horiz-adv-x="486" 
d="M266 -15q-48 0 -91.5 15.5t-75.5 45t-51 72.5t-19 97q0 58 19.5 104.5t52.5 81t77 56.5t94 32q38 0 71 -11.5t57.5 -34t38.5 -56t14 -78.5v-38h-298q4 -45 19.5 -78t38.5 -55t52.5 -33t62.5 -11q34 0 61 9t56 26l9 -12q-24 -24 -45.5 -42.5t-44 -34t-46.5 -29t-52 -26.5z
M154 287h152v43q0 61 -14.5 95t-55.5 34q-43 0 -62.5 -40.5t-19.5 -116.5v-15z" />
    <glyph glyph-name="f" unicode="f" horiz-adv-x="351" 
d="M224 462h122v-16h-122v-422l89 -8v-16h-288v16l59 8v422h-59v16h59v9q0 45 17 77t49 59l118 103h108v-97h-141l-4 -14q-5 -17 -6 -39t-1 -67v-31z" />
    <glyph glyph-name="g" unicode="g" horiz-adv-x="535" 
d="M248 182q31 0 44.5 33.5t13.5 99.5q0 72 -15 113t-56 41q-31 0 -44.5 -33.5t-13.5 -100.5q0 -72 15 -112.5t56 -40.5zM499 -8q0 -43 -19.5 -77t-54.5 -62.5t-83 -51.5t-105 -44q-52 0 -92.5 5t-69 18t-43.5 35t-15 55v19l116 84q-50 11 -72.5 38.5t-22.5 62.5v22l104 81
q-47 19 -74.5 55.5t-27.5 84.5q1 68 56 108t156 64q68 0 116 -28.5t65 -75.5l46 104h51v-120h-89l-3 -5q5 -13 5 -27q-1 -71 -54 -110.5t-157 -65.5q-20 0 -38.5 2.5t-35.5 7.5l-33 -33q0 -23 13.5 -33t36.5 -10h218q54 0 80 -30.5t26 -72.5zM149 -28q-17 -15 -22 -31.5
t-5 -31.5q0 -35 32 -55t77 -20h96q26 0 47.5 7.5t36.5 19.5t23.5 27t8.5 32q0 23 -14.5 37.5t-46.5 14.5h-233z" />
    <glyph glyph-name="h" unicode="h" horiz-adv-x="595" 
d="M32 0v16l52 8v648l-51 -7l-3 18l178 29h16v-333l177 110q38 0 58.5 -8t33.5 -21q8 -8 13.5 -17.5t8.5 -22.5t4.5 -31.5t1.5 -45.5v-319l58 -8v-16h-241v16l37 8v324q0 32 -11.5 46t-34.5 14q-22 0 -38.5 -8t-38.5 -21l-28 -17v-338l38 -8v-16h-230z" />
    <glyph glyph-name="i" unicode="i" horiz-adv-x="299" 
d="M101 698l89 7l34 -7l5 -64l-11 -60l-90 -7l-31 7l-7 69zM33 0v16l53 8v414l-54 -9l-2 17l179 38h17v-460l53 -8v-16h-246z" />
    <glyph glyph-name="j" unicode="j" horiz-adv-x="285" 
d="M103 698l88 7l34 -7l6 -64l-12 -60l-89 -7l-31 7l-8 69zM-20 -238v122h100l2 20q2 14 4 42t2 73v419l-54 -9l-2 17l179 38h17v-427q0 -33 -3 -57.5t-12 -45t-24.5 -39.5t-39.5 -42l-107 -111h-62z" />
    <glyph glyph-name="k" unicode="k" horiz-adv-x="588" 
d="M224 269l229 181l-69 8v16h174v-16l-68 -8l-232 -176l103 22l188 -272l34 -8v-16h-194l-165 259v-235l53 -8v-16h-245v16l52 8v648l-51 -7l-3 18l178 29h16v-443z" />
    <glyph glyph-name="l" unicode="l" horiz-adv-x="292" 
d="M32 0v16l52 8v648l-51 -7l-3 18l178 29h16v-688l53 -8v-16h-245z" />
    <glyph glyph-name="m" unicode="m" horiz-adv-x="878" 
d="M264 0h-231v16l53 8v416l-54 -10l-2 16l179 38h17v-105l172 110q38 0 57 -8t32 -21q14 -14 20.5 -30t7.5 -51l172 110q38 0 57.5 -8t31.5 -21q8 -8 13.5 -17t9 -21.5t5 -30.5t1.5 -45v-322l58 -8v-16h-242v16l38 8v322q0 34 -12 48t-36 14q-18 0 -37.5 -10t-36.5 -21
l-22 -15v-338l38 -8v-16h-221v16l37 8v322q0 34 -11 48t-36 14q-19 0 -38.5 -10.5t-35.5 -20.5l-22 -15v-338l38 -8v-16z" />
    <glyph glyph-name="n" unicode="n" horiz-adv-x="596" 
d="M33 0v16l53 8v414l-54 -9l-2 17l179 38h17v-104l176 109q39 0 59 -8t33 -21q9 -9 14.5 -18.5t8.5 -22.5t4 -31t1 -45v-319l58 -8v-16h-241v16l38 8v324q0 32 -11.5 46t-34.5 14t-39.5 -8t-38.5 -21l-27 -17v-338l38 -8v-16h-231z" />
    <glyph glyph-name="o" unicode="o" horiz-adv-x="544" 
d="M260 461q-39 0 -60.5 -46.5t-21.5 -148.5q0 -125 30.5 -189.5t74.5 -64.5q39 0 60.5 47t21.5 147q0 129 -31 192t-74 63zM252 -15q-48 0 -88.5 17.5t-70.5 49t-47 75.5t-17 98q0 62 20.5 106t56 74.5t83 50.5t101.5 33q48 0 89 -17.5t71 -49t47 -75.5t17 -97
q0 -62 -20.5 -106.5t-56 -75.5t-83 -50.5t-102.5 -32.5z" />
    <glyph glyph-name="p" unicode="p" horiz-adv-x="559" 
d="M376 211q0 41 -5.5 76t-17 60.5t-29 40t-40.5 14.5q-19 0 -31 -6.5t-30 -17.5l-12 -7v-327q8 -13 23.5 -21t34.5 -7q52 0 79.5 52.5t27.5 142.5zM291 -230h-274v16l54 8v646l-54 -10l-2 16l171 38h17l6 -95l138 100q39 0 72.5 -16t57.5 -45.5t38 -70.5t14 -91
t-10.5 -94.5t-36 -80.5t-67 -63t-103.5 -43q-29 0 -54.5 6.5t-46.5 22.5v-220l80 -8v-16z" />
    <glyph glyph-name="q" unicode="q" horiz-adv-x="551" 
d="M183 258q0 -38 4.5 -71.5t15 -59t27.5 -40.5t42 -15q20 0 32 5t29 16l15 10v331q-10 16 -24 24.5t-35 8.5q-48 0 -77 -52t-29 -157zM269 -230v16l79 8v292l-139 -101q-37 0 -69.5 14.5t-57 42t-39 67t-14.5 90.5q0 54 16.5 102t48.5 86.5t80.5 64.5t111.5 37
q51 0 88.5 -7.5t67.5 -23.5l30 29h16v-693l58 -8v-16h-277z" />
    <glyph glyph-name="r" unicode="r" horiz-adv-x="404" 
d="M33 0v16l53 8v416l-54 -10l-2 16l171 38h16l8 -167l85 167h79v-141h-130l-33 -49v-269l83 -9v-16h-276z" />
    <glyph glyph-name="s" unicode="s" horiz-adv-x="409" 
d="M277 437q-20 19 -36.5 25t-39.5 6q-26 0 -43.5 -15t-17.5 -40q0 -26 17.5 -44t54.5 -42l98 -65q41 -26 58 -53t16 -65q0 -53 -42 -96t-135 -65q-51 0 -97.5 11.5t-77.5 26.5v149h17l61 -118q23 -21 43.5 -33t49.5 -12q35 0 54 17.5t19 40.5q0 15 -4 25.5t-13 20.5
t-22.5 20t-32.5 22l-97 65q-15 10 -29.5 21.5t-25 26t-17 32.5t-6.5 41q0 52 43.5 91t131.5 59q55 0 89.5 -8.5t69.5 -24.5v-139h-16z" />
    <glyph glyph-name="t" unicode="t" horiz-adv-x="358" 
d="M5 446v16h66v68l140 76v-144h127v-16h-127v-322q0 -31 15.5 -45.5t39.5 -14.5q23 0 40 5t39 16l7 -14l-167 -86q-61 0 -87.5 35t-26.5 95v331h-66z" />
    <glyph glyph-name="u" unicode="u" horiz-adv-x="573" 
d="M551 28l-175 -35l-19 97l-168 -105q-35 0 -58 8.5t-36 20.5q-17 17 -23.5 41.5t-6.5 77.5v305l-52 -5v16l181 33h17v-352q0 -64 49 -64q18 0 33 7t34 18l27 16v331l-51 -5l-1 16l177 33h15v-348q0 -29 3 -49.5t9 -43.5l43 3z" />
    <glyph glyph-name="v" unicode="v" horiz-adv-x="534" 
d="M458 450l-59 8v16h130v-16l-45 -8l-145 -431l-122 -40l-172 471l-40 8v16h250v-16l-52 -8l131 -372z" />
    <glyph glyph-name="w" unicode="w" horiz-adv-x="844" 
d="M768 450l-58 8v16h129v-16l-44 -8l-131 -432l-133 -36l-110 338l-91 -302l-133 -36l-153 468l-39 8v16h242v-16l-51 -8l121 -382l90 295l-28 87l-40 8v16h242v-16l-51 -8l121 -382z" />
    <glyph glyph-name="x" unicode="x" horiz-adv-x="567" 
d="M177 0h-161v16l61 8l148 182l-164 244l-42 8v16h254v-16l-38 -8l102 -155l119 155l-64 8v16h151v-16l-62 -8l-131 -173l168 -253l43 -8v-16h-257v16l41 8l-108 163l-132 -163l72 -8v-16z" />
    <glyph glyph-name="y" unicode="y" horiz-adv-x="547" 
d="M222 -110l108 168l-126 -48l-159 440l-40 8v16h250v-16l-52 -8l133 -376l132 376l-58 8v16h132v-16l-47 -8l-142 -404l-133 -281h-140v125h142z" />
    <glyph glyph-name="z" unicode="z" horiz-adv-x="492" 
d="M29 0v13l275 447h-142l-88 -161h-17v175h410v-13l-268 -447h156l85 171h17v-185h-428z" />
    <glyph glyph-name="braceleft" unicode="{" horiz-adv-x="352" 
d="M50 256q24 12 37.5 25.5t20 29t7.5 34t1 39.5v191q0 32 11.5 58t31.5 44t46.5 28t55.5 10h48v-16h-39q-27 0 -46.5 -23.5t-19.5 -84.5v-195q0 -39 -13.5 -73t-61.5 -55l75 -57v-317q0 -31 5.5 -51.5t15 -33t22.5 -18t27 -5.5h38v-16h-54q-30 0 -56 10t-45 28t-30 44
t-11 58v286l-66 60v0z" />
    <glyph glyph-name="bar" unicode="|" horiz-adv-x="249" 
d="M110 718h29v-963h-29v963z" />
    <glyph glyph-name="braceright" unicode="}" horiz-adv-x="347" 
d="M231 -90q0 -32 -11.5 -58t-31.5 -44t-46.5 -28t-55.5 -10h-48v16h39q13 0 25 5.5t21 18t14.5 33t5.5 51.5v234q0 19 2.5 37.5t11 35t23 30.5t38.5 24l-75 58v278q0 31 -5.5 51.5t-15 33t-22.5 18t-27 5.5h-38v16h54q30 0 56 -10t45 -28t30 -44t11 -58v-247l66 -61
q-24 -11 -37.5 -24.5t-20 -29.5t-7.5 -34.5t-1 -39.5v-229v0z" />
    <glyph glyph-name="asciitilde" unicode="~" horiz-adv-x="669" 
d="M116 280l-50 -76h-16l38 80l96 26l369 -70l49 75h17l-38 -78l-96 -28z" />
    <glyph glyph-name="exclamdown" unicode="&#xa1;" horiz-adv-x="294" 
d="M202 357l-83 -7l-30 7l-7 63l13 55l82 7l30 -7l6 -65zM80 74l54 186h26l54 -185l11 -310h-155z" />
    <glyph glyph-name="cent" unicode="&#xa2;" horiz-adv-x="472" 
d="M257 -14q-47 2 -86.5 19t-68.5 46.5t-45.5 71t-16.5 92.5q0 55 17.5 99t47 77t69 55.5t83.5 34.5v65h19v-61q1 0 8 2t9 2q35 0 75.5 -15.5t70.5 -38.5v-110h-113l-35 134q-11 5 -25 5q-18 0 -36 -8.5t-32.5 -28t-23.5 -50.5t-9 -76q0 -46 12 -85t34.5 -67t53 -44
t68.5 -16q32 0 56 8t53 26l5 -10q-44 -44 -82 -72.5t-89 -53.5v-67h-19v66z" />
    <glyph glyph-name="sterling" unicode="&#xa3;" horiz-adv-x="547" 
d="M429 646q-17 20 -36 31.5t-48 11.5q-53 0 -78 -32t-25 -91v-191h149v-17h-149v-194q0 -31 -2 -53t-6.5 -38t-12 -28t-18.5 -24h215l73 156h16v-177h-467v16l62 10v332h-62v17h62v116q0 51 20.5 88t55 64t79 44t91.5 28q51 0 87.5 -9.5t60.5 -26.5v-168h-17z" />
    <glyph glyph-name="currency" unicode="&#xa4;" 
d="M112 350q0 38 13 71.5t36 59.5l-74 74l22 21l73 -73q26 22 59 34.5t71 12.5q73 0 127 -46l72 72l21 -21l-72 -71q25 -26 38.5 -61t13.5 -73q0 -36 -12.5 -69.5t-34.5 -59.5l67 -66l-21 -22l-66 66q-55 -49 -133 -49q-39 0 -74 13.5t-61 37.5l-68 -68l-22 22l68 68
q-20 26 -31.5 58.5t-11.5 68.5zM143 350q0 -35 13.5 -66.5t36.5 -55t53.5 -37.5t65.5 -14q37 0 69 15.5t56 41.5q0 1 0.5 2t0.5 2q20 23 31.5 51.5t11.5 60.5q0 35 -13.5 66.5t-36.5 55t-53.5 37.5t-65.5 14t-65.5 -14t-53.5 -37.5t-36.5 -55t-13.5 -66.5z" />
    <glyph glyph-name="yen" unicode="&#xa5;" horiz-adv-x="700" 
d="M182 0v16l96 8v127h-105v17h105v83h-105v17h105v4l-195 404l-63 8v16h321v-16l-75 -8l163 -361l166 361l-85 8v16h170v-16l-63 -8l-183 -395v-13h114v-17h-114v-83h114v-17h-114v-127l96 -8v-16h-348z" />
    <glyph glyph-name="brokenbar" unicode="&#xa6;" horiz-adv-x="249" 
d="M110 288v430h29v-430h-29zM110 185h29v-430h-29v430z" />
    <glyph glyph-name="section" unicode="&#xa7;" horiz-adv-x="568" 
d="M249 -245q-48 0 -92.5 15t-70.5 33v147h17l38 -107q9 -10 19.5 -21.5t24.5 -21t32 -16t43 -6.5q18 0 35 7.5t30.5 22t22 36t9.5 49.5v17l-181 126q-69 50 -102.5 96t-33.5 97q0 50 33 93t102 66q-43 32 -61.5 68t-18.5 75q0 69 53 117t149 69q60 0 101 -12.5t70 -33.5
v-141h-16l-50 117q-20 25 -43.5 36.5t-55.5 11.5q-47 0 -74 -22t-27 -67q0 -39 26 -72.5t90 -76.5l210 -137v-40q0 -41 -12 -72.5t-32.5 -56t-48.5 -43t-60 -32.5l89 -63v-45q0 -47 -17 -82t-46 -60t-68 -42t-84 -29zM361 85q27 17 44.5 43.5t17.5 67.5v15l-127 89
q-7 5 -23 16t-33.5 23.5t-32.5 23.5t-19 15q-20 -11 -32 -28.5t-12 -48.5q0 -24 11 -45t29 -39.5t41.5 -35.5t47.5 -34z" />
    <glyph glyph-name="dieresis" unicode="&#xa8;" horiz-adv-x="500" 
d="M110 696l70 5l28 -5l7 -55l-12 -48l-68 -6l-29 6l-6 57zM293 696l70 5l28 -5l7 -55l-12 -48l-69 -6l-28 6l-6 57z" />
    <glyph glyph-name="copyright" unicode="&#xa9;" horiz-adv-x="849" 
d="M596 291v-112q-20 -8 -37.5 -14t-35.5 -10.5t-37.5 -8t-44.5 -5.5q-47 0 -89 12.5t-74 37t-50.5 62t-18.5 87.5q0 99 64 153.5t177 65.5q49 0 81.5 -8.5t62.5 -25.5v-111h-11l-55 99q-14 16 -31.5 25t-43.5 9q-53 0 -87.5 -48t-34.5 -147q0 -43 7.5 -79t23 -62.5
t38.5 -41t55 -14.5q23 0 41 8.5t32 21.5l56 106h12zM426 -15q-75 1 -143.5 26t-120 72.5t-82 116t-30.5 156.5q0 79 27 140.5t76 106t118 72.5t153 40q75 -1 143 -26t119.5 -72.5t82 -116t30.5 -156.5q0 -79 -27 -140.5t-75.5 -106t-117.5 -72.5t-153 -40zM424 7
q61 0 116.5 22.5t98 66t67.5 106t25 142.5q0 60 -14 109.5t-37.5 88t-54.5 67t-65 47.5t-68.5 28t-65.5 9q-61 0 -117 -22.5t-98.5 -66t-67.5 -106t-25 -142.5q0 -90 30 -156t76 -108.5t99.5 -63.5t100.5 -21z" />
    <glyph glyph-name="ordfeminine" unicode="&#xaa;" horiz-adv-x="461" 
d="M222 715q56 0 83 -6.5t44 -22.5q27 -24 27 -90v-174q0 -17 3.5 -34.5t8.5 -34.5l37 4l1 -13l-142 -29l-20 67l-110 -71q-47 0 -80.5 25t-33.5 75q0 22 9 45t35 42l177 53v72q0 31 -7.5 48.5t-42.5 17.5q-10 0 -17 -1t-19 -5l-16 -106h-103v72zM261 539l-71 -27
q-31 -26 -31 -74q0 -32 12.5 -50.5t32.5 -18.5q13 0 24 6t19 11l14 9v144z" />
    <glyph glyph-name="guillemotleft" unicode="&#xab;" horiz-adv-x="430" 
d="M196 15l-181 220l183 220h22l-129 -221l129 -219h-24zM376 15l-181 220l183 220h22l-129 -221l129 -219h-24z" />
    <glyph glyph-name="logicalnot" unicode="&#xac;" 
d="M567 180h-29v144h-486v28h515v-172z" />
    <glyph glyph-name="softhyphen" unicode="&#xad;" horiz-adv-x="365" 
d="M30 301h305v-45h-305v45z" />
    <glyph glyph-name="registered" unicode="&#xae;" horiz-adv-x="592" 
d="M263 429v-118l23 -2v-8h-116v8l24 2v250l-24 3v7h151q34 0 60.5 -15.5t26.5 -50.5q0 -34 -31 -52.5t-86 -22.5l75 -15l59 -104l16 -2v-8h-90l-65 128h-23zM263 437h13q27 0 41.5 18t14.5 47q0 27 -13.5 44.5t-33.5 17.5l-22 -3v-124zM297 185q-51 0 -96.5 17.5t-80 50
t-55 79.5t-20.5 107q0 54 18 96t51 72.5t79 50t102 27.5q51 0 96.5 -17.5t80 -49.5t55 -79.5t20.5 -107.5q0 -54 -18 -96t-51 -72.5t-79 -50t-102 -27.5zM295 200q42 0 80 15t67 44t46 72t17 100q0 64 -20.5 109t-52 74t-68 42.5t-67.5 13.5q-42 0 -80 -15t-67 -44t-46 -72
t-17 -100q0 -63 20.5 -108.5t52 -74.5t67.5 -42.5t68 -13.5z" />
    <glyph glyph-name="macron" unicode="&#xaf;" horiz-adv-x="500" 
d="M104 667h292v-54h-292v54z" />
    <glyph glyph-name="degree" unicode="&#xb0;" horiz-adv-x="435" 
d="M60 596q0 64 41.5 99t116.5 58q32 0 60.5 -12.5t50 -34t34 -50t12.5 -60.5q0 -65 -36.5 -102t-120.5 -56q-32 0 -61 12.5t-50.5 34t-34 50.5t-12.5 61zM112 596q0 -21 8.5 -40.5t23 -34t34 -23t40.5 -8.5q23 0 42 8.5t33 23t22 34t8 40.5t-8.5 40.5t-22.5 33.5
t-33.5 22.5t-40.5 8.5q-23 0 -42.5 -8.5t-33.5 -22.5t-22 -33.5t-8 -40.5z" />
    <glyph glyph-name="plusminus" unicode="&#xb1;" 
d="M293 134v240h-243v28h243v247h29v-247h243v-28h-243v-240h-29zM47 29h525v-29h-525v29z" />
    <glyph glyph-name="twosuperior" unicode="&#xb2;" horiz-adv-x="359" 
d="M83 471h246v-10l-24 -61h-287l-8 8l84 88q118 118 118 203q0 32 -14.5 52.5t-37.5 20.5q-6 0 -15 -1t-14 -3l-23 -99h-88v70l161 56q37 0 63.5 -8t43 -21t24 -30.5t7.5 -36.5q0 -54 -42 -98.5t-126 -92.5z" />
    <glyph glyph-name="threesuperior" unicode="&#xb3;" horiz-adv-x="338" 
d="M22 396v72h156q13 14 18.5 26.5t5.5 32.5q0 30 -26.5 51t-74.5 20l-4 9l40 26q34 19 44.5 37t10.5 44t-13.5 40.5t-33.5 14.5q-5 0 -11.5 -1t-8.5 -2l-25 -82h-80v60l166 51q30 0 50.5 -6t33 -15.5t18 -21t5.5 -22.5t-5 -23t-19 -23.5t-38 -21.5t-61 -17q37 0 62 -9
t41 -21.5t23 -28t7 -28.5q0 -39 -28.5 -62t-85.5 -48l-125 -52h-42z" />
    <glyph glyph-name="acute" unicode="&#xb4;" horiz-adv-x="500" 
d="M152 556l51 176h117l-145 -176h-23z" />
    <glyph glyph-name="uni00B5" unicode="&#xb5;" 
d="M496 474v-450l55 -8v-16h-147l-18 32l-29 59l-170 -106q-28 0 -51.5 7t-38.5 21q-7 6 -9 14v-57l103 -200h-122v704h146v-344q0 -33 13 -47t36 -14q18 0 31 6t30 16l31 18v365h140z" />
    <glyph glyph-name="paragraph" unicode="&#xb6;" horiz-adv-x="512" 
d="M225 381q-35 0 -69.5 9.5t-62.5 29t-45.5 48.5t-17.5 68q0 32 14.5 58t38 46.5t53.5 35.5t62 24h274v-16l-48 -8v-836h-29v841h-141v-841h-29v541z" />
    <glyph glyph-name="periodcentered" unicode="&#xb7;" horiz-adv-x="239" 
d="M62 461l83 7l32 -7l7 -61l-8 -56l-84 -5l-31 5l-6 64z" />
    <glyph glyph-name="cedilla" unicode="&#xb8;" horiz-adv-x="500" 
d="M306 9l-33 -52q42 -5 63 -27t21 -50q0 -20 -10 -34.5t-25.5 -25t-34.5 -19t-37 -15.5l-78 -32h-28l32 50h84q23 21 23 53q0 30 -17 40.5t-40 13.5l66 102z" />
    <glyph glyph-name="onesuperior" unicode="&#xb9;" horiz-adv-x="269" 
d="M24 724l-4 10l161 57h11v-376l72 -4v-11h-237v11l71 4v332z" />
    <glyph glyph-name="ordmasculine" unicode="&#xba;" horiz-adv-x="455" 
d="M218 693q-32 0 -49 -37t-17 -118q0 -99 24.5 -150t59.5 -51q32 0 49 37.5t17 116.5q0 103 -25 152.5t-59 49.5zM212 315q-38 0 -70.5 14t-56 39t-37 60t-13.5 78q0 49 16 84t44 59.5t66 40t81 25.5q38 0 70.5 -13.5t56.5 -38.5t37.5 -60t13.5 -78q0 -49 -16 -84
t-44.5 -59.5t-66.5 -40.5t-81 -26z" />
    <glyph glyph-name="guillemotright" unicode="&#xbb;" horiz-adv-x="430" 
d="M339 234l-129 221h22l183 -220l-181 -220h-24zM159 234l-129 221h22l183 -220l-181 -220h-24z" />
    <glyph glyph-name="onequarter" unicode="&#xbc;" horiz-adv-x="818" 
d="M211 -50h-34l387 760h32zM711 131h77v-12h-77v-119h-94v119h-160l-7 10l180 256h119v-10l-285 -244h153v72l94 51v-123zM34 639l-4 10l161 57h11v-376l72 -4v-11h-237v11l71 4v332z" />
    <glyph glyph-name="onehalf" unicode="&#xbd;" horiz-adv-x="822" 
d="M34 639l-4 10l161 57h11v-376l72 -4v-11h-237v11l71 4v332zM211 -50h-34l387 760h32zM546 71h246v-10l-24 -61h-287l-8 8l84 88q118 118 118 203q0 32 -14.5 52.5t-37.5 20.5q-6 0 -15 -1t-14 -3l-23 -99h-88v70l161 56q37 0 63.5 -8t43 -21t24 -30.5t7.5 -36.5
q0 -54 -42 -98.5t-126 -92.5z" />
    <glyph glyph-name="threequarters" unicode="&#xbe;" horiz-adv-x="840" 
d="M233 -50h-34l387 760h32zM733 131h77v-12h-77v-119h-93v119h-161l-7 10l180 256h119v-10l-285 -244h154v72l93 51v-123zM32 311v72h156q13 14 18.5 26.5t5.5 32.5q0 30 -26.5 51t-74.5 20l-4 9l40 26q34 19 44.5 37t10.5 44t-13.5 40.5t-33.5 14.5q-5 0 -11.5 -1t-8.5 -2
l-26 -82h-79v60l166 51q30 0 50.5 -6t33 -15.5t18 -21t5.5 -22.5t-5 -23t-19 -23.5t-38 -21.5t-61 -17q37 0 62 -9t40.5 -21.5t22.5 -28t7 -28.5q0 -39 -28 -62t-85 -48l-125 -52h-42z" />
    <glyph glyph-name="questiondown" unicode="&#xbf;" horiz-adv-x="421" 
d="M307 351l-83 -6l-30 6l-7 64l13 54l82 7l30 -7l6 -64zM20 -77q0 73 44.5 116t125.5 72l31 16l16 127h30l10 -114l-33 -27q-47 -38 -67.5 -85.5t-20.5 -120.5q0 -54 22.5 -90t71.5 -43l74 151h37v-153l-124 -13q-57 4 -98 18.5t-67.5 36.5t-39 50t-12.5 59z" />
    <glyph glyph-name="Agrave" unicode="&#xc0;" horiz-adv-x="703" 
d="M641 24l57 -8v-16h-306v16l77 8l-70 221h-233l-76 -221l79 -8v-16h-164v16l58 8l227 645l119 47zM173 266h219l-105 332zM355 769l-145 136h122l45 -136h-22z" />
    <glyph glyph-name="Aacute" unicode="&#xc1;" horiz-adv-x="703" 
d="M641 24l57 -8v-16h-306v16l77 8l-70 221h-233l-76 -221l79 -8v-16h-164v16l58 8l227 645l119 47zM173 266h219l-105 332zM372 905h122l-145 -136h-23z" />
    <glyph glyph-name="Acircumflex" unicode="&#xc2;" horiz-adv-x="703" 
d="M641 24l57 -8v-16h-306v16l77 8l-70 221h-233l-76 -221l79 -8v-16h-164v16l58 8l227 645l119 47zM173 266h219l-105 332zM220 769h-22l130 140h47l130 -140h-22l-128 76h-7z" />
    <glyph glyph-name="Atilde" unicode="&#xc3;" horiz-adv-x="703" 
d="M641 24l57 -8v-16h-306v16l77 8l-70 221h-233l-76 -221l79 -8v-16h-164v16l58 8l227 645l119 47zM173 266h219l-105 332zM221 885l46 15l213 -71l40 72h13l-32 -127l-47 -14l-214 73l-38 -75h-14z" />
    <glyph glyph-name="Adieresis" unicode="&#xc4;" horiz-adv-x="703" 
d="M641 24l57 -8v-16h-306v16l77 8l-70 221h-233l-76 -221l79 -8v-16h-164v16l58 8l227 645l119 47zM173 266h219l-105 332zM192 882l69 5l28 -5l7 -55l-12 -48l-68 -6l-29 6l-6 57zM420 882l69 5l28 -5l7 -55l-12 -48l-68 -6l-29 6l-6 57z" />
    <glyph glyph-name="Aring" unicode="&#xc5;" horiz-adv-x="703" 
d="M641 24l57 -8v-16h-306v16l77 8l-70 221h-233l-76 -221l79 -8v-16h-164v16l58 8l227 645l119 47zM457 841q0 -24 -9 -41t-24 -29t-35.5 -20t-42.5 -15q-21 0 -41.5 5.5t-36.5 17.5t-26 31.5t-10 48.5q0 24 9.5 40.5t25 28.5t35.5 20.5t42 15.5q23 0 43.5 -5.5t36 -17.5
t24.5 -31.5t9 -48.5zM173 266h219l-105 332zM268 840q0 -35 21.5 -56t54.5 -21t55 21t22 56q0 34 -22 55.5t-55 21.5t-54.5 -21.5t-21.5 -55.5z" />
    <glyph glyph-name="AE" unicode="&#xc6;" horiz-adv-x="984" 
d="M485 656l-191 -309h191v309zM172 0h-167v16l58 8l426 676h466v-190h-16l-76 171h-222v-334h109l49 124h16v-267h-16l-49 124h-109v-309h226l72 178h16v-197h-532v16l62 8v304h-202l-189 -304l78 -8v-16z" />
    <glyph glyph-name="Ccedilla" unicode="&#xc7;" horiz-adv-x="694" 
d="M287 -246h-28l32 50h84q22 22 22 53q0 30 -17 40.5t-40 13.5l47 72q-71 2 -135 25t-112.5 67t-77 108.5t-28.5 149.5q0 87 26.5 154.5t76 115.5t120 76.5t159.5 37.5q39 0 71 -3.5t59.5 -10t52.5 -15.5t50 -21v-188h-17l-78 163q-24 26 -54 41t-76 15q-45 0 -84 -21.5
t-67.5 -64.5t-45 -107.5t-16.5 -150.5q0 -74 13.5 -138t40.5 -111t68 -73.5t97 -26.5q37 0 69 14.5t56 37.5l78 173h16v-188q-31 -12 -58.5 -21.5t-56 -16.5t-60.5 -12t-71 -9l-16 -26q42 -5 63.5 -27t20.5 -50q0 -20 -10 -34.5t-25 -25t-34 -19t-37 -15.5z" />
    <glyph glyph-name="Egrave" unicode="&#xc8;" horiz-adv-x="603" 
d="M345 769l-145 136h122l45 -136h-22zM24 16l63 8v652l-63 8v16h548v-190h-16l-76 171h-238v-305h125l48 125h17v-267h-17l-48 124h-125v-339h242l71 178h17v-197h-548v16z" />
    <glyph glyph-name="Eacute" unicode="&#xc9;" horiz-adv-x="603" 
d="M341 905h121l-145 -136h-22zM24 16l63 8v652l-63 8v16h548v-190h-16l-76 171h-238v-305h125l48 125h17v-267h-17l-48 124h-125v-339h242l71 178h17v-197h-548v16z" />
    <glyph glyph-name="Ecircumflex" unicode="&#xca;" horiz-adv-x="603" 
d="M202 769h-22l130 140h47l130 -140h-22l-128 76h-7zM24 16l63 8v652l-63 8v16h548v-190h-16l-76 171h-238v-305h125l48 125h17v-267h-17l-48 124h-125v-339h242l71 178h17v-197h-548v16z" />
    <glyph glyph-name="Edieresis" unicode="&#xcb;" horiz-adv-x="603" 
d="M405 882l69 5l28 -5l7 -55l-11 -48l-69 -6l-29 6l-5 57zM177 882l69 5l28 -5l7 -55l-11 -48l-69 -6l-29 6l-5 57zM24 16l63 8v652l-63 8v16h548v-190h-16l-76 171h-238v-305h125l48 125h17v-267h-17l-48 124h-125v-339h242l71 178h17v-197h-548v16z" />
    <glyph glyph-name="Igrave" unicode="&#xcc;" horiz-adv-x="329" 
d="M190 769l-146 136h122l46 -136h-22zM242 24l63 -8v-16h-281v16l63 8v652l-63 8v16h281v-16l-63 -8v-652z" />
    <glyph glyph-name="Iacute" unicode="&#xcd;" horiz-adv-x="329" 
d="M195 905h121l-145 -136h-22zM242 24l63 -8v-16h-281v16l63 8v652l-63 8v16h281v-16l-63 -8v-652z" />
    <glyph glyph-name="Icircumflex" unicode="&#xce;" horiz-adv-x="329" 
d="M33 769h-22l130 140h47l130 -140h-22l-128 76h-7zM242 24l63 -8v-16h-281v16l63 8v652l-63 8v16h281v-16l-63 -8v-652z" />
    <glyph glyph-name="Idieresis" unicode="&#xcf;" horiz-adv-x="329" 
d="M19 882l69 5l28 -5l7 -55l-12 -48l-68 -6l-29 6l-6 57zM220 882l70 5l28 -5l7 -55l-12 -48l-68 -6l-29 6l-6 57zM242 24l63 -8v-16h-281v16l63 8v652l-63 8v16h281v-16l-63 -8v-652z" />
    <glyph glyph-name="Eth" unicode="&#xd0;" horiz-adv-x="728" 
d="M24 0v16l67 8v334h-57v13h57v305l-67 8v16h330q82 0 145.5 -23t106.5 -66.5t65 -105t22 -139.5q0 -77 -20.5 -141.5t-62.5 -112.5t-106.5 -77t-152.5 -35h-327zM328 16q46 0 83 25t63 71t40 109.5t14 140.5q0 69 -11.5 128t-36.5 102t-64 67.5t-94 24.5l-75 -8v-305h120
v-13h-120v-334z" />
    <glyph glyph-name="Ntilde" unicode="&#xd1;" horiz-adv-x="679" 
d="M247 885l46 15l213 -71l40 72h13l-32 -127l-47 -14l-214 73l-38 -75h-14zM532 -5l-424 655v-626l71 -8v-16h-155v16l63 8v652l-63 8v16h244l317 -483v459l-70 8v16h154v-16l-62 -8v-681h-75z" />
    <glyph glyph-name="Ograve" unicode="&#xd2;" horiz-adv-x="771" 
d="M390 769l-145 136h122l45 -136h-22zM405 10q39 0 68 26t48 69.5t28.5 101t9.5 120.5q0 79 -14.5 146t-40 115t-61 75t-77.5 27q-39 0 -68.5 -26t-48.5 -69.5t-28.5 -101t-9.5 -120.5q0 -80 14.5 -146.5t40 -114.5t61.5 -75t78 -27zM374 -17q-77 0 -139.5 26t-107 72.5
t-69 112t-24.5 143.5q0 159 88 251t274 129q77 0 140 -26t107.5 -72.5t69 -112t24.5 -143.5q0 -159 -88 -251t-275 -129z" />
    <glyph glyph-name="Oacute" unicode="&#xd3;" horiz-adv-x="771" 
d="M412 905h121l-145 -136h-22zM405 10q39 0 68 26t48 69.5t28.5 101t9.5 120.5q0 79 -14.5 146t-40 115t-61 75t-77.5 27q-39 0 -68.5 -26t-48.5 -69.5t-28.5 -101t-9.5 -120.5q0 -80 14.5 -146.5t40 -114.5t61.5 -75t78 -27zM374 -17q-77 0 -139.5 26t-107 72.5t-69 112
t-24.5 143.5q0 159 88 251t274 129q77 0 140 -26t107.5 -72.5t69 -112t24.5 -143.5q0 -159 -88 -251t-275 -129z" />
    <glyph glyph-name="Ocircumflex" unicode="&#xd4;" horiz-adv-x="771" 
d="M253 769h-22l129 140h48l130 -140h-23l-128 76h-6zM405 10q39 0 68 26t48 69.5t28.5 101t9.5 120.5q0 79 -14.5 146t-40 115t-61 75t-77.5 27q-39 0 -68.5 -26t-48.5 -69.5t-28.5 -101t-9.5 -120.5q0 -80 14.5 -146.5t40 -114.5t61.5 -75t78 -27zM374 -17
q-77 0 -139.5 26t-107 72.5t-69 112t-24.5 143.5q0 159 88 251t274 129q77 0 140 -26t107.5 -72.5t69 -112t24.5 -143.5q0 -159 -88 -251t-275 -129z" />
    <glyph glyph-name="Otilde" unicode="&#xd5;" horiz-adv-x="771" 
d="M251 885l46 15l213 -71l40 72h13l-32 -127l-47 -14l-214 73l-38 -75h-14zM405 10q39 0 68 26t48 69.5t28.5 101t9.5 120.5q0 79 -14.5 146t-40 115t-61 75t-77.5 27q-39 0 -68.5 -26t-48.5 -69.5t-28.5 -101t-9.5 -120.5q0 -80 14.5 -146.5t40 -114.5t61.5 -75t78 -27z
M374 -17q-77 0 -139.5 26t-107 72.5t-69 112t-24.5 143.5q0 159 88 251t274 129q77 0 140 -26t107.5 -72.5t69 -112t24.5 -143.5q0 -159 -88 -251t-275 -129z" />
    <glyph glyph-name="Odieresis" unicode="&#xd6;" horiz-adv-x="771" 
d="M230 882l69 5l28 -5l7 -55l-12 -48l-68 -6l-29 6l-6 57zM458 882l69 5l28 -5l7 -55l-12 -48l-68 -6l-29 6l-6 57zM405 10q39 0 68 26t48 69.5t28.5 101t9.5 120.5q0 79 -14.5 146t-40 115t-61 75t-77.5 27q-39 0 -68.5 -26t-48.5 -69.5t-28.5 -101t-9.5 -120.5
q0 -80 14.5 -146.5t40 -114.5t61.5 -75t78 -27zM374 -17q-77 0 -139.5 26t-107 72.5t-69 112t-24.5 143.5q0 159 88 251t274 129q77 0 140 -26t107.5 -72.5t69 -112t24.5 -143.5q0 -159 -88 -251t-275 -129z" />
    <glyph glyph-name="multiply" unicode="&#xd7;" 
d="M484 25l-173 174l-176 -176l-20 21l175 175l-176 176l20 21l177 -177l174 175l20 -20l-175 -175l175 -174z" />
    <glyph glyph-name="Oslash" unicode="&#xd8;" horiz-adv-x="771" 
d="M374 -17q-63 0 -115 17t-94 48l-52 -63h-32l64 78q-54 48 -82.5 117.5t-28.5 156.5q0 159 88 251t274 129q68 0 124.5 -20t99.5 -57l62 75h30l-74 -91q48 -47 73.5 -113.5t25.5 -147.5q0 -159 -88 -251t-275 -129zM211 373q0 -57 7 -106t20 -91l291 353q-25 75 -67 118
t-96 43q-39 0 -68.5 -26t-48.5 -69.5t-28.5 -101t-9.5 -120.5zM405 10q39 0 68 26t48 69.5t28.5 101t9.5 120.5q0 49 -5.5 93t-15.5 82l-290 -353q26 -66 66 -102.5t91 -36.5z" />
    <glyph glyph-name="Ugrave" unicode="&#xd9;" horiz-adv-x="661" 
d="M402 769l-145 136h122l46 -136h-23zM494 684v16h157v-16l-63 -8v-443q0 -44 -9.5 -83.5t-35.5 -72t-72 -56.5t-118 -38q-72 0 -124.5 18.5t-87.5 52t-52 81t-17 105.5v436l-62 8v16h280v-16l-62 -8v-445q0 -42 11.5 -78t33.5 -62t53.5 -41t71.5 -15q36 0 65.5 15t51 41
t33 62t11.5 78v445z" />
    <glyph glyph-name="Uacute" unicode="&#xda;" horiz-adv-x="661" 
d="M414 905h122l-146 -136h-22zM494 684v16h157v-16l-63 -8v-443q0 -44 -9.5 -83.5t-35.5 -72t-72 -56.5t-118 -38q-72 0 -124.5 18.5t-87.5 52t-52 81t-17 105.5v436l-62 8v16h280v-16l-62 -8v-445q0 -42 11.5 -78t33.5 -62t53.5 -41t71.5 -15q36 0 65.5 15t51 41t33 62
t11.5 78v445z" />
    <glyph glyph-name="Ucircumflex" unicode="&#xdb;" horiz-adv-x="661" 
d="M251 769h-22l129 140h48l129 -140h-22l-128 76h-6zM494 684v16h157v-16l-63 -8v-443q0 -44 -9.5 -83.5t-35.5 -72t-72 -56.5t-118 -38q-72 0 -124.5 18.5t-87.5 52t-52 81t-17 105.5v436l-62 8v16h280v-16l-62 -8v-445q0 -42 11.5 -78t33.5 -62t53.5 -41t71.5 -15
q36 0 65.5 15t51 41t33 62t11.5 78v445z" />
    <glyph glyph-name="Udieresis" unicode="&#xdc;" horiz-adv-x="661" 
d="M223 882l70 5l28 -5l7 -55l-12 -48l-69 -6l-28 6l-6 57zM451 882l70 5l28 -5l7 -55l-12 -48l-69 -6l-28 6l-6 57zM494 684v16h157v-16l-63 -8v-443q0 -44 -9.5 -83.5t-35.5 -72t-72 -56.5t-118 -38q-72 0 -124.5 18.5t-87.5 52t-52 81t-17 105.5v436l-62 8v16h280v-16
l-62 -8v-445q0 -42 11.5 -78t33.5 -62t53.5 -41t71.5 -15q36 0 65.5 15t51 41t33 62t11.5 78v445z" />
    <glyph glyph-name="Yacute" unicode="&#xdd;" horiz-adv-x="700" 
d="M464 905h121l-145 -136h-22zM185 0v16l96 8v248l-213 404l-63 8v16h322v-16l-78 -8l180 -362l180 362l-85 8v16h171v-16l-64 -8l-194 -394v-258l96 -8v-16h-348z" />
    <glyph glyph-name="Thorn" unicode="&#xde;" horiz-adv-x="594" 
d="M242 179h52q27 0 49 13.5t38.5 38t25.5 58.5t9 75q0 37 -6.5 68.5t-20 55t-34.5 37t-49 13.5h-64v-359zM309 0h-285v16l63 8v652l-63 8v16h285v-16l-67 -8v-120h123q43 0 82.5 -10.5t69.5 -33t47.5 -57t17.5 -82.5q0 -51 -21 -86t-56.5 -59t-83 -40t-101.5 -28h-78v-136
l67 -8v-16z" />
    <glyph glyph-name="germandbls" unicode="&#xdf;" horiz-adv-x="619" 
d="M424 -17q-48 0 -89 9t-70 21v154h17l55 -116q18 -18 39.5 -31t49.5 -13q32 0 48 22t16 51q0 25 -16.5 49t-51.5 53l-72 63q-17 13 -30.5 26t-23.5 28t-16 33.5t-8 43.5l51 38q37 30 55.5 68t18.5 88q0 23 -4.5 44.5t-14.5 38t-25 26t-36 9.5q-46 0 -69.5 -36.5
t-23.5 -96.5v-555h-199v16l59 8v420h-59v16l59 2v17q0 24 7.5 50t22 50.5t37 45t52.5 34.5l128 59q98 0 156 -32t58 -100q0 -57 -50 -99t-128 -65q5 -24 26.5 -43.5t59.5 -48.5l74 -58q35 -28 53.5 -57.5t18.5 -67.5q0 -60 -47 -103t-128 -61z" />
    <glyph glyph-name="agrave" unicode="&#xe0;" horiz-adv-x="515" 
d="M284 556l-143 176h117l48 -176h-22zM255 489q36 0 61 -2t43.5 -6.5t31.5 -11.5t24 -17q34 -31 34 -111v-216q0 -22 3.5 -44t9.5 -43l46 5l2 -16l-179 -36l-24 82l-137 -88q-30 0 -56 7.5t-45.5 23t-30.5 39t-11 54.5q0 29 11.5 58t43.5 52l221 66v90q0 19 -1.5 34.5
t-7.5 26t-18.5 16t-34.5 5.5q-12 0 -20.5 -1.5t-23.5 -6.5l-20 -132h-131v90zM303 269l-87 -33q-19 -16 -29 -38.5t-10 -54.5q0 -39 15.5 -62t40.5 -23q15 0 30 7t24 14l16 11v179z" />
    <glyph glyph-name="aacute" unicode="&#xe1;" horiz-adv-x="515" 
d="M266 732h116l-142 -176h-22zM255 489q36 0 61 -2t43.5 -6.5t31.5 -11.5t24 -17q34 -31 34 -111v-216q0 -22 3.5 -44t9.5 -43l46 5l2 -16l-179 -36l-24 82l-137 -88q-30 0 -56 7.5t-45.5 23t-30.5 39t-11 54.5q0 29 11.5 58t43.5 52l221 66v90q0 19 -1.5 34.5t-7.5 26
t-18.5 16t-34.5 5.5q-12 0 -20.5 -1.5t-23.5 -6.5l-20 -132h-131v90zM303 269l-87 -33q-19 -16 -29 -38.5t-10 -54.5q0 -39 15.5 -62t40.5 -23q15 0 30 7t24 14l16 11v179z" />
    <glyph glyph-name="acircumflex" unicode="&#xe2;" horiz-adv-x="515" 
d="M124 556h-19l120 181h42l121 -181h-19l-120 98h-5zM255 489q36 0 61 -2t43.5 -6.5t31.5 -11.5t24 -17q34 -31 34 -111v-216q0 -22 3.5 -44t9.5 -43l46 5l2 -16l-179 -36l-24 82l-137 -88q-30 0 -56 7.5t-45.5 23t-30.5 39t-11 54.5q0 29 11.5 58t43.5 52l221 66v90
q0 19 -1.5 34.5t-7.5 26t-18.5 16t-34.5 5.5q-12 0 -20.5 -1.5t-23.5 -6.5l-20 -132h-131v90zM303 269l-87 -33q-19 -16 -29 -38.5t-10 -54.5q0 -39 15.5 -62t40.5 -23q15 0 30 7t24 14l16 11v179z" />
    <glyph glyph-name="atilde" unicode="&#xe3;" horiz-adv-x="515" 
d="M108 698l46 15l213 -71l40 72h13l-32 -127l-47 -14l-214 73l-38 -75h-14zM255 489q36 0 61 -2t43.5 -6.5t31.5 -11.5t24 -17q34 -31 34 -111v-216q0 -22 3.5 -44t9.5 -43l46 5l2 -16l-179 -36l-24 82l-137 -88q-30 0 -56 7.5t-45.5 23t-30.5 39t-11 54.5q0 29 11.5 58
t43.5 52l221 66v90q0 19 -1.5 34.5t-7.5 26t-18.5 16t-34.5 5.5q-12 0 -20.5 -1.5t-23.5 -6.5l-20 -132h-131v90zM303 269l-87 -33q-19 -16 -29 -38.5t-10 -54.5q0 -39 15.5 -62t40.5 -23q15 0 30 7t24 14l16 11v179z" />
    <glyph glyph-name="adieresis" unicode="&#xe4;" horiz-adv-x="515" 
d="M115 696l70 5l28 -5l7 -55l-12 -48l-68 -6l-29 6l-6 57zM298 696l70 5l28 -5l7 -55l-12 -48l-69 -6l-28 6l-6 57zM255 489q36 0 61 -2t43.5 -6.5t31.5 -11.5t24 -17q34 -31 34 -111v-216q0 -22 3.5 -44t9.5 -43l46 5l2 -16l-179 -36l-24 82l-137 -88q-30 0 -56 7.5
t-45.5 23t-30.5 39t-11 54.5q0 29 11.5 58t43.5 52l221 66v90q0 19 -1.5 34.5t-7.5 26t-18.5 16t-34.5 5.5q-12 0 -20.5 -1.5t-23.5 -6.5l-20 -132h-131v90zM303 269l-87 -33q-19 -16 -29 -38.5t-10 -54.5q0 -39 15.5 -62t40.5 -23q15 0 30 7t24 14l16 11v179z" />
    <glyph glyph-name="aring" unicode="&#xe5;" horiz-adv-x="515" 
d="M173 649q0 -34 21.5 -55t54.5 -21t54.5 21t21.5 55t-21.5 55.5t-54.5 21.5t-54.5 -21.5t-21.5 -55.5zM361 650q0 -24 -9 -41t-24 -29t-35.5 -20t-42.5 -15q-21 0 -41.5 5.5t-36.5 17.5t-26 31.5t-10 48.5q0 24 9.5 40.5t25 28.5t36 20.5t42.5 15.5q22 0 42.5 -5t36 -17
t24.5 -32t9 -49zM255 489q36 0 61 -2t43.5 -6.5t31.5 -11.5t24 -17q34 -31 34 -111v-216q0 -22 3.5 -44t9.5 -43l46 5l2 -16l-179 -36l-24 82l-137 -88q-30 0 -56 7.5t-45.5 23t-30.5 39t-11 54.5q0 29 11.5 58t43.5 52l221 66v90q0 19 -1.5 34.5t-7.5 26t-18.5 16
t-34.5 5.5q-12 0 -20.5 -1.5t-23.5 -6.5l-20 -132h-131v90zM303 269l-87 -33q-19 -16 -29 -38.5t-10 -54.5q0 -39 15.5 -62t40.5 -23q15 0 30 7t24 14l16 11v179z" />
    <glyph glyph-name="ae" unicode="&#xe6;" horiz-adv-x="755" 
d="M723 116q-24 -24 -46 -42.5t-44.5 -34t-47 -28.5t-52.5 -26q-65 0 -118.5 27.5t-83.5 81.5l-161 -109q-30 0 -56 7.5t-45.5 23t-30.5 39t-11 54.5q0 29 11.5 58t43.5 52l218 66v90q0 18 -1.5 33.5t-7 26t-17 16.5t-31.5 6q-15 0 -23 -1.5t-22 -6.5l-20 -132h-131v90
l207 82q39 0 66 -2.5t46 -9t31.5 -17.5t20.5 -28q27 23 60 36t69 21q36 0 68 -11.5t55.5 -34t37.5 -56t14 -78.5v-41h-289v-11q4 -42 18.5 -72.5t36.5 -51t49 -30t57 -9.5q35 0 62.5 9t56.5 26zM510 459q-39 0 -58.5 -40t-21.5 -114v-10t1 -10h144q0 87 -12 130.5t-53 43.5z
M300 267l-84 -31q-19 -16 -29 -38.5t-10 -54.5q0 -39 15.5 -62t40.5 -23q15 0 28.5 6.5t22.5 13.5l16 11v178z" />
    <glyph glyph-name="ccedilla" unicode="&#xe7;" horiz-adv-x="461" 
d="M145 -246h-29l33 50h84q22 22 22 53q0 30 -17 40.5t-40 13.5l48 75q-47 2 -86.5 19t-68.5 46.5t-45.5 71t-16.5 92.5q0 60 21 107t56 81t80.5 55.5t95.5 30.5q35 0 75.5 -15.5t70.5 -38.5v-110h-113l-35 134q-11 5 -24 5q-18 0 -36 -8.5t-33 -28t-24 -50.5t-9 -76
q0 -46 12 -85t34.5 -67t53 -44t68.5 -16q33 0 57 8t52 26l5 -10q-23 -22 -43 -40t-40.5 -33t-42.5 -28.5t-48 -26.5l-17 -28q42 -5 63.5 -27t20.5 -50q0 -20 -10 -34.5t-25.5 -25t-34 -19t-36.5 -15.5z" />
    <glyph glyph-name="egrave" unicode="&#xe8;" horiz-adv-x="486" 
d="M266 -15q-48 0 -91.5 15.5t-75.5 45t-51 72.5t-19 97q0 58 19.5 104.5t52.5 81t77 56.5t94 32q38 0 71 -11.5t57.5 -34t38.5 -56t14 -78.5v-38h-298q4 -45 19.5 -78t38.5 -55t52.5 -33t62.5 -11q34 0 61 9t56 26l9 -12q-24 -24 -45.5 -42.5t-44 -34t-46.5 -29t-52 -26.5z
M154 287h152v43q0 61 -14.5 95t-55.5 34q-43 0 -62.5 -40.5t-19.5 -116.5v-15zM272 556l-142 176h116l48 -176h-22z" />
    <glyph glyph-name="eacute" unicode="&#xe9;" horiz-adv-x="486" 
d="M266 -15q-48 0 -91.5 15.5t-75.5 45t-51 72.5t-19 97q0 58 19.5 104.5t52.5 81t77 56.5t94 32q38 0 71 -11.5t57.5 -34t38.5 -56t14 -78.5v-38h-298q4 -45 19.5 -78t38.5 -55t52.5 -33t62.5 -11q34 0 61 9t56 26l9 -12q-24 -24 -45.5 -42.5t-44 -34t-46.5 -29t-52 -26.5z
M154 287h152v43q0 61 -14.5 95t-55.5 34q-43 0 -62.5 -40.5t-19.5 -116.5v-15zM281 732h116l-142 -176h-22z" />
    <glyph glyph-name="ecircumflex" unicode="&#xea;" horiz-adv-x="486" 
d="M266 -15q-48 0 -91.5 15.5t-75.5 45t-51 72.5t-19 97q0 58 19.5 104.5t52.5 81t77 56.5t94 32q38 0 71 -11.5t57.5 -34t38.5 -56t14 -78.5v-38h-298q4 -45 19.5 -78t38.5 -55t52.5 -33t62.5 -11q34 0 61 9t56 26l9 -12q-24 -24 -45.5 -42.5t-44 -34t-46.5 -29t-52 -26.5z
M154 287h152v43q0 61 -14.5 95t-55.5 34q-43 0 -62.5 -40.5t-19.5 -116.5v-15zM133 556h-19l121 181h41l122 -181h-20l-120 98h-5z" />
    <glyph glyph-name="edieresis" unicode="&#xeb;" horiz-adv-x="486" 
d="M266 -15q-48 0 -91.5 15.5t-75.5 45t-51 72.5t-19 97q0 58 19.5 104.5t52.5 81t77 56.5t94 32q38 0 71 -11.5t57.5 -34t38.5 -56t14 -78.5v-38h-298q4 -45 19.5 -78t38.5 -55t52.5 -33t62.5 -11q34 0 61 9t56 26l9 -12q-24 -24 -45.5 -42.5t-44 -34t-46.5 -29t-52 -26.5z
M154 287h152v43q0 61 -14.5 95t-55.5 34q-43 0 -62.5 -40.5t-19.5 -116.5v-15zM120 696l70 5l28 -5l7 -55l-12 -48l-68 -6l-29 6l-6 57zM303 696l70 5l28 -5l7 -55l-12 -48l-69 -6l-28 6l-6 57z" />
    <glyph glyph-name="igrave" unicode="&#xec;" horiz-adv-x="299" 
d="M168 556l-142 176h116l48 -176h-22zM33 0v16l53 8v414l-54 -9l-2 17l179 38h17v-460l53 -8v-16h-246z" />
    <glyph glyph-name="iacute" unicode="&#xed;" horiz-adv-x="299" 
d="M178 732h117l-142 -176h-22zM33 0v16l53 8v414l-54 -9l-2 17l179 38h17v-460l53 -8v-16h-246z" />
    <glyph glyph-name="icircumflex" unicode="&#xee;" horiz-adv-x="299" 
d="M29 556h-19l121 181h42l121 -181h-19l-121 98h-5zM33 0v16l53 8v414l-54 -9l-2 17l179 38h17v-460l53 -8v-16h-246z" />
    <glyph glyph-name="idieresis" unicode="&#xef;" horiz-adv-x="299" 
d="M12 696l69 5l28 -5l7 -55l-11 -48l-69 -6l-29 6l-6 57zM195 696l69 5l28 -5l7 -55l-12 -48l-68 -6l-29 6l-6 57zM33 0v16l53 8v414l-54 -9l-2 17l179 38h17v-460l53 -8v-16h-246z" />
    <glyph glyph-name="eth" unicode="&#xf0;" horiz-adv-x="563" 
d="M361 359q-8 72 -26.5 131.5t-65.5 110.5l-108 -53v16l98 47q-52 52 -145 98l5 12q57 -17 104.5 -38t87.5 -47l102 50v-15l-89 -44q104 -71 151.5 -165.5t47.5 -196.5q0 -59 -16 -110t-47 -89t-76 -59.5t-103 -21.5q-128 33 -192 102t-64 178q0 36 9 71.5t29 63t51.5 45
t75.5 17.5zM179 220q0 -109 21 -160t65 -51q47 0 71 67t25 190q1 17 0.5 36.5t-0.5 39.5l-27 14q-23 13 -40 19.5t-37 6.5q-78 0 -78 -162z" />
    <glyph glyph-name="ntilde" unicode="&#xf1;" horiz-adv-x="596" 
d="M175 697l46 15l213 -71l40 73h13l-32 -128l-47 -14l-214 73l-39 -74h-13zM33 0v16l53 8v414l-54 -9l-2 17l179 38h17v-104l176 109q39 0 59 -8t33 -21q9 -9 14.5 -18.5t8.5 -22.5t4 -31t1 -45v-319l58 -8v-16h-241v16l38 8v324q0 32 -11.5 46t-34.5 14t-39.5 -8
t-38.5 -21l-27 -17v-338l38 -8v-16h-231z" />
    <glyph glyph-name="ograve" unicode="&#xf2;" horiz-adv-x="544" 
d="M288 556l-142 176h117l48 -176h-23zM260 461q-39 0 -60.5 -46.5t-21.5 -148.5q0 -125 30.5 -189.5t74.5 -64.5q39 0 60.5 47t21.5 147q0 129 -31 192t-74 63zM252 -15q-48 0 -88.5 17.5t-70.5 49t-47 75.5t-17 98q0 62 20.5 106t56 74.5t83 50.5t101.5 33q48 0 89 -17.5
t71 -49t47 -75.5t17 -97q0 -62 -20.5 -106.5t-56 -75.5t-83 -50.5t-102.5 -32.5z" />
    <glyph glyph-name="oacute" unicode="&#xf3;" horiz-adv-x="544" 
d="M303 732h116l-142 -176h-22zM260 461q-39 0 -60.5 -46.5t-21.5 -148.5q0 -125 30.5 -189.5t74.5 -64.5q39 0 60.5 47t21.5 147q0 129 -31 192t-74 63zM252 -15q-48 0 -88.5 17.5t-70.5 49t-47 75.5t-17 98q0 62 20.5 106t56 74.5t83 50.5t101.5 33q48 0 89 -17.5t71 -49
t47 -75.5t17 -97q0 -62 -20.5 -106.5t-56 -75.5t-83 -50.5t-102.5 -32.5z" />
    <glyph glyph-name="ocircumflex" unicode="&#xf4;" horiz-adv-x="544" 
d="M150 556h-19l121 181h42l121 -181h-19l-120 98h-6zM260 461q-39 0 -60.5 -46.5t-21.5 -148.5q0 -125 30.5 -189.5t74.5 -64.5q39 0 60.5 47t21.5 147q0 129 -31 192t-74 63zM252 -15q-48 0 -88.5 17.5t-70.5 49t-47 75.5t-17 98q0 62 20.5 106t56 74.5t83 50.5t101.5 33
q48 0 89 -17.5t71 -49t47 -75.5t17 -97q0 -62 -20.5 -106.5t-56 -75.5t-83 -50.5t-102.5 -32.5z" />
    <glyph glyph-name="otilde" unicode="&#xf5;" horiz-adv-x="544" 
d="M133 697l45 15l214 -71l39 73h14l-33 -128l-46 -14l-215 73l-38 -74h-14zM260 461q-39 0 -60.5 -46.5t-21.5 -148.5q0 -125 30.5 -189.5t74.5 -64.5q39 0 60.5 47t21.5 147q0 129 -31 192t-74 63zM252 -15q-48 0 -88.5 17.5t-70.5 49t-47 75.5t-17 98q0 62 20.5 106
t56 74.5t83 50.5t101.5 33q48 0 89 -17.5t71 -49t47 -75.5t17 -97q0 -62 -20.5 -106.5t-56 -75.5t-83 -50.5t-102.5 -32.5z" />
    <glyph glyph-name="odieresis" unicode="&#xf6;" horiz-adv-x="544" 
d="M137 696l69 5l28 -5l7 -55l-12 -48l-68 -6l-29 6l-6 57zM319 696l70 5l28 -5l7 -55l-12 -48l-68 -6l-29 6l-6 57zM260 461q-39 0 -60.5 -46.5t-21.5 -148.5q0 -125 30.5 -189.5t74.5 -64.5q39 0 60.5 47t21.5 147q0 129 -31 192t-74 63zM252 -15q-48 0 -88.5 17.5
t-70.5 49t-47 75.5t-17 98q0 62 20.5 106t56 74.5t83 50.5t101.5 33q48 0 89 -17.5t71 -49t47 -75.5t17 -97q0 -62 -20.5 -106.5t-56 -75.5t-83 -50.5t-102.5 -32.5z" />
    <glyph glyph-name="divide" unicode="&#xf7;" 
d="M47 269h525v-28h-525v28zM257 123l78 6l31 -6l6 -58l-7 -52l-79 -6l-30 6l-6 60zM257 491l78 6l31 -6l6 -59l-7 -51l-79 -6l-30 6l-6 60z" />
    <glyph glyph-name="oslash" unicode="&#xf8;" horiz-adv-x="544" 
d="M252 -15q-43 0 -80 13.5t-66 39.5l-42 -48h-22l53 59q-31 32 -48.5 76.5t-17.5 99.5q0 62 20.5 106t56 74.5t83 50.5t101.5 33q43 0 80 -13.5t66 -39.5l45 50h20l-53 -61q31 -32 48.5 -76.5t17.5 -98.5q0 -62 -20.5 -106.5t-56 -75.5t-83 -50.5t-102.5 -32.5zM365 206
q0 33 -2.5 62t-6.5 53l-166 -187q14 -60 38.5 -91t54.5 -31q39 0 60.5 47t21.5 147zM260 461q-39 0 -60.5 -46.5t-21.5 -148.5q0 -64 9 -113l165 187q-14 61 -38.5 91t-53.5 30z" />
    <glyph glyph-name="ugrave" unicode="&#xf9;" horiz-adv-x="573" 
d="M299 556l-142 176h116l48 -176h-22zM551 28l-175 -35l-19 97l-168 -105q-35 0 -58 8.5t-36 20.5q-17 17 -23.5 41.5t-6.5 77.5v305l-52 -5v16l181 33h17v-352q0 -64 49 -64q18 0 33 7t34 18l27 16v331l-51 -5l-1 16l177 33h15v-348q0 -29 3 -49.5t9 -43.5l43 3z" />
    <glyph glyph-name="uacute" unicode="&#xfa;" horiz-adv-x="573" 
d="M302 732h117l-142 -176h-22zM551 28l-175 -35l-19 97l-168 -105q-35 0 -58 8.5t-36 20.5q-17 17 -23.5 41.5t-6.5 77.5v305l-52 -5v16l181 33h17v-352q0 -64 49 -64q18 0 33 7t34 18l27 16v331l-51 -5l-1 16l177 33h15v-348q0 -29 3 -49.5t9 -43.5l43 3z" />
    <glyph glyph-name="ucircumflex" unicode="&#xfb;" horiz-adv-x="573" 
d="M161 556h-19l120 181h42l121 -181h-19l-120 98h-5zM551 28l-175 -35l-19 97l-168 -105q-35 0 -58 8.5t-36 20.5q-17 17 -23.5 41.5t-6.5 77.5v305l-52 -5v16l181 33h17v-352q0 -64 49 -64q18 0 33 7t34 18l27 16v331l-51 -5l-1 16l177 33h15v-348q0 -29 3 -49.5t9 -43.5
l43 3z" />
    <glyph glyph-name="udieresis" unicode="&#xfc;" horiz-adv-x="573" 
d="M329 696l70 5l28 -5l7 -55l-12 -48l-68 -6l-29 6l-6 57zM147 696l69 5l28 -5l7 -55l-12 -48l-68 -6l-29 6l-6 57zM551 28l-175 -35l-19 97l-168 -105q-35 0 -58 8.5t-36 20.5q-17 17 -23.5 41.5t-6.5 77.5v305l-52 -5v16l181 33h17v-352q0 -64 49 -64q18 0 33 7t34 18
l27 16v331l-51 -5l-1 16l177 33h15v-348q0 -29 3 -49.5t9 -43.5l43 3z" />
    <glyph glyph-name="yacute" unicode="&#xfd;" horiz-adv-x="547" 
d="M222 -110l108 168l-126 -48l-159 440l-40 8v16h250v-16l-52 -8l133 -376l132 376l-58 8v16h132v-16l-47 -8l-142 -404l-133 -281h-140v125h142zM327 732h116l-142 -176h-22z" />
    <glyph glyph-name="thorn" unicode="&#xfe;" horiz-adv-x="550" 
d="M379 211q0 41 -5.5 76t-17 60.5t-29 40t-40.5 14.5q-19 0 -31 -6.5t-30 -17.5l-12 -7v-327q8 -13 23.5 -21t34.5 -7q52 0 79.5 52.5t27.5 142.5zM294 -230h-274v16l54 8v878l-54 -9l-2 18l179 31h17v-322l135 99q39 0 72.5 -16t58 -45.5t38.5 -70.5t14 -91t-10.5 -94.5
t-36 -80.5t-67 -63t-103.5 -43q-29 0 -54.5 6.5t-46.5 22.5v-220l80 -8v-16z" />
    <glyph glyph-name="ydieresis" unicode="&#xff;" horiz-adv-x="547" 
d="M222 -110l108 168l-126 -48l-159 440l-40 8v16h250v-16l-52 -8l133 -376l132 376l-58 8v16h132v-16l-47 -8l-142 -404l-133 -281h-140v125h142zM365 696l69 5l28 -5l7 -55l-12 -48l-68 -6l-29 6l-6 57zM182 696l69 5l28 -5l7 -55l-12 -48l-68 -6l-29 6l-6 57z" />
    <glyph glyph-name="Amacron" unicode="&#x100;" horiz-adv-x="703" 
d="M641 24l57 -8v-16h-306v16l77 8l-70 221h-233l-76 -221l79 -8v-16h-164v16l58 8l227 645l119 47zM173 266h219l-105 332zM206 847h291v-54h-291v54z" />
    <glyph glyph-name="amacron" unicode="&#x101;" horiz-adv-x="515" 
d="M100 667h291v-54h-291v54zM255 489q36 0 61 -2t43.5 -6.5t31.5 -11.5t24 -17q34 -31 34 -111v-216q0 -22 3.5 -44t9.5 -43l46 5l2 -16l-179 -36l-24 82l-137 -88q-30 0 -56 7.5t-45.5 23t-30.5 39t-11 54.5q0 29 11.5 58t43.5 52l221 66v90q0 19 -1.5 34.5t-7.5 26
t-18.5 16t-34.5 5.5q-12 0 -20.5 -1.5t-23.5 -6.5l-20 -132h-131v90zM303 269l-87 -33q-19 -16 -29 -38.5t-10 -54.5q0 -39 15.5 -62t40.5 -23q15 0 30 7t24 14l16 11v179z" />
    <glyph glyph-name="Abreve" unicode="&#x102;" horiz-adv-x="703" 
d="M641 24l57 -8v-16h-306v16l77 8l-70 221h-233l-76 -221l79 -8v-16h-164v16l58 8l227 645l119 47zM173 266h219l-105 332zM343 825q26 0 46 7t36 17t27.5 22t19.5 21l13 -10q-8 -18 -17.5 -33.5t-24 -30.5t-35.5 -29.5t-51 -28.5q-31 0 -56 10.5t-45 28t-34.5 39
t-23.5 44.5l13 10q7 -10 19 -21.5t28.5 -21.5t37.5 -17t47 -7z" />
    <glyph glyph-name="abreve" unicode="&#x103;" horiz-adv-x="515" 
d="M251 627q26 0 46 7.5t36 19t27.5 24t19.5 23.5l13 -10q-8 -19 -17.5 -36t-24.5 -33t-36 -31.5t-51 -30.5q-30 0 -55.5 11.5t-45.5 30t-34 41.5t-23 47l13 10q7 -10 19 -22.5t28.5 -24t37.5 -19t47 -7.5zM255 489q36 0 61 -2t43.5 -6.5t31.5 -11.5t24 -17q34 -31 34 -111
v-216q0 -22 3.5 -44t9.5 -43l46 5l2 -16l-179 -36l-24 82l-137 -88q-30 0 -56 7.5t-45.5 23t-30.5 39t-11 54.5q0 29 11.5 58t43.5 52l221 66v90q0 19 -1.5 34.5t-7.5 26t-18.5 16t-34.5 5.5q-12 0 -20.5 -1.5t-23.5 -6.5l-20 -132h-131v90zM303 269l-87 -33
q-19 -16 -29 -38.5t-10 -54.5q0 -39 15.5 -62t40.5 -23q15 0 30 7t24 14l16 11v179z" />
    <glyph glyph-name="Aogonek" unicode="&#x104;" horiz-adv-x="703" 
d="M173 266h220l-106 332zM537 -246q-105 0 -148.5 25.5t-43.5 75.5v57l126 106l-72 227h-233l-76 -221l79 -8v-16h-164v16l58 8l227 645l119 47l232 -692l57 -8v-16h-221l-51 -109v-47q0 -33 24 -54.5t87 -21.5v-14z" />
    <glyph glyph-name="aogonek" unicode="&#x105;" horiz-adv-x="515" 
d="M423 -246q-105 0 -148 25.5t-43 75.5v57l99 82l-24 79l-137 -88q-30 0 -56 7.5t-45.5 23t-30.5 39t-11 54.5q0 29 11.5 58t43.5 52l221 66v90q0 19 -1.5 34.5t-7.5 26t-18.5 16t-34.5 5.5q-12 0 -20.5 -1.5t-23.5 -6.5l-20 -132h-131v90l209 82q36 0 61 -2t43.5 -6.5
t31.5 -11.5t24 -17q34 -31 34 -111v-216q0 -22 3.5 -44t9.5 -43l46 5l2 -16l-148 -29l-49 -107v-47q0 -33 24 -54.5t86 -21.5v-14zM303 269l-87 -33q-19 -16 -29 -38.5t-10 -54.5q0 -39 15.5 -62t40.5 -23q15 0 30 7t24 14l16 11v179z" />
    <glyph glyph-name="Cacute" unicode="&#x106;" horiz-adv-x="694" 
d="M424 905h121l-145 -136h-22zM649 230v-188q-31 -12 -58.5 -21.5t-56 -16.5t-60.5 -12t-71 -9q-74 0 -141 22t-117.5 65.5t-80.5 109.5t-30 153t26.5 154.5t76 115.5t120 76.5t159.5 37.5q39 0 71 -3.5t59.5 -10t52.5 -15.5t50 -21v-188h-17l-78 163q-24 26 -54 41t-76 15
q-45 0 -84 -21.5t-67.5 -64.5t-45 -107.5t-16.5 -150.5q0 -74 13.5 -138t40.5 -111t68 -73.5t97 -26.5q37 0 69 14.5t56 37.5l78 173h16z" />
    <glyph glyph-name="cacute" unicode="&#x107;" horiz-adv-x="461" 
d="M286 732h117l-142 -176h-23zM280 459q-11 5 -24 5q-18 0 -36 -8.5t-33 -28t-24 -50.5t-9 -76q0 -46 12 -85t34.5 -67t53 -44t68.5 -16q33 0 57 8t52 26l5 -10q-23 -22 -43 -40t-40.5 -33t-42.5 -28.5t-48 -26.5q-50 0 -92.5 16t-74 46t-49 72.5t-17.5 95.5q0 60 21 107
t56 81t80.5 55.5t95.5 30.5q35 0 75.5 -15.5t70.5 -38.5v-110h-113z" />
    <glyph glyph-name="Ccircumflex" unicode="&#x108;" horiz-adv-x="694" 
d="M278 769h-22l129 140h48l129 -140h-22l-128 76h-6zM649 230v-188q-31 -12 -58.5 -21.5t-56 -16.5t-60.5 -12t-71 -9q-74 0 -141 22t-117.5 65.5t-80.5 109.5t-30 153t26.5 154.5t76 115.5t120 76.5t159.5 37.5q39 0 71 -3.5t59.5 -10t52.5 -15.5t50 -21v-188h-17l-78 163
q-24 26 -54 41t-76 15q-45 0 -84 -21.5t-67.5 -64.5t-45 -107.5t-16.5 -150.5q0 -74 13.5 -138t40.5 -111t68 -73.5t97 -26.5q37 0 69 14.5t56 37.5l78 173h16z" />
    <glyph glyph-name="ccircumflex" unicode="&#x109;" horiz-adv-x="461" 
d="M145 556h-19l121 181h42l121 -181h-19l-121 98h-5zM280 459q-11 5 -24 5q-18 0 -36 -8.5t-33 -28t-24 -50.5t-9 -76q0 -46 12 -85t34.5 -67t53 -44t68.5 -16q33 0 57 8t52 26l5 -10q-23 -22 -43 -40t-40.5 -33t-42.5 -28.5t-48 -26.5q-50 0 -92.5 16t-74 46t-49 72.5
t-17.5 95.5q0 60 21 107t56 81t80.5 55.5t95.5 30.5q35 0 75.5 -15.5t70.5 -38.5v-110h-113z" />
    <glyph glyph-name="Cdotaccent" unicode="&#x10a;" horiz-adv-x="694" 
d="M355 898l85 5l30 -5l6 -60l-11 -52l-85 -6l-30 6l-6 61zM649 230v-188q-31 -12 -58.5 -21.5t-56 -16.5t-60.5 -12t-71 -9q-74 0 -141 22t-117.5 65.5t-80.5 109.5t-30 153t26.5 154.5t76 115.5t120 76.5t159.5 37.5q39 0 71 -3.5t59.5 -10t52.5 -15.5t50 -21v-188h-17
l-78 163q-24 26 -54 41t-76 15q-45 0 -84 -21.5t-67.5 -64.5t-45 -107.5t-16.5 -150.5q0 -74 13.5 -138t40.5 -111t68 -73.5t97 -26.5q37 0 69 14.5t56 37.5l78 173h16z" />
    <glyph glyph-name="cdotaccent" unicode="&#x10b;" horiz-adv-x="461" 
d="M207 711l85 5l30 -5l6 -60l-12 -52l-84 -6l-30 6l-6 61zM280 459q-11 5 -24 5q-18 0 -36 -8.5t-33 -28t-24 -50.5t-9 -76q0 -46 12 -85t34.5 -67t53 -44t68.5 -16q33 0 57 8t52 26l5 -10q-23 -22 -43 -40t-40.5 -33t-42.5 -28.5t-48 -26.5q-50 0 -92.5 16t-74 46
t-49 72.5t-17.5 95.5q0 60 21 107t56 81t80.5 55.5t95.5 30.5q35 0 75.5 -15.5t70.5 -38.5v-110h-113z" />
    <glyph glyph-name="Ccaron" unicode="&#x10c;" horiz-adv-x="694" 
d="M410 830l128 75h22l-130 -139h-47l-130 139h22l128 -75h7zM649 230v-188q-31 -12 -58.5 -21.5t-56 -16.5t-60.5 -12t-71 -9q-74 0 -141 22t-117.5 65.5t-80.5 109.5t-30 153t26.5 154.5t76 115.5t120 76.5t159.5 37.5q39 0 71 -3.5t59.5 -10t52.5 -15.5t50 -21v-188h-17
l-78 163q-24 26 -54 41t-76 15q-45 0 -84 -21.5t-67.5 -64.5t-45 -107.5t-16.5 -150.5q0 -74 13.5 -138t40.5 -111t68 -73.5t97 -26.5q37 0 69 14.5t56 37.5l78 173h16z" />
    <glyph glyph-name="ccaron" unicode="&#x10d;" horiz-adv-x="461" 
d="M265 638l120 98h19l-121 -181h-42l-121 181h19l120 -98h6zM280 459q-11 5 -24 5q-18 0 -36 -8.5t-33 -28t-24 -50.5t-9 -76q0 -46 12 -85t34.5 -67t53 -44t68.5 -16q33 0 57 8t52 26l5 -10q-23 -22 -43 -40t-40.5 -33t-42.5 -28.5t-48 -26.5q-50 0 -92.5 16t-74 46
t-49 72.5t-17.5 95.5q0 60 21 107t56 81t80.5 55.5t95.5 30.5q35 0 75.5 -15.5t70.5 -38.5v-110h-113z" />
    <glyph glyph-name="Dcaron" unicode="&#x10e;" horiz-adv-x="728" 
d="M357 830l128 75h23l-130 -139h-48l-129 139h22l128 -75h6zM328 16q46 0 83 25t63 71t40 109.5t14 140.5q0 69 -11.5 128t-36.5 102t-64 67.5t-94 24.5l-75 -8v-652zM24 0v16l67 8v652l-67 8v16h330q82 0 145.5 -23t106.5 -66.5t65 -105t22 -139.5q0 -77 -20.5 -141.5
t-62.5 -112.5t-106.5 -77t-152.5 -35h-327z" />
    <glyph glyph-name="dcaron" unicode="&#x10f;" horiz-adv-x="672" 
d="M545 432l72 150l-50 -3l-31 6l-7 68l11 54l87 6l34 -6l6 -63l-11 -59l-99 -158zM183 264q0 -42 6 -77.5t18 -61t29 -39.5t39 -14q17 0 28 4.5t31 18.5l14 10v329q-8 10 -22 17.5t-33 7.5q-57 -1 -83.5 -54t-26.5 -141zM222 -15q-41 0 -76 17t-61 47.5t-41 72.5t-15 91
q0 50 12 95t38 81t67.5 62t100.5 38q58 0 101 -27v210l-52 -7l-2 18l178 29h15v-586q0 -29 3 -46.5t11 -39.5l51 3l3 -16l-176 -36l-28 97z" />
    <glyph glyph-name="Dcroat" unicode="&#x110;" horiz-adv-x="728" 
d="M24 0v16l67 8v331h-57v16h57v305l-67 8v16h330q82 0 145.5 -23t106.5 -66.5t65 -105t22 -139.5q0 -77 -20.5 -141.5t-62.5 -112.5t-106.5 -77t-152.5 -35h-327zM328 16q46 0 83 25t63 71t40 109.5t14 140.5q0 69 -11.5 128t-36.5 102t-64 67.5t-94 24.5l-75 -8v-305h120
v-16h-120v-331z" />
    <glyph glyph-name="dcroat" unicode="&#x111;" horiz-adv-x="572" 
d="M222 -15q-41 0 -76 17t-61 47.5t-41 72.5t-15 91q0 50 12 95t38 81t67.5 62t100.5 38q58 0 101 -27v115h-101v13h101v82l-52 -7l-2 18l178 29h15v-122h59v-13h-59v-451q0 -29 3 -46.5t11 -39.5l51 3l3 -16l-176 -36l-28 97zM183 264q0 -42 6 -77.5t18 -61t29 -39.5
t39 -14q17 0 28 4.5t31 18.5l14 10v329q-8 10 -22 17.5t-33 7.5q-57 -1 -83.5 -54t-26.5 -141z" />
    <glyph glyph-name="Emacron" unicode="&#x112;" horiz-adv-x="603" 
d="M186 847h292v-54h-292v54zM24 16l63 8v652l-63 8v16h548v-190h-16l-76 171h-238v-305h125l48 125h17v-267h-17l-48 124h-125v-339h242l71 178h17v-197h-548v16z" />
    <glyph glyph-name="emacron" unicode="&#x113;" horiz-adv-x="486" 
d="M266 -15q-48 0 -91.5 15.5t-75.5 45t-51 72.5t-19 97q0 58 19.5 104.5t52.5 81t77 56.5t94 32q38 0 71 -11.5t57.5 -34t38.5 -56t14 -78.5v-38h-298q4 -45 19.5 -78t38.5 -55t52.5 -33t62.5 -11q34 0 61 9t56 26l9 -12q-24 -24 -45.5 -42.5t-44 -34t-46.5 -29t-52 -26.5z
M154 287h152v43q0 61 -14.5 95t-55.5 34q-43 0 -62.5 -40.5t-19.5 -116.5v-15zM119 667h292v-54h-292v54z" />
    <glyph glyph-name="Ebreve" unicode="&#x114;" horiz-adv-x="603" 
d="M332 825q26 0 46.5 7t36 17t27 22t19.5 21l13 -10q-8 -18 -17.5 -33.5t-24 -30.5t-35.5 -29.5t-51 -28.5q-31 0 -56 10.5t-45 28t-34 39t-23 44.5l12 10q7 -10 19 -21.5t28.5 -21.5t37.5 -17t47 -7zM24 16l63 8v652l-63 8v16h548v-190h-16l-76 171h-238v-305h125l48 125
h17v-267h-17l-48 124h-125v-339h242l71 178h17v-197h-548v16z" />
    <glyph glyph-name="ebreve" unicode="&#x115;" horiz-adv-x="486" 
d="M266 -15q-48 0 -91.5 15.5t-75.5 45t-51 72.5t-19 97q0 58 19.5 104.5t52.5 81t77 56.5t94 32q38 0 71 -11.5t57.5 -34t38.5 -56t14 -78.5v-38h-298q4 -45 19.5 -78t38.5 -55t52.5 -33t62.5 -11q34 0 61 9t56 26l9 -12q-24 -24 -45.5 -42.5t-44 -34t-46.5 -29t-52 -26.5z
M154 287h152v43q0 61 -14.5 95t-55.5 34q-43 0 -62.5 -40.5t-19.5 -116.5v-15zM256 628q26 0 46 7t36 16.5t27.5 21t19.5 20.5l12 -9q-8 -18 -17.5 -34t-24 -31t-35.5 -29t-51 -29q-31 0 -56 10.5t-45 28t-34 39t-23 44.5l13 10q7 -9 19 -20.5t28.5 -21.5t37.5 -16.5
t47 -6.5z" />
    <glyph glyph-name="Edotaccent" unicode="&#x116;" horiz-adv-x="603" 
d="M283 898l85 5l30 -5l6 -60l-11 -52l-85 -6l-30 6l-6 61zM24 16l63 8v652l-63 8v16h548v-190h-16l-76 171h-238v-305h125l48 125h17v-267h-17l-48 124h-125v-339h242l71 178h17v-197h-548v16z" />
    <glyph glyph-name="edotaccent" unicode="&#x117;" horiz-adv-x="486" 
d="M266 -15q-48 0 -91.5 15.5t-75.5 45t-51 72.5t-19 97q0 58 19.5 104.5t52.5 81t77 56.5t94 32q38 0 71 -11.5t57.5 -34t38.5 -56t14 -78.5v-38h-298q4 -45 19.5 -78t38.5 -55t52.5 -33t62.5 -11q34 0 61 9t56 26l9 -12q-24 -24 -45.5 -42.5t-44 -34t-46.5 -29t-52 -26.5z
M154 287h152v43q0 61 -14.5 95t-55.5 34q-43 0 -62.5 -40.5t-19.5 -116.5v-15zM203 711l85 5l29 -5l7 -60l-12 -52l-85 -6l-30 6l-5 61z" />
    <glyph glyph-name="Eogonek" unicode="&#x118;" horiz-adv-x="603" 
d="M24 16l63 8v652l-63 8v16h548v-190h-16l-76 171h-238v-305h125l48 125h17v-267h-17l-48 124h-125v-339h242l71 178h17v-197h-58l-50 -109v-47q0 -33 24 -54.5t81 -21.5v-14q-51 0 -86.5 6.5t-57.5 19.5t-32 32t-10 43v57l104 88h-463v16z" />
    <glyph glyph-name="eogonek" unicode="&#x119;" horiz-adv-x="486" 
d="M266 -15q-48 0 -91.5 15.5t-75.5 45t-51 72.5t-19 97q0 58 19.5 104.5t52.5 81t77 56.5t94 32q38 0 71 -11.5t57.5 -34t38.5 -56t14 -78.5v-38h-298q4 -45 19.5 -78t38.5 -55t52.5 -33t62.5 -11q34 0 61 9t56 26l9 -12q-51 -51 -99 -83l-77 -143v-47q0 -33 24 -54.5
t87 -21.5v-14q-105 0 -148.5 25.5t-43.5 75.5v46l127 113q-14 -8 -28 -14.5t-30 -14.5zM154 287h152v43q0 61 -14.5 95t-55.5 34q-43 0 -62.5 -40.5t-19.5 -116.5v-15z" />
    <glyph glyph-name="Ecaron" unicode="&#x11a;" horiz-adv-x="603" 
d="M340 830l128 75h22l-130 -139h-47l-130 139h23l127 -75h7zM24 16l63 8v652l-63 8v16h548v-190h-16l-76 171h-238v-305h125l48 125h17v-267h-17l-48 124h-125v-339h242l71 178h17v-197h-548v16z" />
    <glyph glyph-name="ecaron" unicode="&#x11b;" horiz-adv-x="486" 
d="M266 -15q-48 0 -91.5 15.5t-75.5 45t-51 72.5t-19 97q0 58 19.5 104.5t52.5 81t77 56.5t94 32q38 0 71 -11.5t57.5 -34t38.5 -56t14 -78.5v-38h-298q4 -45 19.5 -78t38.5 -55t52.5 -33t62.5 -11q34 0 61 9t56 26l9 -12q-24 -24 -45.5 -42.5t-44 -34t-46.5 -29t-52 -26.5z
M154 287h152v43q0 61 -14.5 95t-55.5 34q-43 0 -62.5 -40.5t-19.5 -116.5v-15zM260 639l121 97h19l-121 -181h-42l-121 181h19l120 -97h5z" />
    <glyph glyph-name="Gcircumflex" unicode="&#x11c;" horiz-adv-x="727" 
d="M279 769h-22l129 140h48l129 -140h-22l-128 76h-6zM654 43q-28 -12 -57 -21.5t-62 -17.5t-71.5 -13t-83.5 -8q-69 0 -132 23.5t-110.5 68.5t-75.5 110t-28 148q0 172 102 269.5t287 114.5q76 0 129 -14.5t97 -36.5v-187h-17l-80 163q-22 25 -52 40.5t-76 15.5
q-48 0 -87 -24.5t-67 -69.5t-43.5 -108.5t-15.5 -141.5q0 -72 11.5 -136t35 -111.5t59.5 -75t85 -27.5q34 0 58 12t39 29v250l-71 8v20h280v-20l-54 -8v-252z" />
    <glyph glyph-name="gcircumflex" unicode="&#x11d;" horiz-adv-x="535" 
d="M123 556h-19l121 181h42l121 -181h-19l-121 98h-5zM248 182q31 0 44.5 33.5t13.5 99.5q0 72 -15 113t-56 41q-31 0 -44.5 -33.5t-13.5 -100.5q0 -72 15 -112.5t56 -40.5zM499 -8q0 -43 -19.5 -77t-54.5 -62.5t-83 -51.5t-105 -44q-52 0 -92.5 5t-69 18t-43.5 35t-15 55
v19l116 84q-50 11 -72.5 38.5t-22.5 62.5v22l104 81q-47 19 -74.5 55.5t-27.5 84.5q1 68 56 108t156 64q68 0 116 -28.5t65 -75.5l46 104h51v-120h-89l-3 -5q5 -13 5 -27q-1 -71 -54 -110.5t-157 -65.5q-20 0 -38.5 2.5t-35.5 7.5l-33 -33q0 -23 13.5 -33t36.5 -10h218
q54 0 80 -30.5t26 -72.5zM149 -28q-17 -15 -22 -31.5t-5 -31.5q0 -35 32 -55t77 -20h96q26 0 47.5 7.5t36.5 19.5t23.5 27t8.5 32q0 23 -14.5 37.5t-46.5 14.5h-233z" />
    <glyph glyph-name="Gbreve" unicode="&#x11e;" horiz-adv-x="727" 
d="M402 825q26 0 46.5 7t36 17t27 22t19.5 21l13 -10q-8 -18 -17.5 -33.5t-24 -30.5t-35.5 -29.5t-51 -28.5q-31 0 -56 10.5t-45 28t-34 39t-23 44.5l12 10q7 -10 19 -21.5t28.5 -21.5t37.5 -17t47 -7zM654 43q-28 -12 -57 -21.5t-62 -17.5t-71.5 -13t-83.5 -8
q-69 0 -132 23.5t-110.5 68.5t-75.5 110t-28 148q0 172 102 269.5t287 114.5q76 0 129 -14.5t97 -36.5v-187h-17l-80 163q-22 25 -52 40.5t-76 15.5q-48 0 -87 -24.5t-67 -69.5t-43.5 -108.5t-15.5 -141.5q0 -72 11.5 -136t35 -111.5t59.5 -75t85 -27.5q34 0 58 12t39 29
v250l-71 8v20h280v-20l-54 -8v-252z" />
    <glyph glyph-name="gbreve" unicode="&#x11f;" horiz-adv-x="535" 
d="M240 628q26 0 46.5 7t36 17t27 21.5t19.5 20.5l13 -10q-8 -18 -17.5 -34t-24 -31t-35.5 -29t-51 -29q-31 0 -56 10.5t-45 28t-34 39.5t-23 45l12 9q7 -9 19 -20.5t28.5 -21t37.5 -16.5t47 -7zM248 182q31 0 44.5 33.5t13.5 99.5q0 72 -15 113t-56 41q-31 0 -44.5 -33.5
t-13.5 -100.5q0 -72 15 -112.5t56 -40.5zM499 -8q0 -43 -19.5 -77t-54.5 -62.5t-83 -51.5t-105 -44q-52 0 -92.5 5t-69 18t-43.5 35t-15 55v19l116 84q-50 11 -72.5 38.5t-22.5 62.5v22l104 81q-47 19 -74.5 55.5t-27.5 84.5q1 68 56 108t156 64q68 0 116 -28.5t65 -75.5
l46 104h51v-120h-89l-3 -5q5 -13 5 -27q-1 -71 -54 -110.5t-157 -65.5q-20 0 -38.5 2.5t-35.5 7.5l-33 -33q0 -23 13.5 -33t36.5 -10h218q54 0 80 -30.5t26 -72.5zM149 -28q-17 -15 -22 -31.5t-5 -31.5q0 -35 32 -55t77 -20h96q26 0 47.5 7.5t36.5 19.5t23.5 27t8.5 32
q0 23 -14.5 37.5t-46.5 14.5h-233z" />
    <glyph glyph-name="Gdotaccent" unicode="&#x120;" horiz-adv-x="727" 
d="M356 898l85 5l30 -5l6 -60l-11 -52l-85 -6l-30 6l-6 61zM654 43q-28 -12 -57 -21.5t-62 -17.5t-71.5 -13t-83.5 -8q-69 0 -132 23.5t-110.5 68.5t-75.5 110t-28 148q0 172 102 269.5t287 114.5q76 0 129 -14.5t97 -36.5v-187h-17l-80 163q-22 25 -52 40.5t-76 15.5
q-48 0 -87 -24.5t-67 -69.5t-43.5 -108.5t-15.5 -141.5q0 -72 11.5 -136t35 -111.5t59.5 -75t85 -27.5q34 0 58 12t39 29v250l-71 8v20h280v-20l-54 -8v-252z" />
    <glyph glyph-name="gdotaccent" unicode="&#x121;" horiz-adv-x="535" 
d="M189 711l85 5l30 -5l6 -60l-12 -52l-85 -6l-29 6l-6 61zM248 182q31 0 44.5 33.5t13.5 99.5q0 72 -15 113t-56 41q-31 0 -44.5 -33.5t-13.5 -100.5q0 -72 15 -112.5t56 -40.5zM499 -8q0 -43 -19.5 -77t-54.5 -62.5t-83 -51.5t-105 -44q-52 0 -92.5 5t-69 18t-43.5 35
t-15 55v19l116 84q-50 11 -72.5 38.5t-22.5 62.5v22l104 81q-47 19 -74.5 55.5t-27.5 84.5q1 68 56 108t156 64q68 0 116 -28.5t65 -75.5l46 104h51v-120h-89l-3 -5q5 -13 5 -27q-1 -71 -54 -110.5t-157 -65.5q-20 0 -38.5 2.5t-35.5 7.5l-33 -33q0 -23 13.5 -33t36.5 -10
h218q54 0 80 -30.5t26 -72.5zM149 -28q-17 -15 -22 -31.5t-5 -31.5q0 -35 32 -55t77 -20h96q26 0 47.5 7.5t36.5 19.5t23.5 27t8.5 32q0 23 -14.5 37.5t-46.5 14.5h-233z" />
    <glyph glyph-name="Gcommaaccent" unicode="&#x122;" horiz-adv-x="727" 
d="M384 -135l-49 41v44h127v-78l-117 -114l-16 3zM654 43q-28 -12 -57 -21.5t-62 -17.5t-71.5 -13t-83.5 -8q-69 0 -132 23.5t-110.5 68.5t-75.5 110t-28 148q0 172 102 269.5t287 114.5q76 0 129 -14.5t97 -36.5v-187h-17l-80 163q-22 25 -52 40.5t-76 15.5
q-48 0 -87 -24.5t-67 -69.5t-43.5 -108.5t-15.5 -141.5q0 -72 11.5 -136t35 -111.5t59.5 -75t85 -27.5q34 0 58 12t39 29v250l-71 8v20h280v-20l-54 -8v-252z" />
    <glyph glyph-name="gcommaaccent" unicode="&#x123;" horiz-adv-x="535" 
d="M254 658l49 -45v-47h-127v83l117 124l16 -4zM248 182q31 0 44.5 33.5t13.5 99.5q0 72 -15 113t-56 41q-31 0 -44.5 -33.5t-13.5 -100.5q0 -72 15 -112.5t56 -40.5zM499 -8q0 -43 -19.5 -77t-54.5 -62.5t-83 -51.5t-105 -44q-52 0 -92.5 5t-69 18t-43.5 35t-15 55v19
l116 84q-50 11 -72.5 38.5t-22.5 62.5v22l104 81q-47 19 -74.5 55.5t-27.5 84.5q1 68 56 108t156 64q68 0 116 -28.5t65 -75.5l46 104h51v-120h-89l-3 -5q5 -13 5 -27q-1 -71 -54 -110.5t-157 -65.5q-20 0 -38.5 2.5t-35.5 7.5l-33 -33q0 -23 13.5 -33t36.5 -10h218
q54 0 80 -30.5t26 -72.5zM149 -28q-17 -15 -22 -31.5t-5 -31.5q0 -35 32 -55t77 -20h96q26 0 47.5 7.5t36.5 19.5t23.5 27t8.5 32q0 23 -14.5 37.5t-46.5 14.5h-233z" />
    <glyph glyph-name="Hcircumflex" unicode="&#x124;" horiz-adv-x="736" 
d="M242 374h251v302l-59 8v16h277v-16l-62 -8v-652l62 -8v-16h-277v16l59 8v329h-251v-329l60 -8v-16h-278v16l63 8v652l-63 8v16h278v-16l-60 -8v-302zM242 769h-22l130 140h47l130 -140h-22l-128 76h-7z" />
    <glyph glyph-name="hcircumflex" unicode="&#x125;" horiz-adv-x="595" 
d="M29 769h-22l129 140h48l130 -140h-22l-129 76h-6zM38 0v16l52 8v648l-51 -7l-3 18l178 29h16v-333l177 110q38 0 58.5 -8t33.5 -21q8 -8 13.5 -17.5t8.5 -22.5t4.5 -31.5t1.5 -45.5v-319l58 -8v-16h-241v16l37 8v324q0 32 -11.5 46t-34.5 14q-22 0 -38.5 -8t-38.5 -21
l-28 -17v-338l38 -8v-16h-230z" />
    <glyph glyph-name="Hbar" unicode="&#x126;" horiz-adv-x="736" 
d="M242 499h251v177l-59 8v16h277v-16l-62 -8v-652l62 -8v-16h-277v16l59 8v329h-251v-329l60 -8v-16h-278v16l63 8v652l-63 8v16h278v-16l-60 -8v-177zM242 374h251v111h-251v-111z" />
    <glyph glyph-name="hbar" unicode="&#x127;" horiz-adv-x="595" 
d="M32 0v16l52 8v547h-53v14h53v87l-51 -7l-3 18l178 29h16v-127h99v-14h-99v-192l177 110q38 0 58.5 -8t33.5 -21q8 -8 13.5 -17.5t8.5 -22.5t4.5 -31.5t1.5 -45.5v-319l58 -8v-16h-241v16l37 8v324q0 32 -11.5 46t-34.5 14q-22 0 -38.5 -8t-38.5 -21l-28 -17v-338l38 -8
v-16h-230z" />
    <glyph glyph-name="Itilde" unicode="&#x128;" horiz-adv-x="329" 
d="M33 885l46 15l213 -71l39 72h14l-33 -127l-46 -14l-214 73l-39 -75h-13zM242 24l63 -8v-16h-281v16l63 8v652l-63 8v16h281v-16l-63 -8v-652z" />
    <glyph glyph-name="itilde" unicode="&#x129;" horiz-adv-x="299" 
d="M13 697l46 15l213 -71l39 73h14l-33 -128l-46 -14l-214 73l-39 -74h-13zM33 0v16l53 8v414l-54 -9l-2 17l179 38h17v-460l53 -8v-16h-246z" />
    <glyph glyph-name="Imacron" unicode="&#x12a;" horiz-adv-x="329" 
d="M19 847h291v-54h-291v54zM242 24l63 -8v-16h-281v16l63 8v652l-63 8v16h281v-16l-63 -8v-652z" />
    <glyph glyph-name="imacron" unicode="&#x12b;" horiz-adv-x="299" 
d="M3 667h292v-54h-292v54zM33 0v16l53 8v414l-54 -9l-2 17l179 38h17v-460l53 -8v-16h-246z" />
    <glyph glyph-name="Ibreve" unicode="&#x12c;" horiz-adv-x="329" 
d="M169 827q25 0 45.5 7t36 16.5t27.5 21t20 20.5l12 -10q-8 -18 -17.5 -33.5t-24 -30.5t-35.5 -29.5t-51 -28.5q-31 0 -56 10.5t-45 28t-34 39t-23 44.5l12 10q7 -9 19.5 -20.5t29 -21.5t37.5 -16.5t47 -6.5zM242 24l63 -8v-16h-281v16l63 8v652l-63 8v16h281v-16l-63 -8
v-652z" />
    <glyph glyph-name="ibreve" unicode="&#x12d;" horiz-adv-x="299" 
d="M149 628q26 0 46 7t36 17t27.5 21.5t19.5 20.5l13 -10q-8 -18 -17.5 -34t-24.5 -31t-36 -29t-51 -29q-30 0 -55.5 10.5t-45.5 28t-34 39.5t-23 45l13 9q7 -9 19 -20.5t28.5 -21t37.5 -16.5t47 -7zM33 0v16l53 8v414l-54 -9l-2 17l179 38h17v-460l53 -8v-16h-246z" />
    <glyph glyph-name="Iogonek" unicode="&#x12e;" horiz-adv-x="329" 
d="M242 24l63 -8v-16h-114l-42 -109v-47q0 -33 23.5 -54.5t86.5 -21.5v-14q-105 0 -148 25.5t-43 75.5v46l92 99h-136v16l63 8v652l-63 8v16h281v-16l-63 -8v-652z" />
    <glyph glyph-name="iogonek" unicode="&#x12f;" horiz-adv-x="299" 
d="M101 698l89 7l34 -7l5 -64l-11 -60l-90 -7l-31 7l-7 69zM246 -246q-105 0 -148.5 25.5t-43.5 75.5v57l98 88h-119v16l53 8v414l-54 -9l-2 17l179 38h17v-460l53 -8v-16h-95l-49 -109v-47q0 -33 24 -54.5t87 -21.5v-14z" />
    <glyph glyph-name="Idotaccent" unicode="&#x130;" horiz-adv-x="329" 
d="M114 898l85 5l29 -5l6 -60l-11 -52l-85 -6l-30 6l-5 61zM242 24l63 -8v-16h-281v16l63 8v652l-63 8v16h281v-16l-63 -8v-652z" />
    <glyph glyph-name="dotlessi" unicode="&#x131;" horiz-adv-x="299" 
d="M33 0v16l53 8v414l-54 -9l-2 17l179 38h17v-460l53 -8v-16h-246z" />
    <glyph glyph-name="IJ" unicode="&#x132;" horiz-adv-x="623" 
d="M539 159q0 -37 -11 -71t-27.5 -64t-37.5 -55.5t-40 -45.5l-86 -98h-69v113h109l2 26q2 17 3 44t1 78v590l-54 8v16h272v-16l-62 -8v-517zM242 24l57 -8v-16h-275v16l63 8v652l-63 8v16h266v-16l-48 -8v-652z" />
    <glyph glyph-name="ij" unicode="&#x133;" horiz-adv-x="549" 
d="M101 698l89 7l34 -7l5 -64l-11 -60l-90 -7l-31 7l-7 69zM33 0v16l53 8v414l-54 -9l-2 17l179 38h17v-460l53 -8v-16h-246zM367 698l88 7l34 -7l6 -64l-12 -60l-89 -7l-31 7l-8 69zM244 -238v122h100l2 20q2 14 4 42t2 73v419l-54 -9l-2 17l179 38h17v-427q0 -33 -3 -57.5
t-12 -45t-24.5 -39.5t-39.5 -42l-107 -111h-62z" />
    <glyph glyph-name="Jcircumflex" unicode="&#x134;" horiz-adv-x="355" 
d="M66 769h-22l129 140h47l130 -140h-22l-128 76h-7zM273 155q0 -41 -10.5 -76.5t-27 -65t-37 -54.5t-40.5 -45l-84 -89h-71v119h108l3 25q2 18 3 45t1 78v584l-87 8v16h305v-16l-63 -8v-521z" />
    <glyph glyph-name="jcircumflex" unicode="&#x135;" horiz-adv-x="285" 
d="M-20 -238v122h100l2 20q2 14 4 42t2 73v419l-54 -9l-2 17l179 38h17v-427q0 -33 -3 -57.5t-12 -45t-24.5 -39.5t-39.5 -42l-107 -111h-62zM30 556h-19l121 181h42l121 -181h-19l-121 98h-5z" />
    <glyph glyph-name="Kcommaaccent" unicode="&#x136;" horiz-adv-x="725" 
d="M242 365l321 311l-90 8v16h209v-16l-91 -8l-315 -304l113 39l280 -387l46 -8v-16h-217l-256 348v-324l60 -8v-16h-278v16l63 8v652l-63 8v16h278v-16l-60 -8v-311zM363 -135l-49 41v44h127v-78l-117 -114l-16 3z" />
    <glyph glyph-name="kcommaaccent" unicode="&#x137;" horiz-adv-x="588" 
d="M224 269l229 181l-69 8v16h174v-16l-68 -8l-232 -176l103 22l188 -272l34 -8v-16h-194l-165 259v-235l53 -8v-16h-245v16l52 8v648l-51 -7l-3 18l178 29h16v-443zM283 -135l-50 41v44h127v-78l-116 -114l-16 3z" />
    <glyph glyph-name="kgreenlandic" unicode="&#x138;" horiz-adv-x="584" 
d="M224 271l231 179l-69 8v16h174v-16l-67 -8l-161 -125l213 -301l34 -8v-16h-194l-161 247v-223l53 -8v-16h-245v16l52 8v409l-51 -7l-3 18l178 36h16v-209z" />
    <glyph glyph-name="Lacute" unicode="&#x139;" horiz-adv-x="573" 
d="M198 905h121l-145 -136h-22zM24 0v16l63 8v652l-63 8v16h281v-16l-63 -8v-652h217l88 178h16v-202h-539z" />
    <glyph glyph-name="lacute" unicode="&#x13a;" horiz-adv-x="292" 
d="M172 905h121l-145 -136h-22zM32 0v16l52 8v648l-51 -7l-3 18l178 29h16v-688l53 -8v-16h-245z" />
    <glyph glyph-name="Lcommaaccent" unicode="&#x13b;" horiz-adv-x="573" 
d="M307 -135l-49 41v44h127v-78l-117 -114l-16 3zM24 0v16l63 8v652l-63 8v16h281v-16l-63 -8v-652h217l88 178h16v-202h-539z" />
    <glyph glyph-name="lcommaaccent" unicode="&#x13c;" horiz-adv-x="292" 
d="M144 -135l-50 41v44h127v-78l-117 -114l-15 3zM32 0v16l52 8v648l-51 -7l-3 18l178 29h16v-688l53 -8v-16h-245z" />
    <glyph glyph-name="Lcaron" unicode="&#x13d;" horiz-adv-x="573" 
d="M424 429l73 150l-50 -3l-32 6l-6 68l11 54l87 6l34 -6l6 -63l-11 -59l-99 -158zM24 0v16l63 8v652l-63 8v16h281v-16l-63 -8v-652h217l88 178h16v-202h-539z" />
    <glyph glyph-name="lcaron" unicode="&#x13e;" horiz-adv-x="417" 
d="M287 429l72 150l-50 -3l-32 6l-6 68l11 54l87 6l34 -6l6 -63l-11 -59l-99 -158zM32 0v16l52 8v648l-51 -7l-3 18l178 29h16v-688l53 -8v-16h-245z" />
    <glyph glyph-name="Ldot" unicode="&#x13f;" horiz-adv-x="573" 
d="M357 460l85 6l30 -6l6 -60l-11 -51l-85 -7l-30 7l-6 60zM24 0v16l63 8v652l-63 8v16h281v-16l-63 -8v-652h217l88 178h16v-202h-539z" />
    <glyph glyph-name="ldot" unicode="&#x140;" horiz-adv-x="409" 
d="M283 460l80 6l32 -6l7 -60l-9 -53l-80 -6l-31 6l-6 61zM32 0v16l52 8v648l-51 -7l-3 18l178 29h16v-688l53 -8v-16h-245z" />
    <glyph glyph-name="Lslash" unicode="&#x141;" horiz-adv-x="573" 
d="M24 0v16l63 8v300l-56 -27v20l56 28v331l-63 8v16h281v-16l-63 -8v-254l99 49v-21l-99 -49v-377h217l88 178h16v-202h-539z" />
    <glyph glyph-name="lslash" unicode="&#x142;" horiz-adv-x="292" 
d="M32 0v16l52 8v316l-70 -35v21l70 35v311l-51 -7l-3 18l178 29h16v-282l65 33v-21l-65 -33v-385l53 -8v-16h-245z" />
    <glyph glyph-name="Nacute" unicode="&#x143;" horiz-adv-x="679" 
d="M383 905h121l-145 -136h-22zM532 -5l-424 655v-626l71 -8v-16h-155v16l63 8v652l-63 8v16h244l317 -483v459l-70 8v16h154v-16l-62 -8v-681h-75z" />
    <glyph glyph-name="nacute" unicode="&#x144;" horiz-adv-x="596" 
d="M312 732h116l-142 -176h-22zM33 0v16l53 8v414l-54 -9l-2 17l179 38h17v-104l176 109q39 0 59 -8t33 -21q9 -9 14.5 -18.5t8.5 -22.5t4 -31t1 -45v-319l58 -8v-16h-241v16l38 8v324q0 32 -11.5 46t-34.5 14t-39.5 -8t-38.5 -21l-27 -17v-338l38 -8v-16h-231z" />
    <glyph glyph-name="Ncommaaccent" unicode="&#x145;" horiz-adv-x="679" 
d="M350 -135l-49 41v44h127v-78l-117 -114l-16 3zM532 -5l-424 655v-626l71 -8v-16h-155v16l63 8v652l-63 8v16h244l317 -483v459l-70 8v16h154v-16l-62 -8v-681h-75z" />
    <glyph glyph-name="ncommaaccent" unicode="&#x146;" horiz-adv-x="596" 
d="M293 -135l-50 41v44h128v-78l-117 -114l-16 3zM33 0v16l53 8v414l-54 -9l-2 17l179 38h17v-104l176 109q39 0 59 -8t33 -21q9 -9 14.5 -18.5t8.5 -22.5t4 -31t1 -45v-319l58 -8v-16h-241v16l38 8v324q0 32 -11.5 46t-34.5 14t-39.5 -8t-38.5 -21l-27 -17v-338l38 -8v-16
h-231z" />
    <glyph glyph-name="Ncaron" unicode="&#x147;" horiz-adv-x="679" 
d="M383 830l128 75h22l-130 -139h-47l-129 139h22l127 -75h7zM532 -5l-424 655v-626l71 -8v-16h-155v16l63 8v652l-63 8v16h244l317 -483v459l-70 8v16h154v-16l-62 -8v-681h-75z" />
    <glyph glyph-name="ncaron" unicode="&#x148;" horiz-adv-x="596" 
d="M312 639l120 97h19l-121 -181h-42l-120 181h19l120 -97h5zM33 0v16l53 8v414l-54 -9l-2 17l179 38h17v-104l176 109q39 0 59 -8t33 -21q9 -9 14.5 -18.5t8.5 -22.5t4 -31t1 -45v-319l58 -8v-16h-241v16l38 8v324q0 32 -11.5 46t-34.5 14t-39.5 -8t-38.5 -21l-27 -17v-338
l38 -8v-16h-231z" />
    <glyph glyph-name="napostrophe" unicode="&#x149;" horiz-adv-x="596" 
d="M38 479l63 116l-41 -2l-26 5l-5 64l9 43l82 5l27 -5l5 -51l-9 -47l-93 -134zM33 0v16l53 8v414l-54 -9l-2 17l179 38h17v-104l176 109q39 0 59 -8t33 -21q9 -9 14.5 -18.5t8.5 -22.5t4 -31t1 -45v-319l58 -8v-16h-241v16l38 8v324q0 32 -11.5 46t-34.5 14t-39.5 -8
t-38.5 -21l-27 -17v-338l38 -8v-16h-231z" />
    <glyph glyph-name="Eng" unicode="&#x14a;" horiz-adv-x="679" 
d="M478 -235h-123v116h119l72 88l44 26h-58l-424 655v-626l71 -8v-16h-155v16l63 8v652l-63 8v16h244l317 -483v459l-70 8v16h154v-16l-62 -8v-681z" />
    <glyph glyph-name="eng" unicode="&#x14b;" horiz-adv-x="582" 
d="M269 -238v119h100l2 20q2 16 4 45.5t2 78.5v323q0 32 -11.5 46t-34.5 14t-39.5 -8t-38.5 -21l-27 -17v-338l38 -8v-16h-231v16l53 8v414l-54 -9l-2 17l179 38h17v-104l176 109q39 0 59 -8t33 -21q9 -9 14.5 -18.5t8.5 -22.5t4 -31t1 -45v-283q0 -33 -3.5 -57t-13 -44.5
t-26 -41t-43.5 -47.5l-98 -108h-69z" />
    <glyph glyph-name="Omacron" unicode="&#x14c;" horiz-adv-x="771" 
d="M234 847h292v-54h-292v54zM405 10q39 0 68 26t48 69.5t28.5 101t9.5 120.5q0 79 -14.5 146t-40 115t-61 75t-77.5 27q-39 0 -68.5 -26t-48.5 -69.5t-28.5 -101t-9.5 -120.5q0 -80 14.5 -146.5t40 -114.5t61.5 -75t78 -27zM374 -17q-77 0 -139.5 26t-107 72.5t-69 112
t-24.5 143.5q0 159 88 251t274 129q77 0 140 -26t107.5 -72.5t69 -112t24.5 -143.5q0 -159 -88 -251t-275 -129z" />
    <glyph glyph-name="omacron" unicode="&#x14d;" horiz-adv-x="544" 
d="M131 667h291v-54h-291v54zM260 461q-39 0 -60.5 -46.5t-21.5 -148.5q0 -125 30.5 -189.5t74.5 -64.5q39 0 60.5 47t21.5 147q0 129 -31 192t-74 63zM252 -15q-48 0 -88.5 17.5t-70.5 49t-47 75.5t-17 98q0 62 20.5 106t56 74.5t83 50.5t101.5 33q48 0 89 -17.5t71 -49
t47 -75.5t17 -97q0 -62 -20.5 -106.5t-56 -75.5t-83 -50.5t-102.5 -32.5z" />
    <glyph glyph-name="Obreve" unicode="&#x14e;" horiz-adv-x="771" 
d="M385 827q26 0 46 7t36 16.5t27.5 21t19.5 20.5l12 -10q-8 -18 -17.5 -33.5t-24 -30.5t-35.5 -29.5t-51 -28.5q-31 0 -56 10.5t-45 28t-34 39t-23 44.5l13 10q7 -9 19 -20.5t28.5 -21.5t37.5 -16.5t47 -6.5zM405 10q39 0 68 26t48 69.5t28.5 101t9.5 120.5q0 79 -14.5 146
t-40 115t-61 75t-77.5 27q-39 0 -68.5 -26t-48.5 -69.5t-28.5 -101t-9.5 -120.5q0 -80 14.5 -146.5t40 -114.5t61.5 -75t78 -27zM374 -17q-77 0 -139.5 26t-107 72.5t-69 112t-24.5 143.5q0 159 88 251t274 129q77 0 140 -26t107.5 -72.5t69 -112t24.5 -143.5
q0 -159 -88 -251t-275 -129z" />
    <glyph glyph-name="obreve" unicode="&#x14f;" horiz-adv-x="544" 
d="M273 628q26 0 46 7t36 17t27.5 21.5t19.5 20.5l12 -10q-8 -18 -17.5 -34t-24 -31t-35.5 -29t-51 -29q-31 0 -56 10.5t-45 28t-34 39.5t-23 45l13 9q7 -9 19 -20.5t28.5 -21t37.5 -16.5t47 -7zM260 461q-39 0 -60.5 -46.5t-21.5 -148.5q0 -125 30.5 -189.5t74.5 -64.5
q39 0 60.5 47t21.5 147q0 129 -31 192t-74 63zM252 -15q-48 0 -88.5 17.5t-70.5 49t-47 75.5t-17 98q0 62 20.5 106t56 74.5t83 50.5t101.5 33q48 0 89 -17.5t71 -49t47 -75.5t17 -97q0 -62 -20.5 -106.5t-56 -75.5t-83 -50.5t-102.5 -32.5z" />
    <glyph glyph-name="Ohungarumlaut" unicode="&#x150;" horiz-adv-x="771" 
d="M515 905h130l-162 -136h-22zM341 905h129l-162 -136h-22zM405 10q39 0 68 26t48 69.5t28.5 101t9.5 120.5q0 79 -14.5 146t-40 115t-61 75t-77.5 27q-39 0 -68.5 -26t-48.5 -69.5t-28.5 -101t-9.5 -120.5q0 -80 14.5 -146.5t40 -114.5t61.5 -75t78 -27zM374 -17
q-77 0 -139.5 26t-107 72.5t-69 112t-24.5 143.5q0 159 88 251t274 129q77 0 140 -26t107.5 -72.5t69 -112t24.5 -143.5q0 -159 -88 -251t-275 -129z" />
    <glyph glyph-name="ohungarumlaut" unicode="&#x151;" horiz-adv-x="544" 
d="M385 726h126l-153 -170h-22zM215 726h127l-153 -170h-22zM260 461q-39 0 -60.5 -46.5t-21.5 -148.5q0 -125 30.5 -189.5t74.5 -64.5q39 0 60.5 47t21.5 147q0 129 -31 192t-74 63zM252 -15q-48 0 -88.5 17.5t-70.5 49t-47 75.5t-17 98q0 62 20.5 106t56 74.5t83 50.5
t101.5 33q48 0 89 -17.5t71 -49t47 -75.5t17 -97q0 -62 -20.5 -106.5t-56 -75.5t-83 -50.5t-102.5 -32.5z" />
    <glyph glyph-name="OE" unicode="&#x152;" horiz-adv-x="987" 
d="M485 24v652l-106 14q-42 0 -73.5 -26t-52.5 -70t-31.5 -102t-10.5 -122q0 -80 14.5 -146t41 -113t62.5 -73.5t79 -26.5zM388 -15q-80 0 -145 25.5t-111.5 72t-72 111.5t-25.5 143q0 159 91 250t282 128l139 -15h412v-190h-16l-76 171h-225v-305h112l49 125h16v-267h-16
l-49 124h-112v-339h229l72 178h16v-197h-470z" />
    <glyph glyph-name="oe" unicode="&#x153;" horiz-adv-x="842" 
d="M260 461q-39 0 -61 -46.5t-22 -148.5q0 -125 30 -189.5t74 -64.5q40 0 62 47t22 147q0 129 -31 192t-74 63zM593 459q-38 0 -59.5 -39.5t-23.5 -112.5q0 -5 0.5 -10t0.5 -10h152q0 86 -13.5 129t-56.5 43zM810 117q-47 -47 -89 -76.5t-98 -55.5q-57 0 -106.5 22.5
t-81.5 67.5q-33 -34 -79.5 -55.5t-103.5 -34.5q-48 0 -88.5 17.5t-70.5 49t-47 75.5t-17 98q0 62 20.5 106t56 74.5t83 50.5t101.5 33q57 0 101.5 -24t73.5 -67q30 36 72.5 58.5t90.5 32.5q38 0 71 -11.5t58 -34t39 -56t14 -78.5v-38h-296q-1 -5 -1 -12q4 -41 19.5 -72
t38.5 -51.5t52 -31t61 -10.5q34 0 61 9t56 26z" />
    <glyph glyph-name="Racute" unicode="&#x154;" horiz-adv-x="667" 
d="M349 905h122l-146 -136h-22zM242 331v-307l58 -8v-16h-276v16l63 8v652l-63 8v16h350q40 0 77 -9.5t65.5 -30.5t45.5 -53.5t17 -78.5q0 -89 -75 -136.5t-204 -58.5l170 -34l151 -275l41 -8v-16h-201l-171 331h-48zM242 350h37q65 0 99 46t34 123q0 75 -31.5 119.5
t-78.5 45.5l-60 -8v-326z" />
    <glyph glyph-name="racute" unicode="&#x155;" horiz-adv-x="404" 
d="M241 732h116l-142 -176h-22zM33 0v16l53 8v416l-54 -10l-2 16l171 38h16l8 -167l85 167h79v-141h-130l-33 -49v-269l83 -9v-16h-276z" />
    <glyph glyph-name="Rcommaaccent" unicode="&#x156;" horiz-adv-x="667" 
d="M343 -135l-49 41v44h127v-78l-117 -114l-16 3zM242 331v-307l58 -8v-16h-276v16l63 8v652l-63 8v16h350q40 0 77 -9.5t65.5 -30.5t45.5 -53.5t17 -78.5q0 -89 -75 -136.5t-204 -58.5l170 -34l151 -275l41 -8v-16h-201l-171 331h-48zM242 350h37q65 0 99 46t34 123
q0 75 -31.5 119.5t-78.5 45.5l-60 -8v-326z" />
    <glyph glyph-name="rcommaaccent" unicode="&#x157;" horiz-adv-x="404" 
d="M144 -135l-50 41v44h128v-78l-117 -114l-16 3zM33 0v16l53 8v416l-54 -10l-2 16l171 38h16l8 -167l85 167h79v-141h-130l-33 -49v-269l83 -9v-16h-276z" />
    <glyph glyph-name="Rcaron" unicode="&#x158;" horiz-adv-x="667" 
d="M314 830l128 75h22l-129 -139h-48l-129 139h22l128 -75h6zM242 331v-307l58 -8v-16h-276v16l63 8v652l-63 8v16h350q40 0 77 -9.5t65.5 -30.5t45.5 -53.5t17 -78.5q0 -89 -75 -136.5t-204 -58.5l170 -34l151 -275l41 -8v-16h-201l-171 331h-48zM242 350h37q65 0 99 46
t34 123q0 75 -31.5 119.5t-78.5 45.5l-60 -8v-326z" />
    <glyph glyph-name="rcaron" unicode="&#x159;" horiz-adv-x="406" 
d="M237 639l120 97h19l-121 -181h-42l-121 181h19l120 -97h6zM33 0v16l53 8v416l-54 -10l-2 16l171 38h16l8 -167l85 167h79v-141h-130l-33 -49v-269l83 -9v-16h-276z" />
    <glyph glyph-name="Sacute" unicode="&#x15a;" horiz-adv-x="542" 
d="M320 905h121l-145 -136h-22zM108 101q30 -35 67.5 -61.5t86.5 -26.5q55 0 88.5 30.5t33.5 81.5q0 41 -22 72.5t-75 64.5l-133 88q-25 17 -45.5 33.5t-35.5 36t-23.5 43.5t-8.5 55q0 35 12.5 66t41.5 56.5t75.5 45t112.5 31.5q31 0 55.5 -2t47 -6t45.5 -11t50 -17v-182
h-17l-64 145q-23 24 -51 37.5t-63 13.5q-50 0 -82 -27t-32 -76q0 -41 24.5 -68.5t66.5 -53.5l130 -86q60 -38 87.5 -78.5t27.5 -100.5q0 -38 -14 -71.5t-44.5 -61.5t-80 -50.5t-121.5 -38.5q-62 0 -110.5 14.5t-99.5 46.5v186h16z" />
    <glyph glyph-name="sacute" unicode="&#x15b;" horiz-adv-x="409" 
d="M232 732h117l-143 -176h-22zM277 437q-20 19 -36.5 25t-39.5 6q-26 0 -43.5 -15t-17.5 -40q0 -26 17.5 -44t54.5 -42l98 -65q41 -26 58 -53t16 -65q0 -53 -42 -96t-135 -65q-51 0 -97.5 11.5t-77.5 26.5v149h17l61 -118q23 -21 43.5 -33t49.5 -12q35 0 54 17.5t19 40.5
q0 15 -4 25.5t-13 20.5t-22.5 20t-32.5 22l-97 65q-15 10 -29.5 21.5t-25 26t-17 32.5t-6.5 41q0 52 43.5 91t131.5 59q55 0 89.5 -8.5t69.5 -24.5v-139h-16z" />
    <glyph glyph-name="Scircumflex" unicode="&#x15c;" horiz-adv-x="542" 
d="M151 769h-22l129 140h47l130 -140h-22l-128 76h-7zM108 101q30 -35 67.5 -61.5t86.5 -26.5q55 0 88.5 30.5t33.5 81.5q0 41 -22 72.5t-75 64.5l-133 88q-25 17 -45.5 33.5t-35.5 36t-23.5 43.5t-8.5 55q0 35 12.5 66t41.5 56.5t75.5 45t112.5 31.5q31 0 55.5 -2t47 -6
t45.5 -11t50 -17v-182h-17l-64 145q-23 24 -51 37.5t-63 13.5q-50 0 -82 -27t-32 -76q0 -41 24.5 -68.5t66.5 -53.5l130 -86q60 -38 87.5 -78.5t27.5 -100.5q0 -38 -14 -71.5t-44.5 -61.5t-80 -50.5t-121.5 -38.5q-62 0 -110.5 14.5t-99.5 46.5v186h16z" />
    <glyph glyph-name="scircumflex" unicode="&#x15d;" horiz-adv-x="409" 
d="M98 556h-19l121 181h41l122 -181h-20l-120 98h-5zM277 437q-20 19 -36.5 25t-39.5 6q-26 0 -43.5 -15t-17.5 -40q0 -26 17.5 -44t54.5 -42l98 -65q41 -26 58 -53t16 -65q0 -53 -42 -96t-135 -65q-51 0 -97.5 11.5t-77.5 26.5v149h17l61 -118q23 -21 43.5 -33t49.5 -12
q35 0 54 17.5t19 40.5q0 15 -4 25.5t-13 20.5t-22.5 20t-32.5 22l-97 65q-15 10 -29.5 21.5t-25 26t-17 32.5t-6.5 41q0 52 43.5 91t131.5 59q55 0 89.5 -8.5t69.5 -24.5v-139h-16z" />
    <glyph glyph-name="Scedilla" unicode="&#x15e;" horiz-adv-x="542" 
d="M108 101q30 -35 67.5 -61.5t86.5 -26.5q55 0 88.5 30.5t33.5 81.5q0 41 -22 72.5t-75 64.5l-133 88q-25 17 -45.5 33.5t-35.5 36t-23.5 43.5t-8.5 55q0 35 12.5 66t41.5 56.5t75.5 45t112.5 31.5q31 0 55.5 -2t47 -6t45.5 -11t50 -17v-182h-17l-64 145q-23 24 -51 37.5
t-63 13.5q-50 0 -82 -27t-32 -76q0 -41 24.5 -68.5t66.5 -53.5l130 -86q60 -38 87.5 -78.5t27.5 -100.5q0 -38 -14 -71.5t-44.5 -61.5t-80 -50t-120.5 -38l-15 -27q42 -5 63 -27t21 -50q0 -20 -10 -34.5t-25.5 -25t-34.5 -19t-37 -15.5l-78 -32h-28l32 50h84q23 21 23 53
q0 30 -17 40.5t-40 13.5l46 72q-56 1 -101.5 16t-93.5 45v186h16z" />
    <glyph glyph-name="scedilla" unicode="&#x15f;" horiz-adv-x="409" 
d="M277 437q-20 19 -36.5 25t-39.5 6q-26 0 -43.5 -15t-17.5 -40q0 -26 17.5 -44t54.5 -42l98 -65q41 -26 58 -53t16 -65q0 -53 -40 -94.5t-129 -64.5l-16 -28q42 -5 63 -27t21 -50q0 -20 -10 -34.5t-25.5 -25t-34 -19t-36.5 -15.5l-79 -32h-28l33 50h83q23 21 23 53
q0 30 -17 40.5t-40 13.5l46 72q-48 2 -92.5 13t-73.5 25v149h17l61 -118q23 -21 43.5 -33t49.5 -12q35 0 54 17.5t19 40.5q0 15 -4 25.5t-13 20.5t-22.5 20t-32.5 22l-97 65q-15 10 -29.5 21.5t-25 26t-17 32.5t-6.5 41q0 52 43.5 91t131.5 59q55 0 89.5 -8.5t69.5 -24.5
v-139h-16z" />
    <glyph glyph-name="Scaron" unicode="&#x160;" horiz-adv-x="542" 
d="M285 830l128 75h22l-130 -139h-47l-129 139h22l127 -75h7zM108 101q30 -35 67.5 -61.5t86.5 -26.5q55 0 88.5 30.5t33.5 81.5q0 41 -22 72.5t-75 64.5l-133 88q-25 17 -45.5 33.5t-35.5 36t-23.5 43.5t-8.5 55q0 35 12.5 66t41.5 56.5t75.5 45t112.5 31.5q31 0 55.5 -2
t47 -6t45.5 -11t50 -17v-182h-17l-64 145q-23 24 -51 37.5t-63 13.5q-50 0 -82 -27t-32 -76q0 -41 24.5 -68.5t66.5 -53.5l130 -86q60 -38 87.5 -78.5t27.5 -100.5q0 -38 -14 -71.5t-44.5 -61.5t-80 -50.5t-121.5 -38.5q-62 0 -110.5 14.5t-99.5 46.5v186h16z" />
    <glyph glyph-name="scaron" unicode="&#x161;" horiz-adv-x="409" 
d="M222 639l120 97h19l-121 -181h-42l-121 181h20l119 -97h6zM277 437q-20 19 -36.5 25t-39.5 6q-26 0 -43.5 -15t-17.5 -40q0 -26 17.5 -44t54.5 -42l98 -65q41 -26 58 -53t16 -65q0 -53 -42 -96t-135 -65q-51 0 -97.5 11.5t-77.5 26.5v149h17l61 -118q23 -21 43.5 -33
t49.5 -12q35 0 54 17.5t19 40.5q0 15 -4 25.5t-13 20.5t-22.5 20t-32.5 22l-97 65q-15 10 -29.5 21.5t-25 26t-17 32.5t-6.5 41q0 52 43.5 91t131.5 59q55 0 89.5 -8.5t69.5 -24.5v-139h-16z" />
    <glyph glyph-name="Tcommaaccent" unicode="&#x162;" horiz-adv-x="581" 
d="M280 -135l-49 41v44h127v-78l-117 -114l-16 3zM453 0h-326v16l86 8v657h-100l-87 -187h-16v206h561v-206h-17l-86 187h-100v-657l85 -8v-16z" />
    <glyph glyph-name="tcommaaccent" unicode="&#x163;" horiz-adv-x="358" 
d="M169 -135l-49 41v44h127v-78l-117 -114l-16 3zM5 446v16h66v68l140 76v-144h127v-16h-127v-322q0 -31 15.5 -45.5t39.5 -14.5q23 0 40 5t39 16l7 -14l-167 -86q-61 0 -87.5 35t-26.5 95v331h-66z" />
    <glyph glyph-name="Tcaron" unicode="&#x164;" horiz-adv-x="581" 
d="M294 830l128 75h22l-130 -139h-47l-130 139h22l128 -75h7zM453 0h-326v16l86 8v657h-100l-87 -187h-16v206h561v-206h-17l-86 187h-100v-657l85 -8v-16z" />
    <glyph glyph-name="tcaron" unicode="&#x165;" horiz-adv-x="457" 
d="M352 473l60 123l-45 -2l-27 6l-5 57l9 46l74 5l28 -5l6 -54l-9 -49l-81 -131zM5 446v16h66v68l140 76v-144h127v-16h-127v-322q0 -31 15.5 -45.5t39.5 -14.5q23 0 40 5t39 16l7 -14l-167 -86q-61 0 -87.5 35t-26.5 95v331h-66z" />
    <glyph glyph-name="Tbar" unicode="&#x166;" horiz-adv-x="581" 
d="M453 0h-326v16l86 8v400h-88v13h88v244h-100l-87 -187h-16v206h561v-206h-17l-86 187h-100v-244h88v-13h-88v-400l85 -8v-16z" />
    <glyph glyph-name="tbar" unicode="&#x167;" horiz-adv-x="358" 
d="M5 446v16h66v68l140 76v-144h127v-16h-127v-131h96v-14h-96v-177q0 -31 15.5 -45.5t39.5 -14.5q23 0 40 5t39 16l7 -14l-167 -86q-61 0 -87.5 35t-26.5 95v186h-66v14h66v131h-66z" />
    <glyph glyph-name="Utilde" unicode="&#x168;" horiz-adv-x="661" 
d="M250 885l46 15l213 -71l40 72h13l-32 -127l-47 -14l-214 73l-38 -75h-14zM494 684v16h157v-16l-63 -8v-443q0 -44 -9.5 -83.5t-35.5 -72t-72 -56.5t-118 -38q-72 0 -124.5 18.5t-87.5 52t-52 81t-17 105.5v436l-62 8v16h280v-16l-62 -8v-445q0 -42 11.5 -78t33.5 -62
t53.5 -41t71.5 -15q36 0 65.5 15t51 41t33 62t11.5 78v445z" />
    <glyph glyph-name="utilde" unicode="&#x169;" horiz-adv-x="573" 
d="M146 697l46 15l213 -71l39 73h14l-33 -128l-46 -14l-214 73l-39 -74h-13zM551 28l-175 -35l-19 97l-168 -105q-35 0 -58 8.5t-36 20.5q-17 17 -23.5 41.5t-6.5 77.5v305l-52 -5v16l181 33h17v-352q0 -64 49 -64q18 0 33 7t34 18l27 16v331l-51 -5l-1 16l177 33h15v-348
q0 -29 3 -49.5t9 -43.5l43 3z" />
    <glyph glyph-name="Umacron" unicode="&#x16a;" horiz-adv-x="661" 
d="M245 847h291v-54h-291v54zM494 684v16h157v-16l-63 -8v-443q0 -44 -9.5 -83.5t-35.5 -72t-72 -56.5t-118 -38q-72 0 -124.5 18.5t-87.5 52t-52 81t-17 105.5v436l-62 8v16h280v-16l-62 -8v-445q0 -42 11.5 -78t33.5 -62t53.5 -41t71.5 -15q36 0 65.5 15t51 41t33 62
t11.5 78v445z" />
    <glyph glyph-name="umacron" unicode="&#x16b;" horiz-adv-x="573" 
d="M140 667h291v-54h-291v54zM551 28l-175 -35l-19 97l-168 -105q-35 0 -58 8.5t-36 20.5q-17 17 -23.5 41.5t-6.5 77.5v305l-52 -5v16l181 33h17v-352q0 -64 49 -64q18 0 33 7t34 18l27 16v331l-51 -5l-1 16l177 33h15v-348q0 -29 3 -49.5t9 -43.5l43 3z" />
    <glyph glyph-name="Ubreve" unicode="&#x16c;" horiz-adv-x="661" 
d="M390 827q26 0 46 7t36 16.5t27.5 21t19.5 20.5l12 -10q-8 -18 -17.5 -33.5t-24 -30.5t-35.5 -29.5t-51 -28.5q-31 0 -56 10.5t-45 28t-34 39t-23 44.5l13 10q7 -9 19 -20.5t28.5 -21.5t37.5 -16.5t47 -6.5zM494 684v16h157v-16l-63 -8v-443q0 -44 -9.5 -83.5t-35.5 -72
t-72 -56.5t-118 -38q-72 0 -124.5 18.5t-87.5 52t-52 81t-17 105.5v436l-62 8v16h280v-16l-62 -8v-445q0 -42 11.5 -78t33.5 -62t53.5 -41t71.5 -15q36 0 65.5 15t51 41t33 62t11.5 78v445z" />
    <glyph glyph-name="ubreve" unicode="&#x16d;" horiz-adv-x="573" 
d="M289 628q26 0 46.5 7t36 17t27 21.5t19.5 20.5l13 -10q-8 -18 -17.5 -34t-24 -31t-35.5 -29t-51 -29q-31 0 -56 10.5t-45 28t-34 39.5t-23 45l12 9q7 -9 19 -20.5t28.5 -21t37.5 -16.5t47 -7zM551 28l-175 -35l-19 97l-168 -105q-35 0 -58 8.5t-36 20.5
q-17 17 -23.5 41.5t-6.5 77.5v305l-52 -5v16l181 33h17v-352q0 -64 49 -64q18 0 33 7t34 18l27 16v331l-51 -5l-1 16l177 33h15v-348q0 -29 3 -49.5t9 -43.5l43 3z" />
    <glyph glyph-name="Uring" unicode="&#x16e;" horiz-adv-x="661" 
d="M317 839q0 -34 21.5 -55t54.5 -21t55 21t22 55t-22 55.5t-55 21.5t-54.5 -21.5t-21.5 -55.5zM506 840q0 -24 -9 -41t-24 -29t-35.5 -20t-42.5 -15q-21 0 -41.5 5.5t-36.5 17.5t-26 31.5t-10 48.5q0 24 9.5 40.5t25 28.5t35.5 20.5t42 15.5q22 0 42.5 -5t36.5 -17t25 -32
t9 -49zM494 684v16h157v-16l-63 -8v-443q0 -44 -9.5 -83.5t-35.5 -72t-72 -56.5t-118 -38q-72 0 -124.5 18.5t-87.5 52t-52 81t-17 105.5v436l-62 8v16h280v-16l-62 -8v-445q0 -42 11.5 -78t33.5 -62t53.5 -41t71.5 -15q36 0 65.5 15t51 41t33 62t11.5 78v445z" />
    <glyph glyph-name="uring" unicode="&#x16f;" horiz-adv-x="573" 
d="M205 649q0 -34 21.5 -55t54.5 -21t54.5 21t21.5 55t-21.5 55.5t-54.5 21.5t-54.5 -21.5t-21.5 -55.5zM393 650q0 -24 -9 -41t-24 -29t-35.5 -20t-42.5 -15q-21 0 -41.5 5.5t-36.5 17.5t-26 31.5t-10 48.5q0 24 9.5 40.5t25 28.5t36 20.5t42.5 15.5q22 0 42.5 -5t36 -17
t24.5 -32t9 -49zM551 28l-175 -35l-19 97l-168 -105q-35 0 -58 8.5t-36 20.5q-17 17 -23.5 41.5t-6.5 77.5v305l-52 -5v16l181 33h17v-352q0 -64 49 -64q18 0 33 7t34 18l27 16v331l-51 -5l-1 16l177 33h15v-348q0 -29 3 -49.5t9 -43.5l43 3z" />
    <glyph glyph-name="Uhungarumlaut" unicode="&#x170;" horiz-adv-x="661" 
d="M490 905h129l-162 -136h-22zM315 905h129l-161 -136h-22zM494 684v16h157v-16l-63 -8v-443q0 -44 -9.5 -83.5t-35.5 -72t-72 -56.5t-118 -38q-72 0 -124.5 18.5t-87.5 52t-52 81t-17 105.5v436l-62 8v16h280v-16l-62 -8v-445q0 -42 11.5 -78t33.5 -62t53.5 -41t71.5 -15
q36 0 65.5 15t51 41t33 62t11.5 78v445z" />
    <glyph glyph-name="uhungarumlaut" unicode="&#x171;" horiz-adv-x="573" 
d="M384 726h127l-153 -170h-23zM215 726h126l-153 -170h-22zM551 28l-175 -35l-19 97l-168 -105q-35 0 -58 8.5t-36 20.5q-17 17 -23.5 41.5t-6.5 77.5v305l-52 -5v16l181 33h17v-352q0 -64 49 -64q18 0 33 7t34 18l27 16v331l-51 -5l-1 16l177 33h15v-348q0 -29 3 -49.5
t9 -43.5l43 3z" />
    <glyph glyph-name="Uogonek" unicode="&#x172;" horiz-adv-x="661" 
d="M494 684v16h157v-16l-63 -8v-443q0 -32 -4.5 -61t-16 -54.5t-31.5 -48t-51 -40.5l-74 -138v-47q0 -33 23.5 -54.5t86.5 -21.5v-14q-105 0 -148 25.5t-43 75.5v46l125 112q-42 -18 -102 -30q-72 0 -124.5 18.5t-87.5 52t-52 81t-17 105.5v436l-62 8v16h280v-16l-62 -8
v-445q0 -42 11.5 -78t33.5 -62t53.5 -41t71.5 -15q36 0 65.5 15t51 41t33 62t11.5 78v445z" />
    <glyph glyph-name="uogonek" unicode="&#x173;" horiz-adv-x="573" 
d="M477 -246q-105 0 -148 25.5t-43 75.5v57l90 81l-19 97l-168 -105q-35 0 -58 8.5t-36 20.5q-17 17 -23.5 41.5t-6.5 77.5v305l-52 -5v16l181 33h17v-352q0 -64 49 -64q18 0 33 7t34 18l27 16v331l-51 -5l-1 16l177 33h15v-348q0 -29 3 -49.5t9 -43.5l43 3l2 -16l-135 -27
l-49 -110v-47q0 -33 24 -54.5t86 -21.5v-14v0z" />
    <glyph glyph-name="Wcircumflex" unicode="&#x174;" horiz-adv-x="1038" 
d="M286 -11l-225 687l-51 8v16h294v-16l-72 -8l165 -537l101 363l-56 174l-51 8v16h294v-16l-72 -8l165 -537l163 537l-78 8v16h165v-16l-60 -8l-204 -665l-98 -22l-155 474l-127 -452zM400 769h-22l129 140h48l130 -140h-22l-129 76h-6z" />
    <glyph glyph-name="wcircumflex" unicode="&#x175;" horiz-adv-x="844" 
d="M768 450l-58 8v16h129v-16l-44 -8l-131 -432l-133 -36l-110 338l-91 -302l-133 -36l-153 468l-39 8v16h242v-16l-51 -8l121 -382l90 295l-28 87l-40 8v16h242v-16l-51 -8l121 -382zM319 556h-20l121 181h42l121 -181h-19l-120 98h-6z" />
    <glyph glyph-name="Ycircumflex" unicode="&#x176;" horiz-adv-x="700" 
d="M283 769h-22l130 140h47l130 -140h-22l-128 76h-7zM185 0v16l96 8v248l-213 404l-63 8v16h322v-16l-78 -8l180 -362l180 362l-85 8v16h171v-16l-64 -8l-194 -394v-258l96 -8v-16h-348z" />
    <glyph glyph-name="ycircumflex" unicode="&#x177;" horiz-adv-x="547" 
d="M222 -110l108 168l-126 -48l-159 440l-40 8v16h250v-16l-52 -8l133 -376l132 376l-58 8v16h132v-16l-47 -8l-142 -404l-133 -281h-140v125h142zM188 556h-19l121 181h42l121 -181h-19l-121 98h-5z" />
    <glyph glyph-name="Ydieresis" unicode="&#x178;" horiz-adv-x="700" 
d="M253 882l69 5l28 -5l7 -55l-11 -48l-69 -6l-29 6l-6 57zM481 882l69 5l28 -5l7 -55l-11 -48l-69 -6l-29 6l-6 57zM185 0v16l96 8v248l-213 404l-63 8v16h322v-16l-78 -8l180 -362l180 362l-85 8v16h171v-16l-64 -8l-194 -394v-258l96 -8v-16h-348z" />
    <glyph glyph-name="Zacute" unicode="&#x179;" horiz-adv-x="589" 
d="M327 905h122l-146 -136h-22zM535 209h14v-209h-535v11l374 670h-236l-93 -186h-16v205h528v-11l-373 -670h235z" />
    <glyph glyph-name="zacute" unicode="&#x17a;" horiz-adv-x="492" 
d="M269 732h116l-142 -176h-22zM29 0v13l275 447h-142l-88 -161h-17v175h410v-13l-268 -447h156l85 171h17v-185h-428z" />
    <glyph glyph-name="Zdotaccent" unicode="&#x17b;" horiz-adv-x="589" 
d="M257 898l85 5l30 -5l6 -60l-12 -52l-85 -6l-29 6l-6 61zM535 209h14v-209h-535v11l374 670h-236l-93 -186h-16v205h528v-11l-373 -670h235z" />
    <glyph glyph-name="zdotaccent" unicode="&#x17c;" horiz-adv-x="492" 
d="M201 711l85 5l29 -5l7 -60l-12 -52l-85 -6l-30 6l-5 61zM29 0v13l275 447h-142l-88 -161h-17v175h410v-13l-268 -447h156l85 171h17v-185h-428z" />
    <glyph glyph-name="Zcaron" unicode="&#x17d;" horiz-adv-x="589" 
d="M312 830l128 75h22l-130 -139h-47l-130 139h22l128 -75h7zM535 209h14v-209h-535v11l374 670h-236l-93 -186h-16v205h528v-11l-373 -670h235z" />
    <glyph glyph-name="zcaron" unicode="&#x17e;" horiz-adv-x="492" 
d="M263 639l121 97h19l-121 -181h-42l-121 181h19l120 -97h5zM29 0v13l275 447h-142l-88 -161h-17v175h410v-13l-268 -447h156l85 171h17v-185h-428z" />
    <glyph glyph-name="longs" unicode="&#x17f;" horiz-adv-x="351" 
d="M224 24l89 -8v-16h-288v16l59 8v422h-59v16h59v9q0 45 17 77t49 59l118 103h108v-97h-141l-4 -14q-5 -17 -6 -39t-1 -67v-469z" />
    <glyph glyph-name="florin" unicode="&#x192;" horiz-adv-x="367" 
d="M65 -235h-85v97h119l3 14q5 17 6.5 39t1.5 67v464h-59v16h59v9q0 45 17.5 77t48.5 59l119 103h97v-97h-131l-3 -14q-5 -17 -6.5 -39t-1.5 -67v-31h112v-16h-112v-442q0 -45 -17.5 -77t-48.5 -59z" />
    <glyph glyph-name="Aringacute" unicode="&#x1fa;" horiz-adv-x="703" 
d="M641 24l57 -8v-16h-306v16l77 8l-70 221h-233l-76 -221l79 -8v-16h-164v16l58 8l227 645l119 47zM350 735q-20 0 -40 5t-35.5 17t-25 31t-9.5 46q0 22 9 38.5t24 28t34.5 19.5t40.5 15l38 55h93l-99 -59q32 -6 54.5 -28t22.5 -67q0 -23 -8.5 -39t-23 -28t-34 -20
t-41.5 -14zM173 266h219l-105 332zM277 835q0 -32 20 -52t51 -20q32 0 52.5 20t20.5 52t-20.5 52.5t-52.5 20.5q-31 0 -51 -20.5t-20 -52.5z" />
    <glyph glyph-name="aringacute" unicode="&#x1fb;" horiz-adv-x="515" 
d="M173 649q0 -34 21.5 -55t54.5 -21t55 21t22 55t-22 55.5t-55 21.5t-54.5 -21.5t-21.5 -55.5zM251 545q-21 0 -41.5 5.5t-36.5 17.5t-26 31.5t-10 48.5q0 24 9.5 40.5t25 28.5t35.5 20.5t42 15.5l29 43h105l-95 -47q32 -8 53 -31t21 -68q0 -24 -9 -41t-24 -29t-35.5 -20
t-42.5 -15zM255 489q36 0 61 -2t43.5 -6.5t31.5 -11.5t24 -17q34 -31 34 -111v-216q0 -22 3.5 -44t9.5 -43l46 5l2 -16l-179 -36l-24 82l-137 -88q-30 0 -56 7.5t-45.5 23t-30.5 39t-11 54.5q0 29 11.5 58t43.5 52l221 66v90q0 19 -1.5 34.5t-7.5 26t-18.5 16t-34.5 5.5
q-12 0 -20.5 -1.5t-23.5 -6.5l-20 -132h-131v90zM303 269l-87 -33q-19 -16 -29 -38.5t-10 -54.5q0 -39 15.5 -62t40.5 -23q15 0 30 7t24 14l16 11v179z" />
    <glyph glyph-name="AEacute" unicode="&#x1fc;" horiz-adv-x="984" 
d="M592 905h122l-146 -136h-22zM485 656l-191 -309h191v309zM172 0h-167v16l58 8l426 676h466v-190h-16l-76 171h-222v-334h109l49 124h16v-267h-16l-49 124h-109v-309h226l72 178h16v-197h-532v16l62 8v304h-202l-189 -304l78 -8v-16z" />
    <glyph glyph-name="aeacute" unicode="&#x1fd;" horiz-adv-x="755" 
d="M411 732h117l-142 -176h-22zM723 116q-24 -24 -46 -42.5t-44.5 -34t-47 -28.5t-52.5 -26q-65 0 -118.5 27.5t-83.5 81.5l-161 -109q-30 0 -56 7.5t-45.5 23t-30.5 39t-11 54.5q0 29 11.5 58t43.5 52l218 66v90q0 18 -1.5 33.5t-7 26t-17 16.5t-31.5 6q-15 0 -23 -1.5
t-22 -6.5l-20 -132h-131v90l207 82q39 0 66 -2.5t46 -9t31.5 -17.5t20.5 -28q27 23 60 36t69 21q36 0 68 -11.5t55.5 -34t37.5 -56t14 -78.5v-41h-289v-11q4 -42 18.5 -72.5t36.5 -51t49 -30t57 -9.5q35 0 62.5 9t56.5 26zM510 459q-39 0 -58.5 -40t-21.5 -114v-10t1 -10
h144q0 87 -12 130.5t-53 43.5zM300 267l-84 -31q-19 -16 -29 -38.5t-10 -54.5q0 -39 15.5 -62t40.5 -23q15 0 28.5 6.5t22.5 13.5l16 11v178z" />
    <glyph glyph-name="Oslashacute" unicode="&#x1fe;" horiz-adv-x="771" 
d="M374 -17q-63 0 -115 17t-94 48l-52 -63h-32l64 78q-54 48 -82.5 117.5t-28.5 156.5q0 159 88 251t274 129q68 0 124.5 -20t99.5 -57l62 75h30l-74 -91q48 -47 73.5 -113.5t25.5 -147.5q0 -159 -88 -251t-275 -129zM211 373q0 -57 7 -106t20 -91l291 353q-25 75 -67 118
t-96 43q-39 0 -68.5 -26t-48.5 -69.5t-28.5 -101t-9.5 -120.5zM405 10q39 0 68 26t48 69.5t28.5 101t9.5 120.5q0 49 -5.5 93t-15.5 82l-290 -353q26 -66 66 -102.5t91 -36.5zM412 905h121l-145 -136h-22z" />
    <glyph glyph-name="oslashacute" unicode="&#x1ff;" horiz-adv-x="544" 
d="M252 -15q-43 0 -80 13.5t-66 39.5l-42 -48h-22l53 59q-31 32 -48.5 76.5t-17.5 99.5q0 62 20.5 106t56 74.5t83 50.5t101.5 33q43 0 80 -13.5t66 -39.5l45 50h20l-53 -61q31 -32 48.5 -76.5t17.5 -98.5q0 -62 -20.5 -106.5t-56 -75.5t-83 -50.5t-102.5 -32.5zM365 206
q0 33 -2.5 62t-6.5 53l-166 -187q14 -60 38.5 -91t54.5 -31q39 0 60.5 47t21.5 147zM260 461q-39 0 -60.5 -46.5t-21.5 -148.5q0 -64 9 -113l165 187q-14 61 -38.5 91t-53.5 30zM288 732h117l-143 -176h-22z" />
    <glyph glyph-name="Scommaaccent" unicode="&#x218;" horiz-adv-x="542" 
d="M268 -135l-50 41v44h127v-78l-116 -114l-16 3zM108 101q30 -35 67.5 -61.5t86.5 -26.5q55 0 88.5 30.5t33.5 81.5q0 41 -22 72.5t-75 64.5l-133 88q-25 17 -45.5 33.5t-35.5 36t-23.5 43.5t-8.5 55q0 35 12.5 66t41.5 56.5t75.5 45t112.5 31.5q31 0 55.5 -2t47 -6
t45.5 -11t50 -17v-182h-17l-64 145q-23 24 -51 37.5t-63 13.5q-50 0 -82 -27t-32 -76q0 -41 24.5 -68.5t66.5 -53.5l130 -86q60 -38 87.5 -78.5t27.5 -100.5q0 -38 -14 -71.5t-44.5 -61.5t-80 -50.5t-121.5 -38.5q-62 0 -110.5 14.5t-99.5 46.5v186h16z" />
    <glyph glyph-name="scommaaccent" unicode="&#x219;" horiz-adv-x="409" 
d="M201 -135l-49 41v44h127v-78l-117 -114l-16 3zM277 437q-20 19 -36.5 25t-39.5 6q-26 0 -43.5 -15t-17.5 -40q0 -26 17.5 -44t54.5 -42l98 -65q41 -26 58 -53t16 -65q0 -53 -42 -96t-135 -65q-51 0 -97.5 11.5t-77.5 26.5v149h17l61 -118q23 -21 43.5 -33t49.5 -12
q35 0 54 17.5t19 40.5q0 15 -4 25.5t-13 20.5t-22.5 20t-32.5 22l-97 65q-15 10 -29.5 21.5t-25 26t-17 32.5t-6.5 41q0 52 43.5 91t131.5 59q55 0 89.5 -8.5t69.5 -24.5v-139h-16z" />
    <glyph glyph-name="uni021A" unicode="&#x21a;" horiz-adv-x="581" 
d="M280 -135l-49 41v44h127v-78l-117 -114l-16 3zM453 0h-326v16l86 8v657h-100l-87 -187h-16v206h561v-206h-17l-86 187h-100v-657l85 -8v-16z" />
    <glyph glyph-name="uni021B" unicode="&#x21b;" horiz-adv-x="358" 
d="M169 -135l-49 41v44h127v-78l-117 -114l-16 3zM5 446v16h66v68l140 76v-144h127v-16h-127v-322q0 -31 15.5 -45.5t39.5 -14.5q23 0 40 5t39 16l7 -14l-167 -86q-61 0 -87.5 35t-26.5 95v331h-66z" />
    <glyph glyph-name="hsuperior" unicode="&#x2b0;" horiz-adv-x="365" 
d="M21 400v11l30 4v353l-29 -4l-2 12l113 15h11v-181l105 61q24 0 36.5 -4.5t20.5 -12.5q9 -9 13 -22t4 -42v-175l32 -4v-11h-151v11l21 4v178q0 29 -25 29q-12 0 -21 -4t-20 -10l-15 -8v-185l21 -4v-11h-144z" />
    <glyph glyph-name="jsuperior" unicode="&#x2b2;" horiz-adv-x="178" 
d="M59 784l57 5l22 -5l3 -37l-7 -36l-58 -3l-20 3l-5 42zM-15 269v73h58l1 12q2 9 3 24t1 41v221l-30 -4l-1 11l112 21h12v-225q0 -20 -2 -35t-8 -28t-16.5 -25t-26.5 -26l-66 -60h-37z" />
    <glyph glyph-name="wsuperior" unicode="&#x2b7;" horiz-adv-x="515" 
d="M467 648l-31 4v10h74v-10l-24 -4l-77 -238l-89 -21l-63 183l-52 -162l-90 -21l-89 259l-21 4v10h151v-10l-29 -4l69 -207l51 159l-16 48l-22 4v10h151v-10l-29 -4l69 -207z" />
    <glyph glyph-name="ysuperior" unicode="&#x2b8;" horiz-adv-x="336" 
d="M121 406l-94 242l-22 4v10h157v-10l-30 -4l77 -204l78 204l-33 4v10h77v-10l-26 -4l-84 -221l-82 -156h-91v75h92l66 89z" />
    <glyph glyph-name="apostrophemod" unicode="&#x2bc;" horiz-adv-x="208" 
d="M55 429l73 150l-50 -3l-32 6l-6 68l11 54l87 6l34 -6l6 -63l-11 -59l-99 -158z" />
    <glyph glyph-name="circumflex" unicode="&#x2c6;" horiz-adv-x="500" 
d="M125 556h-19l121 181h41l122 -181h-20l-120 98h-5z" />
    <glyph glyph-name="caron" unicode="&#x2c7;" horiz-adv-x="500" 
d="M251 639l120 98h19l-121 -181h-42l-121 181h20l119 -98h6z" />
    <glyph glyph-name="breve" unicode="&#x2d8;" horiz-adv-x="500" 
d="M251 628q26 0 46.5 7.5t36 19t27 24t19.5 23.5l13 -10q-8 -19 -17.5 -36t-24 -33t-35.5 -31.5t-51 -30.5q-31 0 -56 11.5t-45 30t-34 41.5t-23 47l12 10q7 -10 19 -22.5t28.5 -24t37.5 -19t47 -7.5z" />
    <glyph glyph-name="dotaccent" unicode="&#x2d9;" horiz-adv-x="500" 
d="M198 714l85 5l30 -5l6 -60l-11 -52l-85 -6l-30 6l-6 61z" />
    <glyph glyph-name="ring" unicode="&#x2da;" horiz-adv-x="500" 
d="M163 649q0 -34 21.5 -55t54.5 -21t55 21t22 55t-22 55.5t-55 21.5t-54.5 -21.5t-21.5 -55.5zM352 650q0 -24 -9 -41t-24 -29t-35.5 -20t-42.5 -15q-21 0 -41.5 5.5t-36.5 17.5t-26 31.5t-10 48.5q0 24 9.5 40.5t25 28.5t35.5 20.5t42 15.5q23 0 43.5 -5t36 -17t24.5 -32
t9 -49z" />
    <glyph glyph-name="ogonek" unicode="&#x2db;" horiz-adv-x="500" 
d="M244 -112v-47q0 -33 23.5 -54.5t86.5 -21.5v-11q-105 0 -148 25.5t-43 75.5v57l131 126h8z" />
    <glyph glyph-name="tilde" unicode="&#x2dc;" horiz-adv-x="500" 
d="M109 697l45 15l214 -71l39 73h14l-33 -128l-46 -14l-215 73l-38 -74h-14z" />
    <glyph glyph-name="hungarumlaut" unicode="&#x2dd;" horiz-adv-x="500" 
d="M279 726h127l-153 -170h-22zM110 726h126l-153 -170h-22z" />
    <glyph glyph-name="xsuperior" unicode="&#x2e3;" horiz-adv-x="351" 
d="M107 400h-94v11l35 4l88 98l-100 135l-23 4v10h162v-10l-23 -4l59 -82l71 82l-35 4v10h87v-10l-36 -4l-78 -93l103 -140l23 -4v-11h-164v11l26 4l-63 87l-79 -87l41 -4v-11z" />
    <glyph glyph-name="Delta" unicode="&#x394;" horiz-adv-x="706" 
d="M20 0v16l315 685l39 8l312 -692v-17h-666zM44 21h466l-228 529z" />
    <glyph glyph-name="Omega" unicode="&#x3a9;" horiz-adv-x="721" 
d="M45 0v176h16l24 -89h219v62q-52 6 -101.5 24.5t-87.5 51t-61.5 78.5t-23.5 107q0 57 19 105.5t60.5 87t106 66.5t155.5 46q71 0 130 -22t101 -60t65.5 -88.5t23.5 -108.5q0 -66 -20.5 -114t-57.5 -82t-87 -55.5t-108 -34.5v-63h212l30 89h17v-176h-282v172q18 4 38 17
t37.5 40.5t29 71.5t11.5 110q0 61 -12 111.5t-33 86.5t-50.5 55.5t-65.5 19.5q-33 0 -59 -19t-44 -52t-27.5 -77.5t-9.5 -96.5q0 -59 10 -106t26.5 -81.5t37.5 -54.5t42 -24v-173h-281z" />
    <glyph glyph-name="mu" unicode="&#x3bc;" 
d="M496 474v-450l55 -8v-16h-147l-18 32l-29 59l-170 -106q-28 0 -51.5 7t-38.5 21q-7 6 -9 14v-57l103 -200h-122v704h146v-344q0 -33 13 -47t36 -14q18 0 31 6t30 16l31 18v365h140z" />
    <glyph glyph-name="pi" unicode="&#x3c0;" 
d="M524 24l55 -8v-16h-146l-49 87v369h-117v-456h-140v456h-35l-56 -136h-15v154h578v-18h-75v-432z" />
    <glyph glyph-name="Wgrave" unicode="&#x1e80;" horiz-adv-x="1038" 
d="M286 -11l-225 687l-51 8v16h294v-16l-72 -8l165 -537l101 363l-56 174l-51 8v16h294v-16l-72 -8l165 -537l163 537l-78 8v16h165v-16l-60 -8l-204 -665l-98 -22l-155 474l-127 -452zM532 769l-146 136h122l46 -136h-22z" />
    <glyph glyph-name="wgrave" unicode="&#x1e81;" horiz-adv-x="844" 
d="M768 450l-58 8v16h129v-16l-44 -8l-131 -432l-133 -36l-110 338l-91 -302l-133 -36l-153 468l-39 8v16h242v-16l-51 -8l121 -382l90 295l-28 87l-40 8v16h242v-16l-51 -8l121 -382zM452 556l-142 176h116l48 -176h-22z" />
    <glyph glyph-name="Wacute" unicode="&#x1e82;" horiz-adv-x="1038" 
d="M286 -11l-225 687l-51 8v16h294v-16l-72 -8l165 -537l101 363l-56 174l-51 8v16h294v-16l-72 -8l165 -537l163 537l-78 8v16h165v-16l-60 -8l-204 -665l-98 -22l-155 474l-127 -452zM573 905h122l-145 -136h-23z" />
    <glyph glyph-name="wacute" unicode="&#x1e83;" horiz-adv-x="844" 
d="M768 450l-58 8v16h129v-16l-44 -8l-131 -432l-133 -36l-110 338l-91 -302l-133 -36l-153 468l-39 8v16h242v-16l-51 -8l121 -382l90 295l-28 87l-40 8v16h242v-16l-51 -8l121 -382zM477 732h116l-142 -176h-22z" />
    <glyph glyph-name="Wdieresis" unicode="&#x1e84;" horiz-adv-x="1038" 
d="M286 -11l-225 687l-51 8v16h294v-16l-72 -8l165 -537l101 363l-56 174l-51 8v16h294v-16l-72 -8l165 -537l163 537l-78 8v16h165v-16l-60 -8l-204 -665l-98 -22l-155 474l-127 -452zM600 882l69 5l28 -5l7 -55l-11 -48l-69 -6l-29 6l-5 57zM372 882l69 5l28 -5l7 -55
l-11 -48l-69 -6l-29 6l-5 57z" />
    <glyph glyph-name="wdieresis" unicode="&#x1e85;" horiz-adv-x="844" 
d="M768 450l-58 8v16h129v-16l-44 -8l-131 -432l-133 -36l-110 338l-91 -302l-133 -36l-153 468l-39 8v16h242v-16l-51 -8l121 -382l90 295l-28 87l-40 8v16h242v-16l-51 -8l121 -382zM498 696l69 5l28 -5l7 -55l-12 -48l-68 -6l-29 6l-6 57zM315 696l69 5l28 -5l7 -55
l-12 -48l-68 -6l-29 6l-6 57z" />
    <glyph glyph-name="Ygrave" unicode="&#x1ef2;" horiz-adv-x="700" 
d="M405 769l-145 136h121l46 -136h-22zM185 0v16l96 8v248l-213 404l-63 8v16h322v-16l-78 -8l180 -362l180 362l-85 8v16h171v-16l-64 -8l-194 -394v-258l96 -8v-16h-348z" />
    <glyph glyph-name="ygrave" unicode="&#x1ef3;" horiz-adv-x="547" 
d="M222 -110l108 168l-126 -48l-159 440l-40 8v16h250v-16l-52 -8l133 -376l132 376l-58 8v16h132v-16l-47 -8l-142 -404l-133 -281h-140v125h142zM316 556l-142 176h116l48 -176h-22z" />
    <glyph glyph-name="endash" unicode="&#x2013;" horiz-adv-x="480" 
d="M40 293h400v-29h-400v29z" />
    <glyph glyph-name="emdash" unicode="&#x2014;" horiz-adv-x="870" 
d="M835 264h-800v29h800v-29z" />
    <glyph glyph-name="quoteleft" unicode="&#x2018;" horiz-adv-x="253" 
d="M187 703l-72 -150l50 3l32 -6l6 -68l-11 -54l-87 -6l-34 6l-6 63l11 59l99 158z" />
    <glyph glyph-name="quoteright" unicode="&#x2019;" horiz-adv-x="248" 
d="M65 429l73 150l-50 -3l-32 6l-6 68l11 54l87 6l34 -6l6 -63l-11 -59l-99 -158z" />
    <glyph glyph-name="quotesinglbase" unicode="&#x201a;" horiz-adv-x="208" 
d="M55 -142l73 150l-50 -4l-32 7l-6 68l11 54l87 6l34 -6l6 -63l-11 -59l-99 -158z" />
    <glyph glyph-name="quotedblleft" unicode="&#x201c;" horiz-adv-x="397" 
d="M351 702l-72 -149l50 3l31 -6l7 -69l-11 -54l-87 -5l-34 5l-6 64l11 59l99 157zM167 702l-72 -149l50 3l32 -6l6 -69l-11 -54l-87 -5l-34 5l-6 64l11 59l99 157z" />
    <glyph glyph-name="quotedblright" unicode="&#x201d;" horiz-adv-x="397" 
d="M60 431l73 149l-50 -3l-32 6l-6 69l11 54l87 5l34 -5l6 -64l-11 -59l-99 -157zM244 431l73 149l-50 -3l-32 6l-6 69l11 54l87 5l34 -5l6 -64l-11 -59l-100 -157z" />
    <glyph glyph-name="quotedblbase" unicode="&#x201e;" horiz-adv-x="397" 
d="M244 -142l73 150l-50 -4l-32 7l-6 68l11 54l87 6l34 -6l6 -63l-11 -59l-100 -158zM60 -142l73 150l-50 -4l-32 7l-6 68l11 54l87 6l34 -6l6 -63l-11 -59l-99 -158z" />
    <glyph glyph-name="dagger" unicode="&#x2020;" horiz-adv-x="442" 
d="M222 -60h-5l-30 280l-60 103l55 47l33 125l-190 -64v138l191 -67l-66 208h138l-68 -208l197 67v-138l-196 64l36 -125l55 -47l-60 -103z" />
    <glyph glyph-name="daggerdbl" unicode="&#x2021;" horiz-adv-x="452" 
d="M293 -57h-138l66 208l-191 -66v138l190 -65l-33 125l-55 44l55 43l33 125l-190 -64v138l191 -67l-66 208h138l-68 -208l197 67v-138l-196 64l36 -125l55 -43l-55 -44l-36 -125l196 65v-138l-197 66z" />
    <glyph glyph-name="bullet" unicode="&#x2022;" horiz-adv-x="238" 
d="M58 367l85 5l39 -5l6 -67l-8 -60l-86 -5l-38 5l-6 68z" />
    <glyph glyph-name="ellipsis" unicode="&#x2026;" horiz-adv-x="830" 
d="M623 130l91 7l33 -7l8 -69l-14 -61l-91 -7l-32 7l-7 71zM355 130l91 7l33 -7l8 -69l-14 -61l-90 -7l-33 7l-7 71zM87 130l91 7l33 -7l8 -69l-13 -61l-91 -7l-33 7l-7 71z" />
    <glyph glyph-name="perthousand" unicode="&#x2030;" horiz-adv-x="1211" 
d="M214 685q-58 0 -58 -136q0 -88 18.5 -132.5t53.5 -44.5q59 0 59 134q0 89 -19 134t-54 45zM205 353q-34 0 -62.5 12t-49 34t-32 53t-11.5 69q0 42 13.5 72.5t38.5 52t59 35.5t76 23q34 0 63 -12t49.5 -34t32 -53t11.5 -69q0 -42 -13.5 -72.5t-38.5 -52.5t-59.5 -35.5
t-76.5 -22.5zM600 329q-58 0 -58 -136q0 -88 18.5 -132.5t53.5 -44.5q59 0 59 134q0 89 -19 134t-54 45zM592 -3q-34 0 -62.5 12t-49.5 34t-32.5 53t-11.5 69q0 42 13.5 72.5t38.5 52t59 35.5t76 23q34 0 63 -12t49.5 -34t32 -53t11.5 -69q0 -42 -13.5 -72.5t-38.5 -52.5
t-59 -35.5t-76 -22.5zM982 329q-58 0 -58 -136q0 -88 18.5 -132.5t53.5 -44.5q59 0 59 134q0 89 -19 134t-54 45zM974 -3q-34 0 -62.5 12t-49.5 34t-32.5 53t-11.5 69q0 42 13.5 72.5t38.5 52t59 35.5t76 23q34 0 63 -12t49.5 -34t32 -53t11.5 -69q0 -42 -13.5 -72.5
t-38.5 -52.5t-59 -35.5t-76 -22.5zM649 705h33l-493 -710h-35z" />
    <glyph glyph-name="guilsinglleft" unicode="&#x2039;" horiz-adv-x="295" 
d="M231 15l-181 220l183 220h22l-129 -221l129 -219h-24z" />
    <glyph glyph-name="guilsinglright" unicode="&#x203a;" horiz-adv-x="295" 
d="M179 234l-129 221h22l183 -220l-181 -220h-24z" />
    <glyph glyph-name="fraction" unicode="&#x2044;" horiz-adv-x="100" 
d="M-125 -50h-35l387 760h33z" />
    <glyph glyph-name="zerosuperior" unicode="&#x2070;" horiz-adv-x="391" 
d="M208 795q38 0 67.5 -14.5t49.5 -40t30.5 -61t10.5 -77.5q0 -88 -43 -139t-139 -73q-39 0 -68.5 14.5t-49.5 40t-30.5 61t-10.5 77.5q0 88 43.5 139t139.5 73zM253 582q0 89 -13 143t-47 54q-16 0 -26.5 -12.5t-16.5 -36t-8.5 -55.5t-2.5 -71q0 -45 2.5 -81.5t9.5 -62.5
t18.5 -40t28.5 -14q31 0 43 48.5t12 127.5z" />
    <glyph glyph-name="foursuperior" unicode="&#x2074;" horiz-adv-x="348" 
d="M266 531h77v-12h-77v-119h-93v119h-161l-7 10l180 256h119v-10l-285 -244h154v72l93 51v-123z" />
    <glyph glyph-name="fivesuperior" unicode="&#x2075;" horiz-adv-x="316" 
d="M63 715l-16 -124l141 68q27 0 46.5 -7.5t32 -19t18.5 -26t6 -29.5q0 -22 -9.5 -39.5t-25 -32t-35.5 -26t-41 -21.5l-122 -60h-33v72h127q21 18 29 36.5t8 39.5q0 10 -3.5 20.5t-11.5 19.5t-20.5 14.5t-30.5 5.5q-17 0 -29.5 -3.5t-31.5 -12.5l-22 -9l-6 3l27 201h224
l-17 -70h-205z" />
    <glyph glyph-name="sixsuperior" unicode="&#x2076;" horiz-adv-x="362" 
d="M241 648q27 0 45 -9t29.5 -23t16.5 -32.5t5 -36.5q0 -61 -40 -98.5t-118 -56.5q-36 0 -63.5 11.5t-46.5 32.5t-29 49t-10 61q0 40 13.5 77.5t43.5 70t77.5 59t114.5 44.5l3 -8q-47 -21 -74.5 -43.5t-42.5 -47t-20.5 -52t-7.5 -60.5v-3zM235 521q0 42 -10.5 60.5
t-28.5 18.5q-11 0 -22 -6.5t-24 -14.5l-12 -7q1 -90 13 -128.5t37 -38.5q23 0 35 28t12 88z" />
    <glyph glyph-name="sevensuperior" unicode="&#x2077;" horiz-adv-x="301" 
d="M10 785h274l7 -8l-179 -377h-67v8l204 306h-239v71z" />
    <glyph glyph-name="eightsuperior" unicode="&#x2078;" horiz-adv-x="358" 
d="M175 392q-28 0 -54 5.5t-46.5 16.5t-32.5 27.5t-12 39.5q0 19 7.5 33t20 25.5t29.5 20.5t36 18l-24 18q-24 18 -43 40t-19 51q0 44 42 70t112 37q60 0 97 -20.5t37 -53.5q0 -29 -22 -51.5t-75 -42.5l44 -32q22 -17 39 -38t17 -49q0 -47 -37 -73t-116 -42zM210 639
q14 17 17.5 38t3.5 41q0 32 -16 47t-40 15q-17 0 -31 -9.5t-14 -30.5q0 -26 16.5 -46.5t45.5 -40.5zM184 405q17 0 32.5 10.5t15.5 41.5q0 23 -12 40.5t-38 37.5l-37 27q-25 -31 -25 -72q0 -24 6 -40t15.5 -26t20.5 -14.5t22 -4.5z" />
    <glyph glyph-name="ninesuperior" unicode="&#x2079;" horiz-adv-x="347" 
d="M65 398q43 21 70.5 43t43.5 46.5t23 53t8 61.5v3l-101 -67q-26 0 -45 9t-31 24t-17.5 33.5t-5.5 37.5q0 61 40.5 97.5t117.5 56.5q72 0 110.5 -43.5t38.5 -109.5q0 -40 -14.5 -77.5t-44.5 -70.5t-77 -59.5t-112 -44.5zM113 676q0 -48 11 -69t31 -21q11 0 17.5 3.5
t22.5 14.5l14 10q0 88 -12 128t-38 40q-46 0 -46 -106z" />
    <glyph glyph-name="plussuperior" unicode="&#x207a;" horiz-adv-x="409" 
d="M196 450v132h-146v17h146v134h18v-134h145v-17h-145v-132h-18z" />
    <glyph glyph-name="minussuperior" unicode="&#x207b;" horiz-adv-x="415" 
d="M50 612h315v-16h-315v16z" />
    <glyph glyph-name="equalsuperior" unicode="&#x207c;" horiz-adv-x="413" 
d="M50 540h313v-17h-313v17zM50 646h313v-16h-313v16z" />
    <glyph glyph-name="parenleftsuperior" unicode="&#x207d;" horiz-adv-x="226" 
d="M50 584q0 41 8.5 75.5t26.5 66t46.5 61.5t69.5 61l5 -6q-52 -50 -73.5 -116t-21.5 -142t21.5 -142t73.5 -117l-5 -5q-41 31 -69.5 61t-46.5 61.5t-26.5 66t-8.5 75.5z" />
    <glyph glyph-name="parenrightsuperior" unicode="&#x207e;" horiz-adv-x="226" 
d="M176 584q0 -41 -8.5 -75.5t-26.5 -66t-46.5 -61.5t-69.5 -61l-5 5q52 51 73.5 117t21.5 142t-21.5 142t-73.5 116l5 6q41 -31 69.5 -61t46.5 -61.5t26.5 -66t8.5 -75.5z" />
    <glyph glyph-name="nsuperior" unicode="&#x207f;" horiz-adv-x="365" 
d="M21 400v11l30 4v225l-29 -4l-2 11l114 21h11v-57l105 60q24 0 36.5 -4.5t20.5 -12.5q11 -11 13.5 -23t2.5 -41v-175l32 -4v-11h-150v11l21 4v178q0 29 -25 29q-12 0 -21 -4t-20 -10l-15 -8v-185l21 -4v-11h-145z" />
    <glyph glyph-name="zeroinferior" unicode="&#x2080;" horiz-adv-x="391" 
d="M208 245q38 0 67.5 -14.5t49.5 -40t30.5 -61t10.5 -77.5q0 -88 -43 -139t-139 -73q-39 0 -68.5 14.5t-49.5 40t-30.5 61t-10.5 77.5q0 88 43.5 139t139.5 73zM253 32q0 89 -13 143t-47 54q-16 0 -26.5 -12.5t-16.5 -36t-8.5 -55.5t-2.5 -71q0 -45 2.5 -81.5t9.5 -62.5
t18.5 -40t28.5 -14q31 0 43 48.5t12 127.5z" />
    <glyph glyph-name="oneinferior" unicode="&#x2081;" horiz-adv-x="269" 
d="M24 174l-4 10l161 57h11v-376l72 -5v-10h-237v10l71 5v332z" />
    <glyph glyph-name="twoinferior" unicode="&#x2082;" horiz-adv-x="359" 
d="M83 -79h246v-10l-24 -61h-287l-8 8l84 88q118 118 118 203q0 32 -14.5 52.5t-37.5 20.5q-6 0 -15 -1t-14 -3l-23 -99h-88v70l161 56q37 0 63.5 -8t43 -21t24 -30.5t7.5 -36.5q0 -54 -42 -98.5t-126 -92.5z" />
    <glyph glyph-name="threeinferior" unicode="&#x2083;" horiz-adv-x="337" 
d="M22 -154v72h156q13 14 18.5 26.5t5.5 32.5q0 30 -26.5 51t-74.5 20l-4 9l40 26q34 19 44.5 37t10.5 44t-13.5 40.5t-33.5 14.5q-5 0 -11.5 -1t-8.5 -2l-26 -82h-79v60l166 51q30 0 50.5 -6t33 -15.5t18 -21t5.5 -22.5t-5 -23t-19 -23.5t-38 -21.5t-61 -17q37 0 62 -9
t40.5 -21.5t22.5 -28t7 -28.5q0 -39 -28 -62t-85 -48l-125 -52h-42z" />
    <glyph glyph-name="fourinferior" unicode="&#x2084;" horiz-adv-x="348" 
d="M266 -19h77v-12h-77v-119h-93v119h-161l-7 10l180 256h119v-10l-285 -244h154v72l93 51v-123z" />
    <glyph glyph-name="fiveinferior" unicode="&#x2085;" horiz-adv-x="316" 
d="M63 165l-16 -124l141 68q27 0 46.5 -7.5t32 -19t18.5 -26t6 -29.5q0 -22 -9.5 -39.5t-25 -32t-35.5 -26t-41 -21.5l-122 -60h-33v72h127q21 18 29 36.5t8 39.5q0 10 -3.5 20.5t-11.5 19.5t-20.5 14.5t-30.5 5.5q-17 0 -29.5 -3.5t-31.5 -12.5l-22 -9l-6 3l27 201h224
l-17 -70h-205z" />
    <glyph glyph-name="sixinferior" unicode="&#x2086;" horiz-adv-x="362" 
d="M241 98q27 0 45 -9t29.5 -23t16.5 -32.5t5 -36.5q0 -61 -40 -98.5t-118 -56.5q-36 0 -63.5 11.5t-46.5 32.5t-29 49t-10 61q0 40 13.5 77.5t43.5 70t77.5 59t114.5 44.5l3 -8q-47 -21 -74.5 -43.5t-42.5 -47t-20.5 -52t-7.5 -60.5v-3zM235 -29q0 42 -10.5 60.5
t-28.5 18.5q-11 0 -22 -6.5t-24 -14.5l-12 -7q1 -90 12.5 -129t37.5 -39q23 0 35 28.5t12 88.5z" />
    <glyph glyph-name="seveninferior" unicode="&#x2087;" horiz-adv-x="301" 
d="M10 235h274l7 -8l-179 -377h-67v8l204 306h-239v71z" />
    <glyph glyph-name="eightinferior" unicode="&#x2088;" horiz-adv-x="358" 
d="M175 -158q-28 0 -54 5.5t-46.5 16.5t-32.5 27.5t-12 39.5q0 19 7.5 33t20 25.5t29.5 20.5t36 18l-24 18q-24 18 -43 40t-19 51q0 44 42 70t112 37q60 0 97 -20.5t37 -53.5q0 -29 -22 -51.5t-75 -42.5l44 -32q22 -17 39 -38t17 -49q0 -47 -37 -73t-116 -42zM210 89
q14 17 17.5 38t3.5 41q0 32 -16 47t-40 15q-17 0 -31 -9.5t-14 -30.5q0 -26 16.5 -46.5t45.5 -40.5zM184 -145q17 0 32.5 10.5t15.5 41.5q0 23 -12 40.5t-38 37.5l-37 27q-25 -31 -25 -72q0 -24 6 -40t15.5 -26t20.5 -14.5t22 -4.5z" />
    <glyph glyph-name="nineinferior" unicode="&#x2089;" horiz-adv-x="347" 
d="M65 -152q43 21 70.5 43t43.5 46.5t23 53t8 61.5v3l-101 -67q-26 0 -45 9t-31 24t-17.5 33.5t-5.5 37.5q0 61 40.5 97.5t117.5 56.5q72 0 110.5 -43.5t38.5 -109.5q0 -40 -14.5 -77.5t-44.5 -70.5t-77 -59.5t-112 -44.5zM113 126q0 -48 11 -69t31 -21q11 0 17.5 3.5
t22.5 14.5l14 10q0 88 -12 128t-38 40q-46 0 -46 -106z" />
    <glyph glyph-name="parenleftinferior" unicode="&#x208d;" horiz-adv-x="226" 
d="M50 34q0 41 8.5 75.5t26.5 66t46.5 61.5t69.5 61l5 -6q-52 -50 -73.5 -116t-21.5 -142t21.5 -142t73.5 -117l-5 -5q-41 31 -69.5 61t-46.5 61.5t-26.5 66t-8.5 75.5z" />
    <glyph glyph-name="parenrightinferior" unicode="&#x208e;" horiz-adv-x="226" 
d="M176 34q0 -41 -8.5 -75.5t-26.5 -66t-46.5 -61.5t-69.5 -61l-5 5q52 51 73.5 117t21.5 142t-21.5 142t-73.5 116l5 6q41 -31 69.5 -61t46.5 -61.5t26.5 -66t8.5 -75.5z" />
    <glyph glyph-name="Euro" unicode="&#x20ac;" horiz-adv-x="670" 
d="M45 306h40v28q0 15 1 30t3 30h-44v19h47q23 123 110.5 202t223.5 101q61 0 113.5 -14.5t87.5 -34.5v-196h-17l-82 177q-22 26 -46.5 38.5t-58.5 12.5q-35 0 -65.5 -18t-53.5 -54t-37 -89.5t-17 -124.5h256l-15 -19h-241v-12q0 -20 1 -39t3 -37h186l-15 -19h-169
q7 -50 22 -93t39.5 -74.5t59 -50t80.5 -18.5q21 0 43.5 5.5t44 13.5t41 18.5t35.5 21.5l9 -17q-16 -13 -38.5 -28.5t-50 -30t-59 -27.5t-64.5 -22q-58 0 -114 16t-102 52t-77 93.5t-38 140.5h-42v19z" />
    <glyph glyph-name="afii61289" unicode="&#x2113;" horiz-adv-x="503" 
d="M114 5v222l-74 -31v23q5 2 15 6.5t21.5 9.5t22 9.5t15.5 7.5v358l200 109q42 0 70.5 -14t46 -35t25 -47t7.5 -51q0 -48 -17 -90t-46.5 -78t-69.5 -66.5t-87 -56.5v-247l196 81l7 -10l-228 -122zM243 305q45 26 66 85t21 137q0 32 -2.5 59.5t-9 47t-17.5 30.5t-27 11
q-7 0 -17 -4.5t-14 -7.5v-358z" />
    <glyph glyph-name="afii61352" unicode="&#x2116;" horiz-adv-x="986" 
d="M527 0h-108l-293 626v-626h-95v16l73 8v652l-80 8v16h234l248 -535v535h101v-16l-80 -8v-676zM587 0v29h363v-29h-363zM754 82q-36 0 -67 13.5t-53.5 38t-35 58.5t-12.5 75q0 48 15.5 82.5t42 58.5t62.5 39t77 25q36 0 67 -13.5t53.5 -38t35.5 -58.5t13 -75
q0 -48 -15.5 -82.5t-42.5 -58.5t-63 -39.5t-77 -24.5zM840 252q0 98 -23.5 145t-55.5 47q-30 0 -46.5 -34.5t-16.5 -109.5q0 -95 23.5 -144.5t56.5 -49.5q29 0 45.5 35.5t16.5 110.5z" />
    <glyph glyph-name="trademark" unicode="&#x2122;" horiz-adv-x="980" 
d="M321 315h-204v11l50 4v359h-51l-55 -104h-11v115h339v-115h-11l-55 104h-52v-359l50 -4v-11zM791 655l-138 -343h-51l-145 359v-341l38 -4v-11h-86v11l34 4v355l-34 5v10h147l122 -285l115 285h137v-10l-36 -5v-355l36 -4v-11h-170v11l31 4v325z" />
    <glyph glyph-name="uni2126" unicode="&#x2126;" horiz-adv-x="761" 
d="M65 0v176h16l24 -89h219v62q-52 6 -101.5 24.5t-87.5 51t-61.5 78.5t-23.5 107q0 57 19 105.5t60.5 87t106 66.5t155.5 46q71 0 130 -22t101 -60t65.5 -88.5t23.5 -108.5q0 -66 -20.5 -114t-57.5 -82t-87 -55.5t-108 -34.5v-63h212l30 89h17v-176h-282v172q18 4 38 17
t37.5 40.5t29 71.5t11.5 110q0 61 -12 111.5t-33 86.5t-50.5 55.5t-65.5 19.5q-33 0 -59 -19t-44 -52t-27.5 -77.5t-9.5 -96.5q0 -59 10 -106t26.5 -81.5t37.5 -54.5t42 -24v-173h-281z" />
    <glyph glyph-name="estimated" unicode="&#x212e;" horiz-adv-x="851" 
d="M790 220q-17 -56 -49 -94.5t-78.5 -65.5t-107.5 -44.5t-137 -30.5q-82 0 -150 26.5t-116.5 73.5t-75 111t-26.5 139q0 82 20.5 141t66.5 102.5t119.5 76t179.5 60.5q79 0 145 -22t114 -64.5t75.5 -103.5t30.5 -139v-54h-579v-87q20 -108 71.5 -166t131.5 -58q41 0 74 15
t57.5 41t41.5 62.5t25 80.5h167zM222 391h404v91q-18 94 -68.5 145.5t-132.5 51.5q-87 0 -134.5 -46.5t-68.5 -123.5v-118z" />
    <glyph glyph-name="arrowleft" unicode="&#x2190;" horiz-adv-x="610" 
d="M127 274l193 -178v-57l-270 256l270 256v-57l-193 -178h433v-42h-433z" />
    <glyph glyph-name="arrowup" unicode="&#x2191;" horiz-adv-x="613" 
d="M285 472l-178 -192h-57l256 270l257 -270h-57l-178 192v-432h-43v432z" />
    <glyph glyph-name="arrowright" unicode="&#x2192;" horiz-adv-x="610" 
d="M50 316h433l-193 178v57l270 -256l-270 -256v57l193 178h-433v42z" />
    <glyph glyph-name="arrowdown" unicode="&#x2193;" horiz-adv-x="613" 
d="M328 550v-432l178 192h57l-257 -270l-256 270h57l178 -192v432h43z" />
    <glyph glyph-name="uni2196" unicode="&#x2196;" horiz-adv-x="476" 
d="M395 99l-307 306v-264l-38 -40v374h374l-40 -39h-265l307 -307z" />
    <glyph glyph-name="uni2197" unicode="&#x2197;" horiz-adv-x="476" 
d="M356 436h-264l-41 39h375v-374l-39 40v264l-306 -306l-31 30z" />
    <glyph glyph-name="uni2198" unicode="&#x2198;" horiz-adv-x="476" 
d="M81 461l306 -306v264l39 40v-374h-375l41 39h264l-306 307z" />
    <glyph glyph-name="uni2199" unicode="&#x2199;" horiz-adv-x="476" 
d="M119 124h265l40 -39h-374v374l38 -40v-264l307 306l31 -30z" />
    <glyph glyph-name="partialdiff" unicode="&#x2202;" 
d="M318 -15q-258 68 -258 285q0 35 9 69.5t28.5 61.5t50.5 44t75 17l168 -99q-6 56 -18.5 104t-39 90t-70.5 79t-112 72l5 13q108 -31 184.5 -79t125 -107.5t71.5 -128t23 -139.5q0 -59 -16 -110.5t-46.5 -89.5t-76 -60t-103.5 -22zM302 9q90 0 90 312v12t-1 11l-20 11
q-23 12 -41 18t-38 6q-35 0 -55.5 -38t-20.5 -117q0 -110 21 -162.5t65 -52.5z" />
    <glyph glyph-name="uni2206" unicode="&#x2206;" horiz-adv-x="714" 
d="M24 0v16l315 685l39 8l312 -692v-17h-666zM48 21h466l-228 529z" />
    <glyph glyph-name="product" unicode="&#x220f;" horiz-adv-x="724" 
d="M20 684v16h684v-16l-74 -8v-812l63 -8v-16h-275v16l62 8v817h-248v-817l63 -8v-16h-275v16l62 8v812z" />
    <glyph glyph-name="summation" unicode="&#x2211;" 
d="M60 -160l-11 14l295 381l-276 440l13 25h480v-179h-16l-85 160h-235l214 -344v-14l-282 -366h347l50 85h17v-202h-511z" />
    <glyph glyph-name="minus" unicode="&#x2212;" 
d="M47 294h525v-29h-525v29z" />
    <glyph glyph-name="radical" unicode="&#x221a;" 
d="M144 -18l-183 459l-49 8v17h203l142 -384l281 797h170l-8 -26h-150l-298 -840z" />
    <glyph glyph-name="infinity" unicode="&#x221e;" horiz-adv-x="816" 
d="M599 129q-30 0 -59 10t-54.5 25.5t-47.5 34.5t-39 37l-12 13l-44 -49q-27 -30 -63.5 -50.5t-71.5 -20.5t-62 12t-46.5 33.5t-29.5 50.5t-10 63q0 54 35 99.5t123 82.5q31 0 60.5 -10.5t55.5 -27t49 -36.5t41 -39l8 -10l43 46q28 32 65 54.5t75 22.5q34 0 60.5 -12.5
t44.5 -33.5t27 -50t9 -62q0 -32 -8 -57.5t-26.5 -47t-48.5 -40.5t-74 -38zM463 320l4 -5q13 -12 31 -25.5t38 -25t40.5 -18.5t38.5 -7t36 4.5t32.5 13.5t23.5 23t9 33q0 34 -26 53.5t-82 19.5q-61 0 -114 -44zM211 209q30 0 60 10.5t58 33.5l29 23l-1 1q-14 13 -32 27.5
t-37.5 26.5t-40.5 19.5t-42 7.5q-48 1 -76 -17.5t-28 -53.5q0 -32 28 -55t82 -23z" />
    <glyph glyph-name="integral" unicode="&#x222b;" 
d="M187 -235h-91v97h124l4 14q5 17 6 39t1 67v489q0 45 17.5 77t49.5 59l118 103h108v-97h-141l-4 -14q-5 -17 -6.5 -39t-1.5 -67v-489q0 -45 -17 -77t-49 -59z" />
    <glyph glyph-name="approxequal" unicode="&#x2248;" 
d="M91 172l-49 -77h-17l38 80l96 27l369 -70l50 75h16l-38 -78l-96 -29zM91 358l-49 -76h-17l38 80l96 26l369 -69l50 74h16l-38 -78l-96 -28z" />
    <glyph glyph-name="notequal" unicode="&#x2260;" 
d="M427 356h143v-29h-167l-136 -164h303v-29h-327l-112 -134h-36l112 134h-158v29h182l138 164h-320v29h344l104 124h34z" />
    <glyph glyph-name="lessequal" unicode="&#x2264;" 
d="M50 370l520 243v-32l-481 -221l481 -221v-32l-520 242v21zM50 29h520v-29h-520v29z" />
    <glyph glyph-name="greaterequal" unicode="&#x2265;" 
d="M50 0v29h520v-29h-520zM50 107v32l481 221l-481 221v32l520 -243v-21z" />
    <glyph glyph-name="lozenge" unicode="&#x25ca;" 
d="M324 -7l-38 -11l-239 348l256 376l34 9l236 -347zM260 610l-124 -187l226 -334l124 185z" />
    <glyph glyph-name="commaaccent" unicode="&#xf6c3;" horiz-adv-x="500" 
d="M235 -136l-47 41v42h127v-76l-117 -116l-16 3z" />
    <glyph glyph-name="asuperior" unicode="&#xf6e9;" horiz-adv-x="324" 
d="M161 671q47 0 67.5 -5t34.5 -16q21 -17 21 -61v-119q0 -22 8 -46l25 2l2 -10l-114 -22l-16 45l-81 -47q-36 0 -62 17t-26 52q0 16 7 32.5t27 29.5l133 35v54q0 20 -5 30.5t-28 10.5q-6 0 -10.5 -1t-12.5 -3l-11 -75h-88v51zM187 549l-45 -16q-23 -17 -23 -52
q0 -21 9 -33.5t23 -12.5q8 0 16 3t13 6l7 6v99z" />
    <glyph glyph-name="bsuperior" unicode="&#xf6ea;" horiz-adv-x="340" 
d="M320 553q0 -64 -39 -105.5t-121 -55.5q-73 0 -124 19v355l-29 -3l-2 13l113 15h11v-177l87 57q44 0 74 -30.5t30 -87.5zM217 519q0 59 -11.5 80t-33.5 21q-9 0 -17 -3t-16 -8l-10 -6v-186q12 -13 31 -13q26 0 41.5 30t15.5 85z" />
    <glyph glyph-name="dsuperior" unicode="&#xf6eb;" horiz-adv-x="350" 
d="M123 548q0 -47 12.5 -75.5t37.5 -28.5q8 0 14 2t16 9l7 4v182q-9 11 -27 11q-32 0 -46 -28.5t-14 -75.5zM137 392q-50 0 -83.5 34.5t-33.5 90.5q0 57 29 98.5t100 55.5q34 0 61 -15v112l-29 -4l-1 12l113 15h10v-320q0 -17 1.5 -26t6.5 -21l28 1l1 -9l-110 -22l-18 55z
" />
    <glyph glyph-name="esuperior" unicode="&#xf6ec;" horiz-adv-x="302" 
d="M164 392q-30 0 -56.5 8.5t-46 25t-30.5 40t-11 53.5q0 32 12 57.5t32.5 44.5t47.5 31.5t58 18.5q21 0 41 -6t35.5 -18.5t25 -31t9.5 -43.5v-24h-178q7 -47 36 -68.5t67 -21.5q20 0 35.5 5t32.5 13l6 -8q-29 -28 -55 -44.5t-61 -31.5zM102 558h81v29q0 33 -8 49.5
t-29 16.5q-44 0 -44 -81v-14z" />
    <glyph glyph-name="isuperior" unicode="&#xf6ed;" horiz-adv-x="185" 
d="M63 784l57 5l22 -5l3 -37l-7 -36l-58 -3l-20 3l-5 42zM21 400v11l30 4v225l-29 -4l-2 11l114 21h11v-253l30 -4v-11h-154z" />
    <glyph glyph-name="lsuperior" unicode="&#xf6ee;" horiz-adv-x="184" 
d="M21 400v11l30 4v353l-29 -4l-2 12l113 15h11v-376l30 -4v-11h-153z" />
    <glyph glyph-name="msuperior" unicode="&#xf6ef;" horiz-adv-x="536" 
d="M166 400h-145v11l30 4v226l-29 -4l-2 10l114 21h11v-58l103 61q23 0 35 -4.5t20 -12.5t11.5 -16.5t4.5 -27.5l103 61q23 0 35 -4.5t20 -12.5q10 -9 13.5 -21t3.5 -41v-177l32 -4v-11h-151v11l21 4v177q0 30 -26 30q-10 0 -20.5 -5.5t-19.5 -10.5l-11 -6v-185l21 -4v-11
h-139v11l21 4v177q0 30 -26 30q-10 0 -21 -5.5t-20 -10.5l-10 -6v-185l21 -4v-11z" />
    <glyph glyph-name="osuperior" unicode="&#xf6f0;" horiz-adv-x="336" 
d="M161 654q-20 0 -31 -24.5t-11 -81.5q0 -71 16.5 -105.5t38.5 -34.5q21 0 32 24t11 80q0 74 -16.5 108t-39.5 34zM155 392q-29 0 -53.5 9.5t-42.5 26.5t-28.5 41.5t-10.5 54.5q0 35 13 59.5t34.5 41.5t50.5 27.5t62 18.5q59 0 97.5 -36.5t38.5 -96.5q0 -35 -13 -59
t-34.5 -41t-51 -28t-62.5 -18z" />
    <glyph glyph-name="rsuperior" unicode="&#xf6f1;" horiz-adv-x="252" 
d="M21 400v11l30 4v226l-29 -4l-2 10l107 21h12l4 -94l50 94h49v-85h-81l-16 -24v-144l48 -4v-11h-172z" />
    <glyph glyph-name="ssuperior" unicode="&#xf6f2;" horiz-adv-x="261" 
d="M171 642q-11 11 -20.5 14t-22.5 3q-14 0 -24 -8t-10 -21q0 -14 9.5 -23t32.5 -23l62 -38q23 -14 33 -28.5t10 -35.5q0 -30 -25.5 -54.5t-83.5 -37.5q-32 0 -61 6.5t-48 14.5v85h12l37 -67q14 -12 26 -18.5t29 -6.5q20 0 31 9t11 21q0 15 -10 23.5t-31 22.5l-62 37
q-18 12 -32 27t-14 41q0 29 26.5 52t82.5 34q34 0 54.5 -4.5t43.5 -13.5v-79h-11z" />
    <glyph glyph-name="tsuperior" unicode="&#xf6f3;" horiz-adv-x="224" 
d="M5 644v11h38v35l93 46v-81h74v-11h-74v-173q0 -17 9 -24.5t23 -7.5q13 0 23 3t23 8l5 -9l-107 -49q-35 0 -52 19t-17 54v179h-38z" />
    <glyph glyph-name="apple" unicode="&#xf8ff;" horiz-adv-x="685" 
d="M635 460l-3 -41l-8 -35l-12 -31l-3 -156l-21 -7l-50 70l-27 -7l-19 -140l-32 4l-7 -4l-4 -94l30 -19l16 -14l-3 -15l-30 1l-24 18h-14l-8 8l7 76l-4 47l-61 1l-3 -52l-2 -56v-20l-15 -6l-8 6l-30 -10h-32l-1 11l11 11l50 21l-6 96l-98 -6l-147 140l-4 115l-13 10l-10 36
v26l15 8l-3 78l92 -62l9 47l10 36l22 35l28 35l39 29l40 15l38 14h22l-68 22l4 17h7l79 -20l-4 51l16 12h32l19 -5l29 -25l32 -8l32 -10l15 -13v-20l-20 -31l30 -28l28 -32l18 -34l15 -41zM525 399l-4 7h-205l-66 -3l-7 -9l-6 -44l-48 20l-11 -4l57 -27l1 -45l-5 -73v-91
l18 4l2 40l41 -3l3 9l-44 6v16l48 -6l1 9l-47 7l1 22l43 -3l3 6l-45 9l3 94h74l11 10h-79l2 9h74l8 7h-82l2 22l117 4l140 -4v11zM206 569l29 12l13 -15l-17 -20l-10 -3l17 -3h5l36 24h32l18 -12l8 3l4 14l7 5l10 -4v-18h8l10 22l11 8l-5 6l-3 8l1 21l-30 -10l-10 -8l-8 5
l4 21l14 10l11 11l38 -2l12 13l-4 8h-49l-45 -13l-53 -26l-29 -23zM616 465l-8 37l-19 50l-20 36l-23 28l-34 21h-11l17 -19l25 -10l11 -11l3 -33l-25 13l-15 -29l12 -8v-19l15 3l-12 26l15 -5l10 -20l-5 -12l-8 -7h-23l-3 11l-12 2l1 -22h-14l14 -18l-7 -10l-21 5l-3 -27
l41 6l8 17l22 -2l6 -28l-16 -13v-15l8 -6l18 12h23l6 11l-18 6l-5 9l9 42h7l14 -20zM102 434l57 -32l7 10l-68 38v18l59 -34l43 -28l28 -14l3 10l-103 64l-13 7l-41 33l2 -78l19 -17v-5h-21l19 -14l1 -11l-20 7l18 -18l-4 -7l3 -97l11 -12v180zM511 331l-54 1l-1 -24v-6
l-2 -31l19 -3l-8 -61l-48 3l-8 -6l51 -5l-2 -9h-49l-4 -5l53 -7l-6 -35l27 -1l12 79l4 36l-15 3l-1 8l20 1l5 3l-28 16l2 5l30 -6l-30 15l5 5l21 -5l4 10zM206 331l-66 39v-7l-2 -13l1 -27v-48l64 -44l-1 60zM380 214l-64 4v-51l64 -6v53zM532 306l8 -6l8 2l20 15l13 13
l11 18l-7 5h-14l-10 3l-14 7l-17 -3q-2 -13 -3 -24q-2 -9 -2.5 -17t-0.5 -7zM428 585l5 -6l19 11l8 -2l6 -24h13l6 6l-9 18l17 28l-15 9v5l-25 7v-20l-13 -5v-9l-9 -6zM433 336l4 30l-54 5l-3 -35h53zM366 455l-7 -11h-12l-5 7l11 8l-15 2v6l-23 4l3 -17l8 -14l20 -9l13 -1
l18 10l6 9l5 20l-30 2l7 -5zM589 312l-6 -3l-33 -27l39 -48v78zM244 454l1 4l14 2l-13 6l2 7l-20 -1l3 -19l14 -15l12 -6l11 5l16 12l6 12l2 13l-22 -4l6 -10l-12 -13l-14 -1zM394 281l-72 7l-6 -13l78 -4v10zM206 203l-74 50l20 -23l50 -41zM394 312h-73v-10h73v10z
M384 256l-68 4v-10h68v6zM515 359h-48v-13l44 4zM351 520l-4 -12l49 -17l3 4zM214 498l59 12l-4 12zM414 642l-8 -9v-19l12 -6l3 17zM491 530l-8 -4v-9l8 -3l2 7zM564 386l5 7v7l-10 -4v-10h5z" />
    <glyph glyph-name="AE.sc" horiz-adv-x="825" 
d="M396 474l-154 -221h154v221zM139 0h-134v17l44 7l347 484h396v-143h-16l-64 126h-174v-238h82l42 95h15v-206h-15l-42 94h-82v-219h176l61 133h16v-150h-442v17l47 7v212h-166l-153 -212l62 -8v-16z" />
    <glyph glyph-name="AEacute.002" horiz-adv-x="984" 
d="M576 744l38 107h124l-133 -107h-29zM485 656l-191 -309h191v309zM172 0h-167v16l58 8l426 676h466v-190h-16l-76 171h-222v-334h109l49 124h16v-267h-16l-49 124h-109v-309h226l72 178h16v-197h-532v16l62 8v304h-202l-189 -304l78 -8v-16z" />
    <glyph glyph-name="AEacute.sc" horiz-adv-x="825" 
d="M396 474l-154 -221h154v221zM139 0h-134v17l44 7l347 484h396v-143h-16l-64 126h-174v-238h82l42 95h15v-206h-15l-42 94h-82v-219h176l61 133h16v-150h-442v17l47 7v212h-166l-153 -212l62 -8v-16zM488 659h107l-124 -100h-21z" />
    <glyph glyph-name="Aacute.002" horiz-adv-x="703" 
d="M641 24l57 -8v-16h-306v16l77 8l-70 221h-233l-76 -221l79 -8v-16h-164v16l58 8l227 645l119 47zM173 266h219l-105 332zM310 744l38 107h124l-133 -107h-29z" />
    <glyph glyph-name="Aacute.sc" horiz-adv-x="594" 
d="M539 24l43 -7v-17h-261v16l62 8l-53 148h-193l-57 -148l63 -8v-16h-131v17l44 7l183 456l111 42zM145 192h178l-85 237zM307 659h108l-124 -100h-21z" />
    <glyph glyph-name="Abreve.002" horiz-adv-x="703" 
d="M641 24l57 -8v-16h-306v16l77 8l-70 221h-233l-76 -221l79 -8v-16h-164v16l58 8l227 645l119 47zM173 266h219l-105 332zM346 794q25 0 45.5 6.5t36 16t26.5 20.5t19 20l13 -10q-8 -16 -17.5 -30t-24 -27.5t-35 -25.5t-50.5 -24q-30 0 -55 9.5t-44.5 24.5t-33.5 34
t-23 39l13 10q7 -9 19 -20t28 -20.5t37 -16t46 -6.5z" />
    <glyph glyph-name="Abreve.sc" horiz-adv-x="594" 
d="M539 24l43 -7v-17h-261v16l62 8l-53 148h-193l-57 -148l63 -8v-16h-131v17l44 7l183 456l111 42zM145 192h178l-85 237zM287 610q43 0 69 16t40 29l11 -10q-7 -16 -15 -28t-20 -22.5t-30 -20.5t-43 -20q-51 0 -85 27.5t-49 62.5l12 11q13 -13 40 -29t70 -16z" />
    <glyph glyph-name="Acircumflex.002" horiz-adv-x="703" 
d="M641 24l57 -8v-16h-306v16l77 8l-70 221h-233l-76 -221l79 -8v-16h-164v16l58 8l227 645l119 47zM173 266h219l-105 332zM236 742h-29l122 119h48l122 -119h-29l-114 58h-6z" />
    <glyph glyph-name="Acircumflex.sc" horiz-adv-x="594" 
d="M539 24l43 -7v-17h-261v16l62 8l-53 148h-193l-57 -148l63 -8v-16h-131v17l44 7l183 456l111 42zM145 192h178l-85 237zM188 559h-21l106 101h46l107 -101h-21l-106 50h-6z" />
    <glyph glyph-name="Adieresis.002" horiz-adv-x="703" 
d="M641 24l57 -8v-16h-306v16l77 8l-70 221h-233l-76 -221l79 -8v-16h-164v16l58 8l227 645l119 47zM173 266h219l-105 332zM404 852l62 5l25 -5l7 -49l-11 -43l-61 -6l-26 6l-6 51zM212 852l62 5l25 -5l7 -49l-11 -43l-61 -6l-26 6l-6 51z" />
    <glyph glyph-name="Adieresis.sc" horiz-adv-x="594" 
d="M539 24l43 -7v-17h-261v16l62 8l-53 148h-193l-57 -148l63 -8v-16h-131v17l44 7l183 456l111 42zM145 192h178l-85 237zM162 644l61 5l24 -5l7 -48l-10 -40l-60 -5l-26 5l-5 48zM351 644l61 5l25 -5l6 -48l-10 -40l-60 -5l-25 5l-5 48z" />
    <glyph glyph-name="Agrave.002" horiz-adv-x="703" 
d="M641 24l57 -8v-16h-306v16l77 8l-70 221h-233l-76 -221l79 -8v-16h-164v16l58 8l227 645l119 47zM173 266h219l-105 332zM340 744l-132 107h123l41 -107h-32z" />
    <glyph glyph-name="Agrave.sc" horiz-adv-x="594" 
d="M539 24l43 -7v-17h-261v16l62 8l-53 148h-193l-57 -148l63 -8v-16h-131v17l44 7l183 456l111 42zM145 192h178l-85 237zM301 559l-124 100h108l37 -100h-21z" />
    <glyph glyph-name="Amacron.002" horiz-adv-x="703" 
d="M641 24l57 -8v-16h-306v16l77 8l-70 221h-233l-76 -221l79 -8v-16h-164v16l58 8l227 645l119 47zM173 266h219l-105 332zM204 827h291v-42h-291v42z" />
    <glyph glyph-name="Amacron.sc" horiz-adv-x="594" 
d="M539 24l43 -7v-17h-261v16l62 8l-53 148h-193l-57 -148l63 -8v-16h-131v17l44 7l183 456l111 42zM145 192h178l-85 237zM175 626h241v-53h-241v53z" />
    <glyph glyph-name="Aogonek.001" horiz-adv-x="703" 
d="M173 266h220l-106 332zM522 -178q-47 0 -80 5t-53 15.5t-29 27t-9 39.5v32l121 77l-73 227h-233l-76 -221l79 -8v-16h-164v16l58 8l227 645l119 47l232 -692l57 -8v-16h-221l-47 -76v-24q0 -38 26.5 -51t65.5 -13v-14z" />
    <glyph glyph-name="Aogonek.sc" horiz-adv-x="594" 
d="M146 192h177l-85 237zM438 -181q-89 0 -125.5 18.5t-36.5 55.5v50l109 73l-56 156h-191l-58 -148l63 -8v-16h-131v17l44 7l183 456l111 42l189 -498l43 -7v-17h-192l-40 -72v-35q0 -11 4 -22t14 -19.5t27 -13.5t43 -5v-14z" />
    <glyph glyph-name="Aring.002" horiz-adv-x="703" 
d="M641 24l57 -8v-16h-306v16l77 8l-70 221h-233l-76 -221l79 -8v-16h-164v16l58 8l227 645l119 47zM173 266h219l-105 332zM429 784q0 -19 -7 -30.5t-19 -19t-27 -12.5t-31 -10q-15 0 -30 4t-27 12t-19.5 21.5t-7.5 33.5q0 18 7 30t19 20t27 13l30 10q16 0 31.5 -3.5
t27.5 -12t19 -22.5t7 -34zM294 783q0 -22 14.5 -35.5t36.5 -13.5t36.5 13.5t14.5 35.5t-14.5 37t-36.5 15t-36.5 -15t-14.5 -37z" />
    <glyph glyph-name="Aring.sc" horiz-adv-x="594" 
d="M539 24l43 -7v-17h-261v16l62 8l-53 148h-193l-57 -148l63 -8v-16h-131v17l44 7l183 456l111 42zM385 617q0 -36 -27.5 -53.5t-65.5 -26.5q-18 0 -35 4t-31 13.5t-22.5 24.5t-8.5 38q0 17 8 30t21 22t30.5 16t35.5 12q19 0 36.5 -4t30.5 -13t20.5 -24.5t7.5 -38.5z
M145 192h178l-85 237zM227 617q0 -24 18 -39.5t45 -15.5t45 15.5t18 39.5t-18 40t-45 16t-45 -16t-18 -40z" />
    <glyph glyph-name="Aringacute.002" horiz-adv-x="703" 
d="M641 24l57 -8v-16h-306v16l77 8l-70 221h-233l-76 -221l79 -8v-16h-164v16l58 8l227 645l119 47zM173 266h219l-105 332zM427 783q0 -19 -7 -30.5t-18.5 -19t-26.5 -12.5t-31 -10q-15 0 -30 4t-27 12t-19.5 21.5t-7.5 33.5q0 19 8 32t20.5 21t28.5 12.5t31 8.5l10 31h67
l-44 -37q20 -7 33 -23t13 -44zM293 782q0 -22 14.5 -35.5t36.5 -13.5t36.5 13.5t14.5 35.5t-14.5 37t-36.5 15t-36.5 -15t-14.5 -37z" />
    <glyph glyph-name="Aringacute.sc" horiz-adv-x="594" 
d="M539 24l43 -7v-17h-261v16l62 8l-53 148h-193l-57 -148l63 -8v-16h-131v17l44 7l183 456l111 42zM294 537q-17 0 -34 4t-30.5 13.5t-21.5 24.5t-8 37q0 17 8 30t20.5 22t29 15.5t34.5 11.5l28 34h82l-79 -38q26 -5 44 -22.5t18 -52.5t-27 -53t-64 -26zM145 192h178
l-85 237zM232 616q0 -24 17 -39.5t43 -15.5t43.5 15.5t17.5 39.5t-17.5 39.5t-43.5 15.5t-43 -15.5t-17 -39.5z" />
    <glyph glyph-name="Atilde.002" horiz-adv-x="703" 
d="M641 24l57 -8v-16h-306v16l77 8l-70 221h-233l-76 -221l79 -8v-16h-164v16l58 8l227 645l119 47zM173 266h219l-105 332zM249 847l48 15l196 -58l41 59h12l-48 -106l-49 -14l-197 60l-39 -61h-12z" />
    <glyph glyph-name="Atilde.sc" horiz-adv-x="594" 
d="M539 24l43 -7v-17h-261v16l62 8l-53 148h-193l-57 -148l63 -8v-16h-131v17l44 7l183 456l111 42zM145 192h178l-85 237zM188 650l34 8l178 -45l35 45h12l-28 -106l-35 -6l-179 46l-33 -46h-12z" />
    <glyph glyph-name="B.sc" horiz-adv-x="533" 
d="M30 0v17l46 7v460l-46 7v17h293q40 0 70 -10t50 -25.5t30 -35.5t10 -41q0 -52 -48.5 -85.5t-145.5 -38.5q59 -2 100 -13.5t66.5 -29t36.5 -39.5t11 -45q0 -66 -55.5 -101.5t-154.5 -43.5h-263zM261 279q36 0 57.5 31.5t21.5 84.5q0 45 -19 70.5t-55 25.5l-48 -7v-205h43z
M262 17q25 0 43.5 9.5t30.5 26.5t18 40t6 50q0 61 -29 89.5t-69 28.5h-44v-237z" />
    <glyph glyph-name="C.sc" horiz-adv-x="581" 
d="M541 179v-153q-27 -8 -49.5 -14.5t-46 -11t-49.5 -8t-59 -5.5q-62 0 -118 15.5t-98 46.5t-67 78.5t-25 112.5q0 64 22 113t63 83.5t100.5 55.5t134.5 29q64 0 107 -9t84 -26v-152h-15l-69 132q-20 19 -43 28t-57 9q-35 0 -65.5 -15t-52.5 -46t-34.5 -77t-12.5 -108
q0 -57 10.5 -103t31.5 -79t53 -51t74 -18q29 0 53 9t43 25l69 139h16z" />
    <glyph glyph-name="Cacute.002" horiz-adv-x="694" 
d="M377 744l37 107h124l-132 -107h-29zM649 230v-188q-31 -12 -58.5 -21.5t-56 -16.5t-60.5 -12t-71 -9q-74 0 -141 22t-117.5 65.5t-80.5 109.5t-30 153t26.5 154.5t76 115.5t120 76.5t159.5 37.5q39 0 71 -3.5t59.5 -10t52.5 -15.5t50 -21v-188h-17l-78 163q-24 26 -54 41
t-76 15q-45 0 -84 -21.5t-67.5 -64.5t-45 -107.5t-16.5 -150.5q0 -74 13.5 -138t40.5 -111t68 -73.5t97 -26.5q37 0 69 14.5t56 37.5l78 173h16z" />
    <glyph glyph-name="Cacute.sc" horiz-adv-x="581" 
d="M541 179v-153q-27 -8 -49.5 -14.5t-46 -11t-49.5 -8t-59 -5.5q-62 0 -118 15.5t-98 46.5t-67 78.5t-25 112.5q0 64 22 113t63 83.5t100.5 55.5t134.5 29q64 0 107 -9t84 -26v-152h-15l-69 132q-20 19 -43 28t-57 9q-35 0 -65.5 -15t-52.5 -46t-34.5 -77t-12.5 -108
q0 -57 10.5 -103t31.5 -79t53 -51t74 -18q29 0 53 9t43 25l69 139h16zM350 659h107l-123 -100h-21z" />
    <glyph glyph-name="Ccaron.002" horiz-adv-x="694" 
d="M407 796h6l116 63h27l-120 -118h-51l-121 118h28zM649 230v-188q-31 -12 -58.5 -21.5t-56 -16.5t-60.5 -12t-71 -9q-74 0 -141 22t-117.5 65.5t-80.5 109.5t-30 153t26.5 154.5t76 115.5t120 76.5t159.5 37.5q39 0 71 -3.5t59.5 -10t52.5 -15.5t50 -21v-188h-17l-78 163
q-24 26 -54 41t-76 15q-45 0 -84 -21.5t-67.5 -64.5t-45 -107.5t-16.5 -150.5q0 -74 13.5 -138t40.5 -111t68 -73.5t97 -26.5q37 0 69 14.5t56 37.5l78 173h16z" />
    <glyph glyph-name="Ccaron.sc" horiz-adv-x="581" 
d="M541 179v-153q-27 -8 -49.5 -14.5t-46 -11t-49.5 -8t-59 -5.5q-62 0 -118 15.5t-98 46.5t-67 78.5t-25 112.5q0 64 22 113t63 83.5t100.5 55.5t134.5 29q64 0 107 -9t84 -26v-152h-15l-69 132q-20 19 -43 28t-57 9q-35 0 -65.5 -15t-52.5 -46t-34.5 -77t-12.5 -108
q0 -57 10.5 -103t31.5 -79t53 -51t74 -18q29 0 53 9t43 25l69 139h16zM344 610l106 49h21l-107 -100h-46l-107 100h21l106 -49h6z" />
    <glyph glyph-name="Ccedilla.001" horiz-adv-x="694" 
d="M649 230v-188q-31 -12 -58 -21.5t-55.5 -16t-59.5 -11.5t-70 -9l-17 -20q15 -2 30 -6t27.5 -10.5t20 -16t7.5 -22.5q0 -14 -8 -24t-21 -18t-30 -14t-35 -11l-84 -23h-34l34 40h86q21 13 21 32q0 16 -18.5 24.5t-53.5 8.5l54 59q-72 3 -135.5 26t-111.5 67t-76 108
t-28 149q0 87 26.5 154.5t76 115.5t120 76.5t159.5 37.5q39 0 71 -3.5t59.5 -10t52.5 -15.5t50 -21v-188h-17l-78 163q-24 26 -54 41t-76 15q-45 0 -84 -21.5t-67.5 -64.5t-45 -107.5t-16.5 -150.5q0 -74 13.5 -138t40.5 -111t68 -73.5t97 -26.5q37 0 69 14.5t56 37.5
l78 173h16z" />
    <glyph glyph-name="Ccedilla.sc" horiz-adv-x="581" 
d="M236 -181h-24l29 45h70q17 14 17 32q0 21 -13.5 27t-31.5 9l40 55q-60 2 -113.5 18t-93.5 47.5t-63.5 78t-23.5 109.5q0 64 22 113t63 83.5t100.5 55.5t134.5 29q64 0 107 -9t84 -26v-152h-15l-69 132q-20 19 -43 28t-57 9q-35 0 -65.5 -15t-52.5 -46t-34.5 -77
t-12.5 -108q0 -57 10.5 -103t31.5 -79t53 -51t74 -18q29 0 53 9t43 25l69 139h16v-153q-27 -8 -50 -14.5t-46.5 -11t-49.5 -8t-59 -5.5l-11 -14q36 -5 53 -22.5t17 -35.5q0 -15 -9 -25t-22 -18t-29.5 -14.5t-31.5 -12.5z" />
    <glyph glyph-name="Ccircumflex.002" horiz-adv-x="694" 
d="M296 736h-27l120 118h51l120 -118h-27l-116 63h-5zM649 230v-188q-31 -12 -58.5 -21.5t-56 -16.5t-60.5 -12t-71 -9q-74 0 -141 22t-117.5 65.5t-80.5 109.5t-30 153t26.5 154.5t76 115.5t120 76.5t159.5 37.5q39 0 71 -3.5t59.5 -10t52.5 -15.5t50 -21v-188h-17l-78 163
q-24 26 -54 41t-76 15q-45 0 -84 -21.5t-67.5 -64.5t-45 -107.5t-16.5 -150.5q0 -74 13.5 -138t40.5 -111t68 -73.5t97 -26.5q37 0 69 14.5t56 37.5l78 173h16z" />
    <glyph glyph-name="Ccircumflex.sc" horiz-adv-x="581" 
d="M541 179v-153q-27 -8 -49.5 -14.5t-46 -11t-49.5 -8t-59 -5.5q-62 0 -118 15.5t-98 46.5t-67 78.5t-25 112.5q0 64 22 113t63 83.5t100.5 55.5t134.5 29q64 0 107 -9t84 -26v-152h-15l-69 132q-20 19 -43 28t-57 9q-35 0 -65.5 -15t-52.5 -46t-34.5 -77t-12.5 -108
q0 -57 10.5 -103t31.5 -79t53 -51t74 -18q29 0 53 9t43 25l69 139h16zM233 559h-20l107 101h46l106 -101h-20l-106 50h-6z" />
    <glyph glyph-name="Cdotaccent.002" horiz-adv-x="694" 
d="M367 852l64 5l26 -5l7 -51l-11 -45l-64 -5l-27 5l-5 53zM649 230v-188q-31 -12 -58.5 -21.5t-56 -16.5t-60.5 -12t-71 -9q-74 0 -141 22t-117.5 65.5t-80.5 109.5t-30 153t26.5 154.5t76 115.5t120 76.5t159.5 37.5q39 0 71 -3.5t59.5 -10t52.5 -15.5t50 -21v-188h-17
l-78 163q-24 26 -54 41t-76 15q-45 0 -84 -21.5t-67.5 -64.5t-45 -107.5t-16.5 -150.5q0 -74 13.5 -138t40.5 -111t68 -73.5t97 -26.5q37 0 69 14.5t56 37.5l78 173h16z" />
    <glyph glyph-name="Cdotaccent.sc" horiz-adv-x="581" 
d="M541 179v-153q-27 -8 -49.5 -14.5t-46 -11t-49.5 -8t-59 -5.5q-62 0 -118 15.5t-98 46.5t-67 78.5t-25 112.5q0 64 22 113t63 83.5t100.5 55.5t134.5 29q64 0 107 -9t84 -26v-152h-15l-69 132q-20 19 -43 28t-57 9q-35 0 -65.5 -15t-52.5 -46t-34.5 -77t-12.5 -108
q0 -57 10.5 -103t31.5 -79t53 -51t74 -18q29 0 53 9t43 25l69 139h16zM295 658l75 5l26 -5l5 -51l-10 -44l-75 -5l-26 5l-5 52z" />
    <glyph glyph-name="D.sc" horiz-adv-x="611" 
d="M277 17q36 0 64.5 18.5t48.5 51t31 78t11 99.5q0 48 -9 89.5t-28.5 72t-49.5 48t-72 17.5l-53 -7v-460zM30 0v17l48 7v460l-48 7v17h273q69 0 121 -17t87 -48.5t53 -75.5t18 -99q0 -56 -16.5 -102.5t-51 -81t-87.5 -56t-127 -28.5h-270z" />
    <glyph glyph-name="Dcaron.002" horiz-adv-x="757" 
d="M342 796h6l116 63h27l-120 -118h-51l-121 118h28zM328 16q46 0 83 25t63 71t40 109.5t14 140.5q0 69 -11.5 128t-36.5 102t-64 67.5t-94 24.5l-75 -8v-652zM24 0v16l67 8v652l-67 8v16h330q82 0 145.5 -23t106.5 -66.5t65 -105t22 -139.5q0 -77 -20.5 -141.5
t-62.5 -112.5t-106.5 -77t-152.5 -35h-327z" />
    <glyph glyph-name="Dcaron.sc" horiz-adv-x="611" 
d="M295 610l106 49h21l-107 -100h-46l-106 100h20l106 -49h6zM266 17q36 0 64.5 18.5t48.5 51t31 78t11 99.5q0 48 -9 89.5t-28.5 72t-49.5 48t-72 17.5l-53 -7v-460zM19 0v17l48 7v460l-48 7v17h273q69 0 121 -17t87 -48.5t53 -75.5t18 -99q0 -56 -16.5 -102.5t-51 -81
t-87.5 -56t-127 -28.5h-270z" />
    <glyph glyph-name="Dcroat.sc" horiz-adv-x="611" 
d="M19 0v17l48 7v232h-40v15h40v213l-48 7v17h273q69 0 121 -17t87 -48.5t53 -75.5t18 -99q0 -56 -16.5 -102.5t-51 -81t-87.5 -56t-127 -28.5h-270zM266 17q36 0 64.5 18.5t48.5 51t31 78t11 99.5q0 48 -9 89.5t-28.5 72t-49.5 48t-72 17.5l-53 -7v-213h95v-15h-95v-232z
" />
    <glyph glyph-name="E.sc" horiz-adv-x="515" 
d="M30 17l46 7v460l-46 7v17h452v-143h-16l-64 126h-184v-216h92l41 95h16v-206h-16l-41 94h-92v-241h186l60 133h16v-150h-450v17z" />
    <glyph glyph-name="Eacute.002" horiz-adv-x="603" 
d="M288 744l37 107h124l-132 -107h-29zM24 16l63 8v652l-63 8v16h548v-190h-16l-76 171h-238v-305h125l48 125h17v-267h-17l-48 124h-125v-339h242l71 178h17v-197h-548v16z" />
    <glyph glyph-name="Eacute.sc" horiz-adv-x="515" 
d="M286 659h107l-123 -100h-21zM30 17l46 7v460l-46 7v17h452v-143h-16l-64 126h-184v-216h92l41 95h16v-206h-16l-41 94h-92v-241h186l60 133h16v-150h-450v17z" />
    <glyph glyph-name="Ebreve.002" horiz-adv-x="603" 
d="M337 794q25 0 45 6.5t35.5 16t27 20.5t19.5 20l12 -10q-8 -16 -17.5 -30t-24 -27.5t-34.5 -25.5t-50 -24q-30 0 -55 9.5t-44.5 24.5t-33.5 34t-23 39l13 10q7 -9 18.5 -20t28 -20.5t37 -16t46.5 -6.5zM24 16l63 8v652l-63 8v16h548v-190h-16l-76 171h-238v-305h125
l48 125h17v-267h-17l-48 124h-125v-339h242l71 178h17v-197h-548v16z" />
    <glyph glyph-name="Ebreve.sc" horiz-adv-x="515" 
d="M283 610q43 0 68.5 16t39.5 29l12 -10q-7 -16 -15.5 -28t-20.5 -22.5t-29.5 -20.5t-42.5 -20q-51 0 -85 27.5t-50 62.5l12 11q13 -13 40.5 -29t70.5 -16zM30 17l46 7v460l-46 7v17h452v-143h-16l-64 126h-184v-216h92l41 95h16v-206h-16l-41 94h-92v-241h186l60 133h16
v-150h-450v17z" />
    <glyph glyph-name="Ecaron.002" horiz-adv-x="603" 
d="M322 796h5l116 63h27l-120 -118h-51l-120 118h27zM24 16l63 8v652l-63 8v16h548v-190h-16l-76 171h-238v-305h125l48 125h17v-267h-17l-48 124h-125v-339h242l71 178h17v-197h-548v16z" />
    <glyph glyph-name="Ecaron.sc" horiz-adv-x="515" 
d="M288 610l106 49h21l-107 -100h-46l-107 100h21l106 -49h6zM30 17l46 7v460l-46 7v17h452v-143h-16l-64 126h-184v-216h92l41 95h16v-206h-16l-41 94h-92v-241h186l60 133h16v-150h-450v17z" />
    <glyph glyph-name="Ecircumflex.002" horiz-adv-x="603" 
d="M218 736h-27l120 118h51l120 -118h-27l-116 63h-5zM24 16l63 8v652l-63 8v16h548v-190h-16l-76 171h-238v-305h125l48 125h17v-267h-17l-48 124h-125v-339h242l71 178h17v-197h-548v16z" />
    <glyph glyph-name="Ecircumflex.sc" horiz-adv-x="515" 
d="M174 559h-21l107 101h46l106 -101h-20l-106 50h-6zM30 17l46 7v460l-46 7v17h452v-143h-16l-64 126h-184v-216h92l41 95h16v-206h-16l-41 94h-92v-241h186l60 133h16v-150h-450v17z" />
    <glyph glyph-name="Edieresis.002" horiz-adv-x="603" 
d="M200 852l63 5l25 -5l6 -49l-10 -43l-62 -6l-26 6l-5 51zM393 852l62 5l25 -5l6 -49l-10 -43l-62 -6l-26 6l-5 51zM24 16l63 8v652l-63 8v16h548v-190h-16l-76 171h-238v-305h125l48 125h17v-267h-17l-48 124h-125v-339h242l71 178h17v-197h-548v16z" />
    <glyph glyph-name="Edieresis.sc" horiz-adv-x="515" 
d="M341 644l60 5l25 -5l6 -48l-10 -40l-60 -5l-25 5l-6 48zM151 644l61 5l25 -5l6 -48l-11 -40l-60 -5l-25 5l-5 48zM30 17l46 7v460l-46 7v17h452v-143h-16l-64 126h-184v-216h92l41 95h16v-206h-16l-41 94h-92v-241h186l60 133h16v-150h-450v17z" />
    <glyph glyph-name="Edotaccent.002" horiz-adv-x="603" 
d="M294 852l64 5l27 -5l6 -51l-11 -45l-64 -5l-27 5l-5 53zM24 16l63 8v652l-63 8v16h548v-190h-16l-76 171h-238v-305h125l48 125h17v-267h-17l-48 124h-125v-339h242l71 178h17v-197h-548v16z" />
    <glyph glyph-name="Edotaccent.sc" horiz-adv-x="515" 
d="M240 658l75 5l25 -5l6 -51l-10 -44l-75 -5l-26 5l-5 52zM30 17l46 7v460l-46 7v17h452v-143h-16l-64 126h-184v-216h92l41 95h16v-206h-16l-41 94h-92v-241h186l60 133h16v-150h-450v17z" />
    <glyph glyph-name="Egrave.002" horiz-adv-x="603" 
d="M346 744l-132 107h124l37 -107h-29zM24 16l63 8v652l-63 8v16h548v-190h-16l-76 171h-238v-305h125l48 125h17v-267h-17l-48 124h-125v-339h242l71 178h17v-197h-548v16z" />
    <glyph glyph-name="Egrave.sc" horiz-adv-x="515" 
d="M295 559l-123 100h107l38 -100h-22zM30 17l46 7v460l-46 7v17h452v-143h-16l-64 126h-184v-216h92l41 95h16v-206h-16l-41 94h-92v-241h186l60 133h16v-150h-450v17z" />
    <glyph glyph-name="Emacron.002" horiz-adv-x="603" 
d="M192 827h291v-42h-291v42zM24 16l63 8v652l-63 8v16h548v-190h-16l-76 171h-238v-305h125l48 125h17v-267h-17l-48 124h-125v-339h242l71 178h17v-197h-548v16z" />
    <glyph glyph-name="Emacron.sc" horiz-adv-x="515" 
d="M163 626h241v-53h-241v53zM30 17l46 7v460l-46 7v17h452v-143h-16l-64 126h-184v-216h92l41 95h16v-206h-16l-41 94h-92v-241h186l60 133h16v-150h-450v17z" />
    <glyph glyph-name="Eng.001" horiz-adv-x="679" 
d="M510 -175h-141v69l119 2l63 78l39 21h-58l-424 655v-626l71 -8v-16h-155v16l63 8v652l-63 8v16h244l317 -483v459l-70 8v16h154v-16l-62 -8v-681z" />
    <glyph glyph-name="Eng.sc" horiz-adv-x="584" 
d="M441 -4l-345 468v-440l54 -7v-17h-120v17l46 7v460l-46 7v17h212l249 -335v311l-54 7v17h119v-17l-46 -7v-488l-102 -167h-109v107h108l54 45l34 15h-54z" />
    <glyph glyph-name="Eogonek.001" horiz-adv-x="603" 
d="M24 16l63 8v652l-63 8v16h548v-190h-16l-76 171h-238v-305h125l48 125h17v-267h-17l-48 124h-125v-339h242l71 178h17v-197h-56l-49 -76v-24q0 -38 26 -51t66 -13v-14q-95 0 -133 20.5t-38 66.5v28l98 63h-462v16z" />
    <glyph glyph-name="Eogonek.sc" horiz-adv-x="517" 
d="M481 -181q-87 0 -122 19.5t-35 54.5v50l88 57h-382v17l46 7v460l-46 7v17h452v-143h-16l-64 126h-184v-216h92l41 95h16v-206h-16l-41 94h-92v-241h186l60 133h16v-150h-44l-39 -72v-35q0 -23 18.5 -41.5t65.5 -18.5v-14z" />
    <glyph glyph-name="Eth.sc" horiz-adv-x="611" 
d="M19 0v17l48 7v233h-40v14h40v213l-48 7v17h273q69 0 121 -17t87 -48.5t53 -75.5t18 -99q0 -56 -16.5 -102.5t-51 -81t-87.5 -56t-127 -28.5h-270zM266 17q36 0 64.5 18.5t48.5 51t31 78t11 99.5q0 48 -9 89.5t-28.5 72t-49.5 48t-72 17.5l-53 -7v-213h95v-14h-95v-233z
" />
    <glyph glyph-name="Euro.sc" horiz-adv-x="568" 
d="M45 224h29v14q0 11 1 23t3 23h-33v17h37q21 84 93 141t184 77q103 0 166 -33v-156h-16l-71 143q-17 17 -34.5 23.5t-42.5 6.5q-57 0 -93.5 -51.5t-41.5 -150.5h197l-15 -17h-182v-7q0 -28 3 -53h139l-14 -17h-123q6 -35 18 -64.5t31.5 -51t45.5 -34t61 -12.5
q34 0 68.5 13.5t63.5 30.5l9 -14q-32 -21 -78 -45t-103 -41q-47 0 -93 11t-84 36.5t-63.5 67.5t-31.5 103h-30v17z" />
    <glyph glyph-name="Euro.tlf" 
d="M17 306h40v28q0 15 1 30t3 30h-44v19h47q23 123 110.5 202t223.5 101q61 0 113.5 -14.5t87.5 -34.5v-196h-17l-82 177q-22 26 -46.5 38.5t-58.5 12.5q-35 0 -65.5 -18t-53.5 -54t-37 -89.5t-17 -124.5h256l-15 -19h-241v-12q0 -20 1 -39t3 -37h186l-15 -19h-169
q7 -50 22 -93t39.5 -74.5t59 -50t80.5 -18.5q21 0 43.5 5.5t44 13.5t41 18.5t35.5 21.5l9 -17q-16 -13 -38.5 -28.5t-50 -30t-59 -27.5t-64.5 -22q-58 0 -114 16t-102 52t-77 93.5t-38 140.5h-42v19z" />
    <glyph glyph-name="Euro.tlf.sc" 
d="M76 224h29v14q0 11 1 23t3 23h-33v17h37q21 84 93 141t184 77q103 0 166 -33v-156h-16l-71 143q-17 17 -34.5 23.5t-42.5 6.5q-57 0 -93.5 -51.5t-41.5 -150.5h197l-15 -17h-182v-7q0 -28 3 -53h139l-14 -17h-123q6 -35 18 -64.5t31.5 -51t45.5 -34t61 -12.5
q34 0 68.5 13.5t63.5 30.5l9 -14q-32 -21 -78 -45t-103 -41q-47 0 -93 11t-84 36.5t-63.5 67.5t-31.5 103h-30v17z" />
    <glyph glyph-name="F.sc" horiz-adv-x="499" 
d="M278 0h-248v17l46 7v460l-46 7v17h449v-150h-15l-71 133h-175v-227h92l41 95h16v-209h-16l-41 97h-92v-223l60 -7v-17z" />
    <glyph glyph-name="G.sc" horiz-adv-x="615" 
d="M543 30q-47 -15 -99.5 -26.5t-129.5 -16.5q-57 0 -108.5 17t-90.5 49t-62.5 79t-23.5 106q0 130 85 199t240 84q31 0 57 -2t48 -6.5t41.5 -11t39.5 -15.5v-152h-15l-71 135q-17 15 -40 24.5t-59 9.5t-66 -16t-51.5 -47t-34 -75.5t-12.5 -101.5q0 -55 8.5 -102t26 -81
t44.5 -53.5t64 -19.5q23 0 40 7t27 15v184l-55 7v20h239v-20l-42 -7v-183v0z" />
    <glyph glyph-name="Gbreve.002" horiz-adv-x="727" 
d="M405 794q25 0 45.5 6.5t36 16t26.5 20.5t19 20l13 -10q-8 -16 -17.5 -30t-24 -27.5t-34.5 -25.5t-50 -24q-30 0 -55.5 9.5t-45 24.5t-33.5 34t-22 39l12 10q7 -9 19 -20t28 -20.5t37 -16t46 -6.5zM654 43q-28 -12 -57 -21.5t-62 -17.5t-71.5 -13t-83.5 -8
q-69 0 -132 23.5t-110.5 68.5t-75.5 110t-28 148q0 172 102 269.5t287 114.5q76 0 129 -14.5t97 -36.5v-187h-17l-80 163q-22 25 -52 40.5t-76 15.5q-48 0 -87 -24.5t-67 -69.5t-43.5 -108.5t-15.5 -141.5q0 -72 11.5 -136t35 -111.5t59.5 -75t85 -27.5q34 0 58 12t39 29
v250l-71 8v20h280v-20l-54 -8v-252z" />
    <glyph glyph-name="Gbreve.sc" horiz-adv-x="615" 
d="M543 30q-47 -15 -99.5 -26.5t-129.5 -16.5q-57 0 -108.5 17t-90.5 49t-62.5 79t-23.5 106q0 130 85 199t240 84q31 0 57 -2t48 -6.5t41.5 -11t39.5 -15.5v-152h-15l-71 135q-17 15 -40 24.5t-59 9.5t-66 -16t-51.5 -47t-34 -75.5t-12.5 -101.5q0 -55 8.5 -102t26 -81
t44.5 -53.5t64 -19.5q23 0 40 7t27 15v184l-55 7v20h239v-20l-42 -7v-183zM335 610q43 0 68.5 16t39.5 29l11 -10q-7 -16 -15 -28t-20 -22.5t-29.5 -20.5t-43.5 -20q-50 0 -84 27.5t-49 62.5l11 11q14 -13 41 -29t70 -16z" />
    <glyph glyph-name="Gcircumflex.002" horiz-adv-x="727" 
d="M296 736h-27l120 118h51l121 -118h-28l-115 63h-6zM654 43q-28 -12 -57 -21.5t-62 -17.5t-71.5 -13t-83.5 -8q-69 0 -132 23.5t-110.5 68.5t-75.5 110t-28 148q0 172 102 269.5t287 114.5q76 0 129 -14.5t97 -36.5v-187h-17l-80 163q-22 25 -52 40.5t-76 15.5
q-48 0 -87 -24.5t-67 -69.5t-43.5 -108.5t-15.5 -141.5q0 -72 11.5 -136t35 -111.5t59.5 -75t85 -27.5q34 0 58 12t39 29v250l-71 8v20h280v-20l-54 -8v-252z" />
    <glyph glyph-name="Gcircumflex.sc" horiz-adv-x="615" 
d="M234 559h-20l106 101h46l107 -101h-21l-106 50h-6zM543 30q-47 -15 -99.5 -26.5t-129.5 -16.5q-57 0 -108.5 17t-90.5 49t-62.5 79t-23.5 106q0 130 85 199t240 84q31 0 57 -2t48 -6.5t41.5 -11t39.5 -15.5v-152h-15l-71 135q-17 15 -40 24.5t-59 9.5t-66 -16t-51.5 -47
t-34 -75.5t-12.5 -101.5q0 -55 8.5 -102t26 -81t44.5 -53.5t64 -19.5q23 0 40 7t27 15v184l-55 7v20h239v-20l-42 -7v-183z" />
    <glyph glyph-name="Gcommaaccent.001" horiz-adv-x="727" 
d="M379 -118l-55 33v32h125v-61l-96 -70l-12 6zM654 43q-28 -12 -57 -21.5t-62 -17.5t-71.5 -13t-83.5 -8q-69 0 -132 23.5t-110.5 68.5t-75.5 110t-28 148q0 172 102 269.5t287 114.5q76 0 129 -14.5t97 -36.5v-187h-17l-80 163q-22 25 -52 40.5t-76 15.5q-48 0 -87 -24.5
t-67 -69.5t-43.5 -108.5t-15.5 -141.5q0 -72 11.5 -136t35 -111.5t59.5 -75t85 -27.5q34 0 58 12t39 29v250l-71 8v20h280v-20l-54 -8v-252z" />
    <glyph glyph-name="Gcommaaccent.sc" horiz-adv-x="615" 
d="M543 30q-47 -15 -99.5 -26.5t-129.5 -16.5q-57 0 -108.5 17t-90.5 49t-62.5 79t-23.5 106q0 130 85 199t240 84q31 0 57 -2t48 -6.5t41.5 -11t39.5 -15.5v-152h-15l-71 135q-17 15 -40 24.5t-59 9.5t-66 -16t-51.5 -47t-34 -75.5t-12.5 -101.5q0 -55 8.5 -102t26 -81
t44.5 -53.5t64 -19.5q23 0 40 7t27 15v184l-55 7v20h239v-20l-42 -7v-183zM316 -103l-43 37v29h114v-57l-103 -89l-15 4z" />
    <glyph glyph-name="Gdotaccent.002" horiz-adv-x="727" 
d="M372 852l64 5l27 -5l6 -51l-11 -45l-64 -5l-27 5l-5 53zM654 43q-28 -12 -57 -21.5t-62 -17.5t-71.5 -13t-83.5 -8q-69 0 -132 23.5t-110.5 68.5t-75.5 110t-28 148q0 172 102 269.5t287 114.5q76 0 129 -14.5t97 -36.5v-187h-17l-80 163q-22 25 -52 40.5t-76 15.5
q-48 0 -87 -24.5t-67 -69.5t-43.5 -108.5t-15.5 -141.5q0 -72 11.5 -136t35 -111.5t59.5 -75t85 -27.5q34 0 58 12t39 29v250l-71 8v20h280v-20l-54 -8v-252z" />
    <glyph glyph-name="Gdotaccent.sc" horiz-adv-x="615" 
d="M543 30q-47 -15 -99.5 -26.5t-129.5 -16.5q-57 0 -108.5 17t-90.5 49t-62.5 79t-23.5 106q0 130 85 199t240 84q31 0 57 -2t48 -6.5t41.5 -11t39.5 -15.5v-152h-15l-71 135q-17 15 -40 24.5t-59 9.5t-66 -16t-51.5 -47t-34 -75.5t-12.5 -101.5q0 -55 8.5 -102t26 -81
t44.5 -53.5t64 -19.5q23 0 40 7t27 15v184l-55 7v20h239v-20l-42 -7v-183zM295 658l75 5l26 -5l6 -51l-11 -44l-74 -5l-26 5l-5 52z" />
    <glyph glyph-name="H.sc" horiz-adv-x="624" 
d="M218 274h187v210l-43 7v17h232v-17l-46 -7v-460l46 -7v-17h-232v17l43 7v229h-187v-229l43 -7v-17h-231v17l46 7v460l-46 7v17h231v-17l-43 -7v-210z" />
    <glyph glyph-name="Hbar.sc" horiz-adv-x="624" 
d="M218 365h187v119l-43 7v17h232v-17l-46 -7v-460l46 -7v-17h-232v17l43 7v229h-187v-229l43 -7v-17h-231v17l46 7v460l-46 7v17h231v-17l-43 -7v-119zM218 274h187v78h-187v-78z" />
    <glyph glyph-name="Hcircumflex.002" horiz-adv-x="736" 
d="M242 374h251v302l-59 8v16h277v-16l-62 -8v-652l62 -8v-16h-277v16l59 8v329h-251v-329l60 -8v-16h-278v16l63 8v652l-63 8v16h278v-16l-60 -8v-302zM255 736h-28l121 118h51l120 -118h-27l-116 63h-6z" />
    <glyph glyph-name="Hcircumflex.sc" horiz-adv-x="624" 
d="M218 274h187v210l-43 7v17h232v-17l-46 -7v-460l46 -7v-17h-232v17l43 7v229h-187v-229l43 -7v-17h-231v17l46 7v460l-46 7v17h231v-17l-43 -7v-210zM207 559h-22l107 101h46l107 -101h-21l-106 50h-6z" />
    <glyph glyph-name="I.sc" horiz-adv-x="294" 
d="M218 24l46 -7v-17h-234v17l46 7v460l-46 7v17h234v-17l-46 -7v-460z" />
    <glyph glyph-name="IJ.sc" horiz-adv-x="541" 
d="M468 144q0 -35 -10.5 -67t-26 -59t-34.5 -49.5t-37 -39.5l-67 -56h-59v91h88l1 22q3 25 3 68v430l-40 7v17h228v-17l-46 -7v-340zM219 24l39 -7v-17h-228v17l46 7v460l-46 7v17h224v-17l-35 -7v-460z" />
    <glyph glyph-name="Iacute.002" horiz-adv-x="329" 
d="M126 744l37 107h124l-132 -107h-29zM242 24l63 -8v-16h-281v16l63 8v652l-63 8v16h281v-16l-63 -8v-652z" />
    <glyph glyph-name="Iacute.sc" horiz-adv-x="294" 
d="M168 659h107l-123 -100h-21zM218 24l45 -7v-17h-234v17l47 7v460l-47 7v17h234v-17l-45 -7v-460z" />
    <glyph glyph-name="Ibreve.002" horiz-adv-x="329" 
d="M166 794q25 0 45 6.5t35.5 16t27 20.5t19.5 20l12 -10q-8 -16 -17 -30t-23.5 -27.5t-35 -25.5t-50.5 -24q-30 0 -55 9.5t-44.5 24.5t-33.5 34t-23 39l13 10q7 -9 18.5 -20t28 -20.5t37 -16t46.5 -6.5zM242 24l63 -8v-16h-281v16l63 8v652l-63 8v16h281v-16l-63 -8v-652z
" />
    <glyph glyph-name="Ibreve.sc" horiz-adv-x="294" 
d="M150 611q43 0 68.5 15.5t39.5 28.5l12 -10q-8 -16 -16 -28t-20.5 -22.5t-30 -20.5t-42.5 -20q-51 0 -85 27.5t-49 62.5l12 11q13 -13 40.5 -28.5t70.5 -15.5zM218 24l45 -7v-17h-234v17l47 7v460l-47 7v17h234v-17l-45 -7v-460z" />
    <glyph glyph-name="Icircumflex.002" horiz-adv-x="329" 
d="M48 736h-28l121 118h51l120 -118h-27l-116 63h-6zM242 24l63 -8v-16h-281v16l63 8v652l-63 8v16h281v-16l-63 -8v-652z" />
    <glyph glyph-name="Icircumflex.sc" horiz-adv-x="294" 
d="M38 559h-21l106 101h47l107 -101h-22l-106 50h-6zM218 24l45 -7v-17h-234v17l47 7v460l-47 7v17h234v-17l-45 -7v-460z" />
    <glyph glyph-name="Idieresis.002" horiz-adv-x="329" 
d="M27 852l63 5l25 -5l6 -49l-10 -43l-62 -6l-26 6l-5 51zM220 852l62 5l25 -5l6 -49l-10 -43l-62 -6l-26 6l-5 51zM242 24l63 -8v-16h-281v16l63 8v652l-63 8v16h281v-16l-63 -8v-652z" />
    <glyph glyph-name="Idieresis.sc" horiz-adv-x="294" 
d="M25 644l60 5l25 -5l6 -48l-10 -40l-60 -5l-25 5l-6 48zM189 644l60 5l25 -5l6 -48l-11 -40l-59 -5l-26 5l-5 48zM218 24l45 -7v-17h-234v17l47 7v460l-47 7v17h234v-17l-45 -7v-460z" />
    <glyph glyph-name="Idotaccent.002" horiz-adv-x="329" 
d="M124 852l64 5l26 -5l6 -51l-10 -45l-64 -5l-27 5l-5 53zM242 24l63 -8v-16h-281v16l63 8v652l-63 8v16h281v-16l-63 -8v-652z" />
    <glyph glyph-name="Idotaccent.sc" horiz-adv-x="294" 
d="M102 658l75 5l25 -5l6 -51l-11 -44l-74 -5l-26 5l-5 52zM218 24l45 -7v-17h-234v17l47 7v460l-47 7v17h234v-17l-45 -7v-460z" />
    <glyph glyph-name="Igrave.002" horiz-adv-x="329" 
d="M191 744l-132 107h124l37 -107h-29zM242 24l63 -8v-16h-281v16l63 8v652l-63 8v16h281v-16l-63 -8v-652z" />
    <glyph glyph-name="Igrave.sc" horiz-adv-x="294" 
d="M168 559l-124 100h107l38 -100h-21zM218 24l45 -7v-17h-234v17l47 7v460l-47 7v17h234v-17l-45 -7v-460z" />
    <glyph glyph-name="Imacron.002" horiz-adv-x="329" 
d="M20 827h292v-42h-292v42zM242 24l63 -8v-16h-281v16l63 8v652l-63 8v16h281v-16l-63 -8v-652z" />
    <glyph glyph-name="Imacron.sc" horiz-adv-x="294" 
d="M26 626h241v-53h-241v53zM218 24l45 -7v-17h-234v17l47 7v460l-47 7v17h234v-17l-45 -7v-460z" />
    <glyph glyph-name="Iogonek.001" horiz-adv-x="329" 
d="M242 24l63 -8v-16h-104l-49 -76v-24q0 -38 26 -51t66 -13v-14q-95 0 -133 20.5t-38 66.5v28l98 63h-147v16l63 8v652l-63 8v16h281v-16l-63 -8v-652z" />
    <glyph glyph-name="Iogonek.sc" horiz-adv-x="294" 
d="M218 24l45 -7v-17h-97l-28 -72v-35q0 -23 18 -41.5t71 -18.5v-14q-89 0 -125.5 18.5t-36.5 55.5v37l70 70h-106v17l47 7v460l-47 7v17h234v-17l-45 -7v-460z" />
    <glyph glyph-name="Itilde.002" horiz-adv-x="329" 
d="M49 847l48 15l196 -58l40 59h12l-47 -106l-49 -14l-197 60l-39 -61h-12zM242 24l63 -8v-16h-281v16l63 8v652l-63 8v16h281v-16l-63 -8v-652z" />
    <glyph glyph-name="Itilde.sc" horiz-adv-x="294" 
d="M37 650l35 8l177 -45l35 45h12l-28 -106l-35 -6l-179 46l-33 -46h-13zM218 24l45 -7v-17h-234v17l47 7v460l-47 7v17h234v-17l-45 -7v-460z" />
    <glyph glyph-name="J.sc" horiz-adv-x="317" 
d="M243 143q0 -36 -10 -68t-26 -59t-34.5 -49.5t-36.5 -38.5l-67 -55h-60v106h88l1 22q3 25 3 68v415l-67 7v17h256v-17l-47 -7v-341z" />
    <glyph glyph-name="Jcircumflex.002" horiz-adv-x="355" 
d="M76 736h-27l120 118h51l121 -118h-28l-115 63h-6zM273 155q0 -41 -10.5 -76.5t-27 -65t-37 -54.5t-40.5 -45l-84 -89h-71v119h108l3 25q2 18 3 45t1 78v584l-87 8v16h305v-16l-63 -8v-521z" />
    <glyph glyph-name="Jcircumflex.sc" horiz-adv-x="317" 
d="M55 559h-22l107 101h46l107 -101h-21l-106 50h-6zM234 143q0 -36 -10 -68t-26 -59t-34.5 -49.5t-36.5 -38.5l-67 -55h-60v106h87l2 22q1 13 2 30t1 38v415l-68 7v17h256v-17l-46 -7v-341z" />
    <glyph glyph-name="K.sc" horiz-adv-x="617" 
d="M218 265l258 219l-74 8v16h176v-16l-76 -8l-253 -211l103 39l220 -288l33 -7v-17h-188l-199 252v-228l43 -7v-17h-231v17l46 7v460l-46 7v17h231v-17l-43 -7v-219z" />
    <glyph glyph-name="Kcommaaccent.001" horiz-adv-x="725" 
d="M242 365l321 311l-90 8v16h209v-16l-91 -8l-315 -304l113 39l280 -387l46 -8v-16h-217l-256 348v-324l60 -8v-16h-278v16l63 8v652l-63 8v16h278v-16l-60 -8v-311zM364 -118l-56 33v32h125v-61l-95 -70l-12 6z" />
    <glyph glyph-name="Kcommaaccent.sc" horiz-adv-x="617" 
d="M218 265l258 219l-74 8v16h176v-16l-76 -8l-253 -211l103 39l220 -288l33 -7v-17h-188l-199 252v-228l43 -7v-17h-231v17l46 7v460l-46 7v17h231v-17l-43 -7v-219zM309 -103l-42 37v29h114v-57l-103 -89l-14 4z" />
    <glyph glyph-name="L.sc" horiz-adv-x="489" 
d="M30 0v17l46 7v460l-46 7v17h234v-17l-46 -7v-460h167l76 129h15v-153h-446z" />
    <glyph glyph-name="Lacute.002" horiz-adv-x="573" 
d="M149 744l37 107h124l-132 -107h-29zM24 0v16l63 8v652l-63 8v16h281v-16l-63 -8v-652h217l88 178h16v-202h-539z" />
    <glyph glyph-name="Lacute.sc" horiz-adv-x="489" 
d="M172 659h107l-123 -100h-22zM30 0v17l46 7v460l-46 7v17h234v-17l-46 -7v-460h167l76 129h15v-153h-446z" />
    <glyph glyph-name="Lcaron.sc" horiz-adv-x="494" 
d="M362 297l62 106l-44 -3l-27 6l-5 58l9 46l76 5l30 -5l5 -54l-10 -50l-85 -114zM30 0v17l46 7v460l-46 7v17h234v-17l-46 -7v-460h167l76 129h15v-153h-446z" />
    <glyph glyph-name="Lcommaaccent.001" horiz-adv-x="573" 
d="M305 -118l-56 33v32h125v-61l-95 -70l-12 6zM24 0v16l63 8v652l-63 8v16h281v-16l-63 -8v-652h217l88 178h16v-202h-539z" />
    <glyph glyph-name="Lcommaaccent.sc" horiz-adv-x="489" 
d="M258 -103l-43 37v29h114v-57l-102 -89l-15 4zM30 0v17l46 7v460l-46 7v17h234v-17l-46 -7v-460h167l76 129h15v-153h-446z" />
    <glyph glyph-name="Ldot.sc" horiz-adv-x="489" 
d="M310 341l75 4l26 -4l5 -52l-10 -43l-75 -6l-26 6l-5 51zM30 0v17l46 7v460l-46 7v17h234v-17l-46 -7v-460h167l76 129h15v-153h-446z" />
    <glyph glyph-name="Lslash.sc" horiz-adv-x="489" 
d="M30 0v17l46 7v203l-40 -18v20l40 18v237l-46 7v17h234v-17l-46 -7v-173l77 35v-20l-77 -35v-267h167l76 129h15v-153h-446z" />
    <glyph glyph-name="M.sc" horiz-adv-x="773" 
d="M551 439l-187 -443h-66l-202 465v-437l51 -7v-17h-117v17l46 7v460l-46 7v17h202l165 -372l161 372h185v-17l-50 -7v-460l50 -7v-17h-234v17l42 7v415z" />
    <glyph glyph-name="N.sc" horiz-adv-x="584" 
d="M441 -4l-345 468v-440l54 -7v-17h-120v17l46 7v460l-46 7v17h212l249 -335v311l-54 7v17h119v-17l-46 -7v-488h-69z" />
    <glyph glyph-name="Nacute.002" horiz-adv-x="679" 
d="M346 744l38 107h124l-133 -107h-29zM532 -5l-424 655v-626l71 -8v-16h-155v16l63 8v652l-63 8v16h244l317 -483v459l-70 8v16h154v-16l-62 -8v-681h-75z" />
    <glyph glyph-name="Nacute.sc" horiz-adv-x="584" 
d="M441 -4l-345 468v-440l54 -7v-17h-120v17l46 7v460l-46 7v17h212l249 -335v311l-54 7v17h119v-17l-46 -7v-488h-69zM320 659h107l-124 -100h-21z" />
    <glyph glyph-name="Ncaron.002" horiz-adv-x="679" 
d="M370 796h6l116 63h27l-120 -118h-51l-121 118h28zM532 -5l-424 655v-626l71 -8v-16h-155v16l63 8v652l-63 8v16h244l317 -483v459l-70 8v16h154v-16l-62 -8v-681h-75z" />
    <glyph glyph-name="Ncaron.sc" horiz-adv-x="584" 
d="M441 -4l-345 468v-440l54 -7v-17h-120v17l46 7v460l-46 7v17h212l249 -335v311l-54 7v17h119v-17l-46 -7v-488h-69zM324 610l106 49h22l-107 -100h-47l-106 100h21l105 -49h6z" />
    <glyph glyph-name="Ncommaaccent.001" horiz-adv-x="679" 
d="M342 -118l-56 33v32h125v-61l-95 -70l-12 6zM532 -5l-424 655v-626l71 -8v-16h-155v16l63 8v652l-63 8v16h244l317 -483v459l-70 8v16h154v-16l-62 -8v-681h-75z" />
    <glyph glyph-name="Ncommaaccent.sc" horiz-adv-x="584" 
d="M441 -4l-345 468v-440l54 -7v-17h-120v17l46 7v460l-46 7v17h212l249 -335v311l-54 7v17h119v-17l-46 -7v-488h-69zM296 -103l-42 37v29h113v-57l-102 -89l-14 4z" />
    <glyph glyph-name="Ntilde.002" horiz-adv-x="679" 
d="M249 847l48 15l196 -58l41 59h12l-48 -106l-49 -14l-197 60l-39 -61h-12zM532 -5l-424 655v-626l71 -8v-16h-155v16l63 8v652l-63 8v16h244l317 -483v459l-70 8v16h154v-16l-62 -8v-681h-75z" />
    <glyph glyph-name="Ntilde.sc" horiz-adv-x="584" 
d="M441 -4l-345 468v-440l54 -7v-17h-120v17l46 7v460l-46 7v17h212l249 -335v311l-54 7v17h119v-17l-46 -7v-488h-69zM211 650l36 8l177 -45l35 45h12l-28 -106l-35 -6l-179 46l-34 -46h-12z" />
    <glyph glyph-name="O.sc" horiz-adv-x="639" 
d="M335 10q30 0 51.5 19.5t35 51t20 71.5t6.5 82q0 58 -10.5 106.5t-30 83.5t-46 54.5t-57.5 19.5q-30 0 -51 -19.5t-35 -51t-20.5 -71.5t-6.5 -81q0 -59 10.5 -107.5t30 -83.5t45.5 -54.5t58 -19.5zM310 -13q-64 0 -116 18t-88.5 51.5t-56.5 81t-20 106.5q0 58 18 102.5
t55 77.5t93.5 56.5t133.5 40.5q64 0 116 -18t88.5 -51.5t56.5 -81t20 -106.5q0 -58 -18 -102.5t-55 -77.5t-93.5 -57t-133.5 -40z" />
    <glyph glyph-name="OE.sc" horiz-adv-x="832" 
d="M401 24v460l-85 14q-33 0 -56.5 -20t-38.5 -52t-22.5 -72.5t-7.5 -81.5q0 -59 11 -107t30.5 -82.5t46.5 -53.5t59 -19zM323 -13q-67 0 -121 18t-92.5 51.5t-59.5 81t-21 106.5q0 58 18.5 102.5t56.5 77.5t96.5 56.5t138.5 40.5l114 -13h347v-143h-16l-65 126h-176v-216
h84l42 95h15v-206h-15l-42 94h-84v-241h179l60 133h16v-150h-394z" />
    <glyph glyph-name="Oacute.002" horiz-adv-x="771" 
d="M349 744l38 107h124l-133 -107h-29zM405 10q39 0 68 26t48 69.5t28.5 101t9.5 120.5q0 79 -14.5 146t-40 115t-61 75t-77.5 27q-39 0 -68.5 -26t-48.5 -69.5t-28.5 -101t-9.5 -120.5q0 -80 14.5 -146.5t40 -114.5t61.5 -75t78 -27zM374 -17q-77 0 -139.5 26t-107 72.5
t-69 112t-24.5 143.5q0 159 88 251t274 129q77 0 140 -26t107.5 -72.5t69 -112t24.5 -143.5q0 -159 -88 -251t-275 -129z" />
    <glyph glyph-name="Oacute.sc" horiz-adv-x="639" 
d="M339 659h107l-124 -100h-21zM333 10q30 0 51.5 19.5t35 51t20 71.5t6.5 82q0 58 -10.5 106.5t-30 83.5t-46 54.5t-57.5 19.5q-30 0 -51 -19.5t-35 -51t-20.5 -71.5t-6.5 -81q0 -59 10.5 -107.5t30 -83.5t45.5 -54.5t58 -19.5zM308 -13q-64 0 -116 18t-88.5 51.5t-56.5 81
t-20 106.5q0 58 18 102.5t55 77.5t93.5 56.5t133.5 40.5q64 0 116 -18t88.5 -51.5t56 -81t19.5 -106.5q0 -58 -18 -102.5t-54.5 -77.5t-93 -57t-133.5 -40z" />
    <glyph glyph-name="Obreve.002" horiz-adv-x="771" 
d="M395 794q25 0 45.5 6.5t36 16t26.5 20.5t19 20l13 -10q-8 -16 -17.5 -30t-24 -27.5t-34.5 -25.5t-50 -24q-30 0 -55.5 9.5t-45 24.5t-33.5 34t-22 39l12 10q7 -9 19 -20t28 -20.5t37 -16t46 -6.5zM405 10q39 0 68 26t48 69.5t28.5 101t9.5 120.5q0 79 -14.5 146t-40 115
t-61 75t-77.5 27q-39 0 -68.5 -26t-48.5 -69.5t-28.5 -101t-9.5 -120.5q0 -80 14.5 -146.5t40 -114.5t61.5 -75t78 -27zM374 -17q-77 0 -139.5 26t-107 72.5t-69 112t-24.5 143.5q0 159 88 251t274 129q77 0 140 -26t107.5 -72.5t69 -112t24.5 -143.5q0 -159 -88 -251
t-275 -129z" />
    <glyph glyph-name="Obreve.sc" horiz-adv-x="639" 
d="M317 611q43 0 68 15.5t39 28.5l12 -10q-7 -16 -15.5 -28t-20.5 -22.5t-29.5 -20.5t-42.5 -20q-51 0 -85 27.5t-49 62.5l12 11q13 -13 40 -28.5t71 -15.5zM333 10q30 0 51.5 19.5t35 51t20 71.5t6.5 82q0 58 -10.5 106.5t-30 83.5t-46 54.5t-57.5 19.5q-30 0 -51 -19.5
t-35 -51t-20.5 -71.5t-6.5 -81q0 -59 10.5 -107.5t30 -83.5t45.5 -54.5t58 -19.5zM308 -13q-64 0 -116 18t-88.5 51.5t-56.5 81t-20 106.5q0 58 18 102.5t55 77.5t93.5 56.5t133.5 40.5q64 0 116 -18t88.5 -51.5t56 -81t19.5 -106.5q0 -58 -18 -102.5t-54.5 -77.5t-93 -57
t-133.5 -40z" />
    <glyph glyph-name="Ocircumflex.002" horiz-adv-x="771" 
d="M277 736h-27l120 118h51l120 -118h-27l-116 63h-5zM405 10q39 0 68 26t48 69.5t28.5 101t9.5 120.5q0 79 -14.5 146t-40 115t-61 75t-77.5 27q-39 0 -68.5 -26t-48.5 -69.5t-28.5 -101t-9.5 -120.5q0 -80 14.5 -146.5t40 -114.5t61.5 -75t78 -27zM374 -17
q-77 0 -139.5 26t-107 72.5t-69 112t-24.5 143.5q0 159 88 251t274 129q77 0 140 -26t107.5 -72.5t69 -112t24.5 -143.5q0 -159 -88 -251t-275 -129z" />
    <glyph glyph-name="Ocircumflex.sc" horiz-adv-x="639" 
d="M208 559h-21l107 101h46l107 -101h-21l-106 50h-7zM333 10q30 0 51.5 19.5t35 51t20 71.5t6.5 82q0 58 -10.5 106.5t-30 83.5t-46 54.5t-57.5 19.5q-30 0 -51 -19.5t-35 -51t-20.5 -71.5t-6.5 -81q0 -59 10.5 -107.5t30 -83.5t45.5 -54.5t58 -19.5zM308 -13
q-64 0 -116 18t-88.5 51.5t-56.5 81t-20 106.5q0 58 18 102.5t55 77.5t93.5 56.5t133.5 40.5q64 0 116 -18t88.5 -51.5t56 -81t19.5 -106.5q0 -58 -18 -102.5t-54.5 -77.5t-93 -57t-133.5 -40z" />
    <glyph glyph-name="Odieresis.002" horiz-adv-x="771" 
d="M255 852l63 5l25 -5l6 -49l-10 -43l-62 -6l-26 6l-5 51zM448 852l62 5l25 -5l6 -49l-10 -43l-62 -6l-26 6l-5 51zM405 10q39 0 68 26t48 69.5t28.5 101t9.5 120.5q0 79 -14.5 146t-40 115t-61 75t-77.5 27q-39 0 -68.5 -26t-48.5 -69.5t-28.5 -101t-9.5 -120.5
q0 -80 14.5 -146.5t40 -114.5t61.5 -75t78 -27zM374 -17q-77 0 -139.5 26t-107 72.5t-69 112t-24.5 143.5q0 159 88 251t274 129q77 0 140 -26t107.5 -72.5t69 -112t24.5 -143.5q0 -159 -88 -251t-275 -129z" />
    <glyph glyph-name="Odieresis.sc" horiz-adv-x="639" 
d="M185 644l61 5l25 -5l6 -48l-11 -40l-60 -5l-24 5l-6 48zM375 644l61 5l24 -5l6 -48l-10 -40l-59 -5l-26 5l-5 48zM333 10q30 0 51.5 19.5t35 51t20 71.5t6.5 82q0 58 -10.5 106.5t-30 83.5t-46 54.5t-57.5 19.5q-30 0 -51 -19.5t-35 -51t-20.5 -71.5t-6.5 -81
q0 -59 10.5 -107.5t30 -83.5t45.5 -54.5t58 -19.5zM308 -13q-64 0 -116 18t-88.5 51.5t-56.5 81t-20 106.5q0 58 18 102.5t55 77.5t93.5 56.5t133.5 40.5q64 0 116 -18t88.5 -51.5t56 -81t19.5 -106.5q0 -58 -18 -102.5t-54.5 -77.5t-93 -57t-133.5 -40z" />
    <glyph glyph-name="Ograve.002" horiz-adv-x="771" 
d="M391 744l-133 107h124l38 -107h-29zM405 10q39 0 68 26t48 69.5t28.5 101t9.5 120.5q0 79 -14.5 146t-40 115t-61 75t-77.5 27q-39 0 -68.5 -26t-48.5 -69.5t-28.5 -101t-9.5 -120.5q0 -80 14.5 -146.5t40 -114.5t61.5 -75t78 -27zM374 -17q-77 0 -139.5 26t-107 72.5
t-69 112t-24.5 143.5q0 159 88 251t274 129q77 0 140 -26t107.5 -72.5t69 -112t24.5 -143.5q0 -159 -88 -251t-275 -129z" />
    <glyph glyph-name="Ograve.sc" horiz-adv-x="639" 
d="M308 -13q-64 0 -116 18t-88.5 51.5t-56.5 81t-20 106.5q0 58 18 102.5t55 77.5t93.5 56.5t133.5 40.5q64 0 116 -18t88.5 -51.5t56 -81t19.5 -106.5q0 -58 -18 -102.5t-54.5 -77.5t-93 -57t-133.5 -40zM333 10q30 0 51.5 19.5t35 51t20 71.5t6.5 82q0 58 -10.5 106.5
t-30 83.5t-46 54.5t-57.5 19.5q-30 0 -51 -19.5t-35 -51t-20.5 -71.5t-6.5 -81q0 -59 10.5 -107.5t30 -83.5t45.5 -54.5t58 -19.5zM318 559l-123 100h107l37 -100h-21z" />
    <glyph glyph-name="Ohungarumlaut.002" horiz-adv-x="771" 
d="M500 850h124l-155 -101h-30zM321 850h124l-155 -101h-30zM405 10q39 0 68 26t48 69.5t28.5 101t9.5 120.5q0 79 -14.5 146t-40 115t-61 75t-77.5 27q-39 0 -68.5 -26t-48.5 -69.5t-28.5 -101t-9.5 -120.5q0 -80 14.5 -146.5t40 -114.5t61.5 -75t78 -27zM374 -17
q-77 0 -139.5 26t-107 72.5t-69 112t-24.5 143.5q0 159 88 251t274 129q77 0 140 -26t107.5 -72.5t69 -112t24.5 -143.5q0 -159 -88 -251t-275 -129z" />
    <glyph glyph-name="Ohungarumlaut.sc" horiz-adv-x="639" 
d="M425 659h111l-132 -100h-22zM276 659h112l-133 -100h-21zM333 10q30 0 51.5 19.5t35 51t20 71.5t6.5 82q0 58 -10.5 106.5t-30 83.5t-46 54.5t-57.5 19.5q-30 0 -51 -19.5t-35 -51t-20.5 -71.5t-6.5 -81q0 -59 10.5 -107.5t30 -83.5t45.5 -54.5t58 -19.5zM308 -13
q-64 0 -116 18t-88.5 51.5t-56.5 81t-20 106.5q0 58 18 102.5t55 77.5t93.5 56.5t133.5 40.5q64 0 116 -18t88.5 -51.5t56 -81t19.5 -106.5q0 -58 -18 -102.5t-54.5 -77.5t-93 -57t-133.5 -40z" />
    <glyph glyph-name="Omacron.002" horiz-adv-x="771" 
d="M248 827h292v-42h-292v42zM405 10q39 0 68 26t48 69.5t28.5 101t9.5 120.5q0 79 -14.5 146t-40 115t-61 75t-77.5 27q-39 0 -68.5 -26t-48.5 -69.5t-28.5 -101t-9.5 -120.5q0 -80 14.5 -146.5t40 -114.5t61.5 -75t78 -27zM374 -17q-77 0 -139.5 26t-107 72.5t-69 112
t-24.5 143.5q0 159 88 251t274 129q77 0 140 -26t107.5 -72.5t69 -112t24.5 -143.5q0 -159 -88 -251t-275 -129z" />
    <glyph glyph-name="Omacron.sc" horiz-adv-x="639" 
d="M193 626h241v-53h-241v53zM302 498q-30 0 -51 -19.5t-35 -51t-20.5 -71.5t-6.5 -81q0 -59 10.5 -107.5t30 -83.5t45.5 -54.5t58 -19.5q30 0 51.5 19.5t35 51t20 71.5t6.5 82q0 58 -10.5 106.5t-30 83.5t-46 54.5t-57.5 19.5zM308 -13q-64 0 -116 18t-88.5 51.5t-56.5 81
t-20 106.5q0 58 18 102.5t55 77.5t93.5 56.5t133.5 40.5q64 0 116 -18t88.5 -51.5t56 -81t19.5 -106.5q0 -58 -18 -102.5t-54.5 -77.5t-93 -57t-133.5 -40z" />
    <glyph glyph-name="Oslash.sc" horiz-adv-x="639" 
d="M308 -13q-103 0 -174 45l-40 -43h-29l52 56q-43 33 -66.5 83.5t-23.5 115.5q0 58 18 102.5t55 77.5t93.5 56.5t133.5 40.5q57 0 103.5 -14.5t82.5 -40.5l50 53h28l-62 -66q38 -34 58 -81.5t20 -107.5q0 -58 -18 -102.5t-54.5 -77.5t-93 -57t-133.5 -40zM189 275
q0 -76 17 -135l220 234q-18 57 -50 90.5t-74 33.5q-30 0 -51 -19.5t-35 -51t-20.5 -71.5t-6.5 -81zM333 10q30 0 51.5 19.5t35 51t20 71.5t6.5 82q0 32 -3.5 61.5t-9.5 55.5l-219 -234q19 -51 49.5 -79t69.5 -28z" />
    <glyph glyph-name="Oslashacute.002" horiz-adv-x="771" 
d="M374 -17q-64 0 -118 18t-96 51l-55 -67h-35l69 84q-51 48 -78 115.5t-27 152.5q0 159 88 251t274 129q66 0 121.5 -19.5t98.5 -54.5l60 72h32l-73 -88q49 -48 75.5 -115t26.5 -149q0 -159 -88 -251t-275 -129zM211 373q0 -54 6.5 -101t18.5 -87l291 351q-26 72 -67 113
t-94 41q-39 0 -68.5 -26t-48.5 -69.5t-28.5 -101t-9.5 -120.5zM405 10q39 0 68 26t48 69.5t28.5 101t9.5 120.5q0 100 -23 180l-291 -352q26 -68 67 -106.5t93 -38.5zM358 744l37 107h124l-132 -107h-29z" />
    <glyph glyph-name="Oslashacute.sc" horiz-adv-x="639" 
d="M308 -13q-103 0 -174 45l-40 -43h-29l52 56q-43 33 -66.5 83.5t-23.5 115.5q0 58 18 102.5t55 77.5t93.5 56.5t133.5 40.5q57 0 103.5 -14.5t82.5 -40.5l50 53h28l-62 -66q38 -34 58 -81.5t20 -107.5q0 -58 -18 -102.5t-54.5 -77.5t-93 -57t-133.5 -40zM189 275
q0 -76 17 -135l220 234q-18 57 -50 90.5t-74 33.5q-30 0 -51 -19.5t-35 -51t-20.5 -71.5t-6.5 -81zM333 10q30 0 51.5 19.5t35 51t20 71.5t6.5 82q0 32 -3.5 61.5t-9.5 55.5l-219 -234q19 -51 49.5 -79t69.5 -28zM339 659h107l-124 -100h-21z" />
    <glyph glyph-name="Otilde.002" horiz-adv-x="771" 
d="M270 847l48 15l196 -58l41 59h12l-48 -106l-49 -14l-197 60l-39 -61h-12zM405 10q39 0 68 26t48 69.5t28.5 101t9.5 120.5q0 79 -14.5 146t-40 115t-61 75t-77.5 27q-39 0 -68.5 -26t-48.5 -69.5t-28.5 -101t-9.5 -120.5q0 -80 14.5 -146.5t40 -114.5t61.5 -75t78 -27z
M374 -17q-77 0 -139.5 26t-107 72.5t-69 112t-24.5 143.5q0 159 88 251t274 129q77 0 140 -26t107.5 -72.5t69 -112t24.5 -143.5q0 -159 -88 -251t-275 -129z" />
    <glyph glyph-name="Otilde.sc" horiz-adv-x="639" 
d="M205 650l35 8l177 -45l35 45h12l-28 -106l-35 -6l-179 46l-33 -46h-13zM333 10q30 0 51.5 19.5t35 51t20 71.5t6.5 82q0 58 -10.5 106.5t-30 83.5t-46 54.5t-57.5 19.5q-30 0 -51 -19.5t-35 -51t-20.5 -71.5t-6.5 -81q0 -59 10.5 -107.5t30 -83.5t45.5 -54.5t58 -19.5z
M308 -13q-64 0 -116 18t-88.5 51.5t-56.5 81t-20 106.5q0 58 18 102.5t55 77.5t93.5 56.5t133.5 40.5q64 0 116 -18t88.5 -51.5t56 -81t19.5 -106.5q0 -58 -18 -102.5t-54.5 -77.5t-93 -57t-133.5 -40z" />
    <glyph glyph-name="P.sc" horiz-adv-x="509" 
d="M218 243h34q40 0 65 35t25 94q0 52 -19.5 85.5t-60.5 33.5l-44 -7v-241zM218 226v-202l47 -7v-17h-235v17l46 7v460l-46 7v17h285q35 0 67 -7t56.5 -22.5t39 -40t14.5 -58.5q0 -37 -17 -62.5t-46.5 -42.5t-69.5 -28.5t-86 -20.5h-55z" />
    <glyph glyph-name="Q.sc" horiz-adv-x="641" 
d="M570 -92l33 -11l-2 -20h-144l-147 110q-64 0 -116 18t-88.5 51.5t-56.5 81t-20 106.5q0 58 18 102.5t55 77.5t93.5 56.5t133.5 40.5q64 0 116 -18t88.5 -51.5t56.5 -81t20 -106.5q0 -113 -69 -176.5t-215 -96.5l135 -3zM335 10q30 0 51.5 19.5t35 51t20 71.5t6.5 82
q0 58 -10.5 106.5t-30 83.5t-46 54.5t-57.5 19.5q-30 0 -51 -19.5t-35 -51t-20.5 -71.5t-6.5 -81q0 -59 10.5 -107.5t30 -83.5t45.5 -54.5t58 -19.5z" />
    <glyph glyph-name="R.sc" horiz-adv-x="567" 
d="M218 240v-216l43 -7v-17h-231v17l46 7v460l-46 7v17h294q33 0 63.5 -7.5t53.5 -22.5t37 -38.5t14 -55.5q0 -63 -60.5 -99.5t-171.5 -42.5l151 -30l116 -188l31 -7v-17h-177l-132 240h-31zM218 257h24q48 0 72.5 33t24.5 87q0 49 -22.5 81.5t-56.5 32.5l-42 -7v-227z" />
    <glyph glyph-name="Racute.002" horiz-adv-x="667" 
d="M274 744l38 107h124l-133 -107h-29zM242 331v-307l58 -8v-16h-276v16l63 8v652l-63 8v16h350q40 0 77 -9.5t65.5 -30.5t45.5 -53.5t17 -78.5q0 -89 -75 -136.5t-204 -58.5l170 -34l151 -275l41 -8v-16h-201l-171 331h-48zM242 350h37q65 0 99 46t34 123q0 75 -31.5 119.5
t-78.5 45.5l-60 -8v-326z" />
    <glyph glyph-name="Racute.sc" horiz-adv-x="567" 
d="M297 659h108l-124 -100h-21zM218 240v-216l43 -7v-17h-231v17l46 7v460l-46 7v17h294q33 0 63.5 -7.5t53.5 -22.5t37 -38.5t14 -55.5q0 -63 -60.5 -99.5t-171.5 -42.5l151 -30l116 -188l31 -7v-17h-177l-132 240h-31zM218 257h24q48 0 72.5 33t24.5 87q0 49 -22.5 81.5
t-56.5 32.5l-42 -7v-227z" />
    <glyph glyph-name="Rcaron.002" horiz-adv-x="667" 
d="M191 859l115 -63h6l116 63h27l-120 -118h-51l-121 118h28zM242 331v-307l58 -8v-16h-276v16l63 8v652l-63 8v16h350q40 0 77 -9.5t65.5 -30.5t45.5 -53.5t17 -78.5q0 -89 -75 -136.5t-204 -58.5l170 -34l151 -275l41 -8v-16h-201l-171 331h-48zM242 350h37q65 0 99 46
t34 123q0 75 -31.5 119.5t-78.5 45.5l-60 -8v-326z" />
    <glyph glyph-name="Rcaron.sc" horiz-adv-x="567" 
d="M269 610l106 49h21l-107 -100h-46l-107 100h21l106 -49h6zM218 240v-216l43 -7v-17h-231v17l46 7v460l-46 7v17h294q33 0 63.5 -7.5t53.5 -22.5t37 -38.5t14 -55.5q0 -63 -60.5 -99.5t-171.5 -42.5l151 -30l116 -188l31 -7v-17h-177l-132 240h-31zM218 257h24
q48 0 72.5 33t24.5 87q0 49 -22.5 81.5t-56.5 32.5l-42 -7v-227z" />
    <glyph glyph-name="Rcommaaccent.001" horiz-adv-x="667" 
d="M322 -118l-55 33v32h125v-61l-96 -70l-12 6zM242 331v-307l58 -8v-16h-276v16l63 8v652l-63 8v16h350q40 0 77 -9.5t65.5 -30.5t45.5 -53.5t17 -78.5q0 -89 -75 -136.5t-204 -58.5l170 -34l151 -275l41 -8v-16h-201l-171 331h-48zM242 350h37q65 0 99 46t34 123
q0 75 -31.5 119.5t-78.5 45.5l-60 -8v-326z" />
    <glyph glyph-name="Rcommaaccent.sc" horiz-adv-x="567" 
d="M291 -103l-42 37v29h114v-57l-103 -89l-15 4zM218 240v-216l43 -7v-17h-231v17l46 7v460l-46 7v17h294q33 0 63.5 -7.5t53.5 -22.5t37 -38.5t14 -55.5q0 -63 -60.5 -99.5t-171.5 -42.5l151 -30l116 -188l31 -7v-17h-177l-132 240h-31zM218 257h24q48 0 72.5 33t24.5 87
q0 49 -22.5 81.5t-56.5 32.5l-42 -7v-227z" />
    <glyph glyph-name="S.sc" horiz-adv-x="468" 
d="M104 78q28 -29 61.5 -49t76.5 -20q35 0 58 19t23 51q0 26 -17.5 45t-56.5 43l-113 75q-42 28 -66.5 55t-25.5 72q-1 25 9 48.5t33.5 44t62 36t95.5 23.5q27 0 48 -1t40 -4t38 -8t42 -13v-149h-16l-55 120q-41 37 -97 37q-35 0 -57.5 -16t-22.5 -47q0 -28 19.5 -45.5
t51.5 -37.5l109 -72q48 -31 70 -59.5t22 -72.5q0 -62 -49 -103.5t-164 -62.5q-26 0 -48.5 2.5t-43.5 7.5t-43 14t-46 22v150h15z" />
    <glyph glyph-name="Sacute.002" horiz-adv-x="542" 
d="M241 744l38 107h124l-133 -107h-29zM108 101q30 -35 67.5 -61.5t86.5 -26.5q55 0 88.5 30.5t33.5 81.5q0 41 -22 72.5t-75 64.5l-133 88q-25 17 -45.5 33.5t-35.5 36t-23.5 43.5t-8.5 55q0 35 12.5 66t41.5 56.5t75.5 45t112.5 31.5q31 0 55.5 -2t47 -6t45.5 -11t50 -17
v-182h-17l-64 145q-23 24 -51 37.5t-63 13.5q-50 0 -82 -27t-32 -76q0 -41 24.5 -68.5t66.5 -53.5l130 -86q60 -38 87.5 -78.5t27.5 -100.5q0 -38 -14 -71.5t-44.5 -61.5t-80 -50.5t-121.5 -38.5q-62 0 -110.5 14.5t-99.5 46.5v186h16z" />
    <glyph glyph-name="Sacute.sc" horiz-adv-x="468" 
d="M104 78q28 -29 61.5 -49t76.5 -20q35 0 58 19t23 51q0 26 -17.5 45t-56.5 43l-113 75q-42 28 -66.5 55t-25.5 72q-1 25 9 48.5t33.5 44t62 36t95.5 23.5q27 0 48 -1t40 -4t38 -8t42 -13v-149h-16l-55 120q-41 37 -97 37q-35 0 -57.5 -16t-22.5 -47q0 -28 19.5 -45.5
t51.5 -37.5l109 -72q48 -31 70 -59.5t22 -72.5q0 -62 -49 -103.5t-164 -62.5q-26 0 -48.5 2.5t-43.5 7.5t-43 14t-46 22v150h15zM274 659h107l-123 -100h-22z" />
    <glyph glyph-name="Scaron.002" horiz-adv-x="542" 
d="M275 796h6l116 63h27l-121 -118h-50l-121 118h27zM108 101q30 -35 67.5 -61.5t86.5 -26.5q55 0 88.5 30.5t33.5 81.5q0 41 -22 72.5t-75 64.5l-133 88q-25 17 -45.5 33.5t-35.5 36t-23.5 43.5t-8.5 55q0 35 12.5 66t41.5 56.5t75.5 45t112.5 31.5q31 0 55.5 -2t47 -6
t45.5 -11t50 -17v-182h-17l-64 145q-23 24 -51 37.5t-63 13.5q-50 0 -82 -27t-32 -76q0 -41 24.5 -68.5t66.5 -53.5l130 -86q60 -38 87.5 -78.5t27.5 -100.5q0 -38 -14 -71.5t-44.5 -61.5t-80 -50.5t-121.5 -38.5q-62 0 -110.5 14.5t-99.5 46.5v186h16z" />
    <glyph glyph-name="Scaron.sc" horiz-adv-x="468" 
d="M104 78q28 -29 61.5 -49t76.5 -20q35 0 58 19t23 51q0 26 -17.5 45t-56.5 43l-113 75q-42 28 -66.5 55t-25.5 72q-1 25 9 48.5t33.5 44t62 36t95.5 23.5q27 0 48 -1t40 -4t38 -8t42 -13v-149h-16l-55 120q-41 37 -97 37q-35 0 -57.5 -16t-22.5 -47q0 -28 19.5 -45.5
t51.5 -37.5l109 -72q48 -31 70 -59.5t22 -72.5q0 -62 -49 -103.5t-164 -62.5q-26 0 -48.5 2.5t-43.5 7.5t-43 14t-46 22v150h15zM249 610l106 49h21l-107 -100h-46l-107 100h21l106 -49h6z" />
    </font>
</defs>
</svg>
